%
M48
M72
T01C0.02362
T02C0.03150
T03C0.03200
T04C0.04000
T05C0.04724
T06C0.07480
%
T01
X69867Y41800
X69867Y71800
X39867Y71800
X29867Y71800
X24867Y81800
X24867Y96800
X59867Y136800
X59867Y151800
X99867Y151800
X99867Y131800
X99867Y106800
X119867Y96800
X124867Y101800
X144867Y131800
X149867Y151800
X159867Y161800
X179867Y86800
X159867Y81800
T02
X69867Y151800
X79867Y151800
X89867Y151800
X44945Y170501
X40221Y173650
X44945Y176800
X40221Y179950
X44945Y183099
T03
X29867Y131800
X39867Y131800
X39867Y116800
X69867Y106800
X79867Y106800
X79867Y116800
X94867Y116800
X94867Y126800
X94867Y136800
X124867Y136800
X124867Y126800
X124867Y116800
X124867Y106800
X124867Y96800
X124867Y86800
X124867Y76800
X124867Y66800
X124867Y56800
X124867Y46800
X124867Y36800
X124867Y26800
X124867Y16800
X124867Y6800
X94867Y6800
X94867Y16800
X94867Y26800
X94867Y36800
X94867Y46800
X94867Y56800
X94867Y66800
X94867Y76800
X94867Y86800
X94867Y96800
X94867Y106800
X84867Y76800
X74867Y76800
X79867Y61800
X44867Y56800
X34867Y56800
X79867Y21800
X139867Y66800
X144867Y86800
X144867Y96800
X139867Y111800
X164867Y96800
X174867Y96800
X179867Y66800
X174867Y141800
X164867Y141800
X139867Y151800
X119867Y166800
X114867Y174300
X109867Y166800
X94867Y171800
X84867Y171800
T04
X14867Y131800
X14867Y121800
X14867Y111800
X14867Y101800
X14867Y91800
X14867Y81800
X14867Y71800
X14867Y61800
X199867Y61800
X199867Y71800
X199867Y81800
X199867Y91800
X199867Y101800
X199867Y111800
X199867Y121800
X199867Y131800
X199867Y146800
X199867Y156800
X199867Y166800
X199867Y176800
X199867Y186800
T05
X69119Y191800
X76993Y191800
X84867Y191800
X92741Y191800
X100615Y191800
X156304Y187174
X156304Y167489
X36304Y37174
X36304Y17489
T06
X24867Y162430
X24867Y191170
M30
