G75*
%MOIN*%
%OFA0B0*%
%FSLAX25Y25*%
%IPPOS*%
%LPD*%
%AMOC8*
5,1,8,0,0,1.08239X$1,22.5*
%
%ADD10C,0.00000*%
%ADD11OC8,0.06000*%
%ADD12C,0.07100*%
%ADD13OC8,0.07100*%
%ADD14C,0.06000*%
%ADD15C,0.05950*%
%ADD16C,0.12020*%
%ADD17C,0.08200*%
%ADD18C,0.07887*%
%ADD19R,0.04762X0.04762*%
D10*
X0009867Y0001800D02*
X0009867Y0198650D01*
X0206717Y0198650D01*
X0206717Y0001800D01*
X0009867Y0001800D01*
D11*
X0034867Y0056800D03*
X0044867Y0056800D03*
X0074867Y0076800D03*
X0084867Y0076800D03*
X0079867Y0061800D03*
X0079867Y0021800D03*
X0139867Y0066800D03*
X0179867Y0066800D03*
X0139867Y0111800D03*
X0164867Y0141800D03*
X0174867Y0141800D03*
X0139867Y0151800D03*
X0119867Y0166800D03*
X0114867Y0174300D03*
X0109867Y0166800D03*
X0094867Y0171800D03*
X0084867Y0171800D03*
X0039867Y0131800D03*
X0029867Y0131800D03*
X0039867Y0116800D03*
X0069867Y0106800D03*
X0079867Y0106800D03*
X0079867Y0116800D03*
D12*
X0144867Y0086800D03*
X0164867Y0096800D03*
D13*
X0174867Y0096800D03*
X0144867Y0096800D03*
D14*
X0127467Y0096800D02*
X0122267Y0096800D01*
X0122267Y0086800D02*
X0127467Y0086800D01*
X0127467Y0076800D02*
X0122267Y0076800D01*
X0122267Y0066800D02*
X0127467Y0066800D01*
X0127467Y0056800D02*
X0122267Y0056800D01*
X0122267Y0046800D02*
X0127467Y0046800D01*
X0127467Y0036800D02*
X0122267Y0036800D01*
X0122267Y0026800D02*
X0127467Y0026800D01*
X0127467Y0016800D02*
X0122267Y0016800D01*
X0122267Y0006800D02*
X0127467Y0006800D01*
X0097467Y0006800D02*
X0092267Y0006800D01*
X0092267Y0016800D02*
X0097467Y0016800D01*
X0097467Y0026800D02*
X0092267Y0026800D01*
X0092267Y0036800D02*
X0097467Y0036800D01*
X0097467Y0046800D02*
X0092267Y0046800D01*
X0092267Y0056800D02*
X0097467Y0056800D01*
X0097467Y0066800D02*
X0092267Y0066800D01*
X0092267Y0076800D02*
X0097467Y0076800D01*
X0097467Y0086800D02*
X0092267Y0086800D01*
X0092267Y0096800D02*
X0097467Y0096800D01*
X0097467Y0106800D02*
X0092267Y0106800D01*
X0092267Y0116800D02*
X0097467Y0116800D01*
X0097467Y0126800D02*
X0092267Y0126800D01*
X0092267Y0136800D02*
X0097467Y0136800D01*
X0122267Y0136800D02*
X0127467Y0136800D01*
X0127467Y0126800D02*
X0122267Y0126800D01*
X0122267Y0116800D02*
X0127467Y0116800D01*
X0127467Y0106800D02*
X0122267Y0106800D01*
D15*
X0044945Y0170501D03*
X0040221Y0173650D03*
X0044945Y0176800D03*
X0040221Y0179950D03*
X0044945Y0183099D03*
D16*
X0024867Y0191170D03*
X0024867Y0162430D03*
D17*
X0014867Y0131800D03*
X0014867Y0121800D03*
X0014867Y0111800D03*
X0014867Y0101800D03*
X0014867Y0091800D03*
X0014867Y0081800D03*
X0014867Y0071800D03*
X0014867Y0061800D03*
X0069867Y0151800D03*
X0079867Y0151800D03*
X0089867Y0151800D03*
X0199867Y0146800D03*
X0199867Y0156800D03*
X0199867Y0166800D03*
X0199867Y0176800D03*
X0199867Y0186800D03*
X0199867Y0131800D03*
X0199867Y0121800D03*
X0199867Y0111800D03*
X0199867Y0101800D03*
X0199867Y0091800D03*
X0199867Y0081800D03*
X0199867Y0071800D03*
X0199867Y0061800D03*
D18*
X0156304Y0167489D03*
X0156304Y0187174D03*
X0100615Y0191800D03*
X0092741Y0191800D03*
X0084867Y0191800D03*
X0076993Y0191800D03*
X0069119Y0191800D03*
X0036304Y0037174D03*
X0036304Y0017489D03*
D19*
X0069867Y0041800D03*
X0069867Y0071800D03*
X0039867Y0071800D03*
X0029867Y0071800D03*
X0024867Y0081800D03*
X0024867Y0096800D03*
X0059867Y0136800D03*
X0059867Y0151800D03*
X0099867Y0151800D03*
X0099867Y0131800D03*
X0099867Y0106800D03*
X0119867Y0096800D03*
X0124867Y0101800D03*
X0144867Y0131800D03*
X0149867Y0151800D03*
X0159867Y0161800D03*
X0179867Y0086800D03*
X0159867Y0081800D03*
M02*
