G75*
%MOIN*%
%OFA0B0*%
%FSLAX25Y25*%
%IPPOS*%
%LPD*%
%AMOC8*
5,1,8,0,0,1.08239X$1,22.5*
%
%ADD10C,0.00000*%
%ADD11OC8,0.05200*%
%ADD12C,0.06300*%
%ADD13OC8,0.06300*%
%ADD14C,0.05200*%
%ADD15C,0.05150*%
%ADD16C,0.11220*%
%ADD17C,0.07400*%
%ADD18C,0.07087*%
%ADD19C,0.01600*%
%ADD20R,0.03562X0.03562*%
D10*
X0001800Y0001800D02*
X0001800Y0198650D01*
X0198650Y0198650D01*
X0198650Y0001800D01*
X0001800Y0001800D01*
D11*
X0016800Y0026800D03*
X0036800Y0011800D03*
X0046800Y0031800D03*
X0056800Y0031800D03*
X0076800Y0011800D03*
X0131800Y0016800D03*
X0141800Y0016800D03*
X0151800Y0041800D03*
X0161800Y0041800D03*
X0161800Y0101800D03*
X0151800Y0101800D03*
X0156800Y0116800D03*
X0156800Y0156800D03*
X0131800Y0181800D03*
X0126800Y0189300D03*
X0121800Y0181800D03*
X0071800Y0116800D03*
X0061800Y0116800D03*
X0041800Y0091800D03*
X0041800Y0081800D03*
X0026800Y0096800D03*
X0016800Y0066800D03*
X0026800Y0136800D03*
D12*
X0061800Y0091800D03*
X0136800Y0076800D03*
D13*
X0136800Y0086800D03*
X0071800Y0091800D03*
D14*
X0084200Y0086800D02*
X0089400Y0086800D01*
X0089400Y0076800D02*
X0084200Y0076800D01*
X0084200Y0066800D02*
X0089400Y0066800D01*
X0089400Y0056800D02*
X0084200Y0056800D01*
X0084200Y0046800D02*
X0089400Y0046800D01*
X0089400Y0036800D02*
X0084200Y0036800D01*
X0084200Y0026800D02*
X0089400Y0026800D01*
X0089400Y0016800D02*
X0084200Y0016800D01*
X0114200Y0016800D02*
X0119400Y0016800D01*
X0119400Y0026800D02*
X0114200Y0026800D01*
X0114200Y0036800D02*
X0119400Y0036800D01*
X0119400Y0046800D02*
X0114200Y0046800D01*
X0114200Y0056800D02*
X0119400Y0056800D01*
X0119400Y0066800D02*
X0114200Y0066800D01*
X0114200Y0076800D02*
X0119400Y0076800D01*
X0119400Y0086800D02*
X0114200Y0086800D01*
X0114200Y0096800D02*
X0119400Y0096800D01*
X0119400Y0106800D02*
X0114200Y0106800D01*
X0114200Y0116800D02*
X0119400Y0116800D01*
X0119400Y0126800D02*
X0114200Y0126800D01*
X0114200Y0136800D02*
X0119400Y0136800D01*
X0119400Y0146800D02*
X0114200Y0146800D01*
X0089400Y0146800D02*
X0084200Y0146800D01*
X0084200Y0136800D02*
X0089400Y0136800D01*
X0089400Y0126800D02*
X0084200Y0126800D01*
X0084200Y0116800D02*
X0089400Y0116800D01*
X0089400Y0106800D02*
X0084200Y0106800D01*
X0084200Y0096800D02*
X0089400Y0096800D01*
D15*
X0028099Y0161721D03*
X0024950Y0166446D03*
X0021800Y0161721D03*
X0018650Y0166446D03*
X0015501Y0161721D03*
D16*
X0007430Y0181800D03*
X0036170Y0181800D03*
D17*
X0006800Y0141800D03*
X0006800Y0131800D03*
X0006800Y0121800D03*
X0006800Y0111800D03*
X0006800Y0101800D03*
X0006800Y0091800D03*
X0006800Y0081800D03*
X0006800Y0071800D03*
X0066800Y0066800D03*
X0066800Y0076800D03*
X0066800Y0056800D03*
X0191800Y0066800D03*
X0191800Y0076800D03*
X0191800Y0086800D03*
X0191800Y0096800D03*
X0191800Y0106800D03*
X0191800Y0116800D03*
X0191800Y0126800D03*
X0191800Y0136800D03*
X0191800Y0146800D03*
X0191800Y0156800D03*
X0191800Y0166800D03*
X0191800Y0176800D03*
X0191800Y0186800D03*
D18*
X0171111Y0183237D03*
X0151426Y0183237D03*
X0087548Y0191800D03*
X0079674Y0191800D03*
X0071800Y0191800D03*
X0063926Y0191800D03*
X0056052Y0191800D03*
X0051426Y0148237D03*
X0071111Y0148237D03*
D19*
X0070730Y0147856D02*
X0065768Y0147856D01*
X0065768Y0147816D01*
X0065899Y0146986D01*
X0066159Y0146186D01*
X0066541Y0145437D01*
X0067035Y0144756D01*
X0067630Y0144161D01*
X0068311Y0143667D01*
X0069060Y0143285D01*
X0069860Y0143025D01*
X0070690Y0142894D01*
X0070730Y0142894D01*
X0070730Y0147856D01*
X0070730Y0148618D01*
X0065768Y0148618D01*
X0065768Y0148658D01*
X0065899Y0149488D01*
X0066159Y0150288D01*
X0066541Y0151038D01*
X0067035Y0151718D01*
X0067630Y0152313D01*
X0068311Y0152807D01*
X0069060Y0153189D01*
X0069860Y0153449D01*
X0070690Y0153580D01*
X0070730Y0153580D01*
X0070730Y0148618D01*
X0071492Y0148618D01*
X0071492Y0153580D01*
X0071532Y0153580D01*
X0072362Y0153449D01*
X0073162Y0153189D01*
X0073912Y0152807D01*
X0074592Y0152313D01*
X0075187Y0151718D01*
X0075681Y0151038D01*
X0076063Y0150288D01*
X0076323Y0149488D01*
X0076454Y0148658D01*
X0076454Y0148618D01*
X0071492Y0148618D01*
X0071492Y0147856D01*
X0076454Y0147856D01*
X0076454Y0147816D01*
X0076323Y0146986D01*
X0076063Y0146186D01*
X0075681Y0145437D01*
X0075187Y0144756D01*
X0074592Y0144161D01*
X0073912Y0143667D01*
X0073162Y0143285D01*
X0072362Y0143025D01*
X0071532Y0142894D01*
X0071492Y0142894D01*
X0071492Y0147856D01*
X0070730Y0147856D01*
X0070730Y0147265D02*
X0071492Y0147265D01*
X0071492Y0148863D02*
X0070730Y0148863D01*
X0070730Y0150462D02*
X0071492Y0150462D01*
X0071492Y0152060D02*
X0070730Y0152060D01*
X0067378Y0152060D02*
X0054594Y0152060D01*
X0054226Y0152428D02*
X0052409Y0153180D01*
X0050443Y0153180D01*
X0048626Y0152428D01*
X0047235Y0151037D01*
X0046483Y0149220D01*
X0046483Y0147254D01*
X0047235Y0145437D01*
X0048626Y0144046D01*
X0050443Y0143294D01*
X0052409Y0143294D01*
X0054095Y0143992D01*
X0059600Y0140576D01*
X0059600Y0129981D01*
X0059439Y0129981D01*
X0058619Y0129161D01*
X0058619Y0124439D01*
X0059439Y0123619D01*
X0064161Y0123619D01*
X0064981Y0124439D01*
X0064981Y0129161D01*
X0064161Y0129981D01*
X0064000Y0129981D01*
X0064000Y0141173D01*
X0064150Y0141414D01*
X0064000Y0142054D01*
X0064000Y0142711D01*
X0063799Y0142912D01*
X0063734Y0143189D01*
X0063176Y0143535D01*
X0062711Y0144000D01*
X0062427Y0144000D01*
X0056369Y0147759D01*
X0056369Y0149220D01*
X0055617Y0151037D01*
X0054226Y0152428D01*
X0055855Y0150462D02*
X0066248Y0150462D01*
X0065800Y0148863D02*
X0056369Y0148863D01*
X0057166Y0147265D02*
X0065855Y0147265D01*
X0066424Y0145666D02*
X0059742Y0145666D01*
X0062318Y0144068D02*
X0067759Y0144068D01*
X0070730Y0144068D02*
X0071492Y0144068D01*
X0071492Y0145666D02*
X0070730Y0145666D01*
X0074463Y0144068D02*
X0081276Y0144068D01*
X0080809Y0144534D02*
X0081934Y0143409D01*
X0083404Y0142800D01*
X0090196Y0142800D01*
X0091666Y0143409D01*
X0092791Y0144534D01*
X0093400Y0146004D01*
X0093400Y0147596D01*
X0092791Y0149066D01*
X0091666Y0150191D01*
X0090196Y0150800D01*
X0083404Y0150800D01*
X0081934Y0150191D01*
X0080809Y0149066D01*
X0080200Y0147596D01*
X0080200Y0146004D01*
X0080809Y0144534D01*
X0080340Y0145666D02*
X0075798Y0145666D01*
X0076367Y0147265D02*
X0080200Y0147265D01*
X0080725Y0148863D02*
X0076422Y0148863D01*
X0075974Y0150462D02*
X0082587Y0150462D01*
X0074845Y0152060D02*
X0098429Y0152060D01*
X0099600Y0150889D02*
X0095889Y0154600D01*
X0025810Y0154600D01*
X0022642Y0157768D01*
X0022591Y0157746D01*
X0021009Y0157746D01*
X0019548Y0158352D01*
X0018918Y0158982D01*
X0018838Y0158871D01*
X0018351Y0158384D01*
X0017794Y0157980D01*
X0017180Y0157667D01*
X0016525Y0157454D01*
X0015845Y0157346D01*
X0015501Y0157346D01*
X0015501Y0161721D01*
X0015501Y0161721D01*
X0015501Y0157346D01*
X0015156Y0157346D01*
X0014476Y0157454D01*
X0013821Y0157667D01*
X0013208Y0157980D01*
X0012651Y0158384D01*
X0012164Y0158871D01*
X0011759Y0159428D01*
X0011446Y0160042D01*
X0011234Y0160697D01*
X0011126Y0161377D01*
X0011126Y0161721D01*
X0015501Y0161721D01*
X0015501Y0161721D01*
X0011126Y0161721D01*
X0011126Y0162066D01*
X0011234Y0162746D01*
X0011446Y0163401D01*
X0011759Y0164014D01*
X0012164Y0164571D01*
X0012193Y0164600D01*
X0009000Y0164600D01*
X0009000Y0154000D01*
X0026678Y0154000D01*
X0027463Y0154087D01*
X0027572Y0154000D01*
X0027711Y0154000D01*
X0028269Y0153442D01*
X0052572Y0134000D01*
X0052711Y0134000D01*
X0053270Y0133442D01*
X0053886Y0132949D01*
X0053901Y0132810D01*
X0054000Y0132711D01*
X0054000Y0131922D01*
X0054087Y0131137D01*
X0054000Y0131028D01*
X0054000Y0057977D01*
X0067466Y0049000D01*
X0067711Y0049000D01*
X0068202Y0048510D01*
X0068779Y0048125D01*
X0068827Y0047885D01*
X0069000Y0047711D01*
X0069000Y0047018D01*
X0069136Y0046338D01*
X0069000Y0046134D01*
X0069000Y0032711D01*
X0081727Y0019984D01*
X0081934Y0020191D01*
X0083404Y0020800D01*
X0090196Y0020800D01*
X0091666Y0020191D01*
X0092791Y0019066D01*
X0093400Y0017596D01*
X0093400Y0016004D01*
X0092791Y0014534D01*
X0091666Y0013409D01*
X0090196Y0012800D01*
X0083404Y0012800D01*
X0081934Y0013409D01*
X0080809Y0014534D01*
X0080706Y0014783D01*
X0065889Y0029600D01*
X0064600Y0030889D01*
X0064600Y0045623D01*
X0051134Y0054600D01*
X0050889Y0054600D01*
X0050398Y0055090D01*
X0049821Y0055475D01*
X0049773Y0055715D01*
X0049600Y0055889D01*
X0049600Y0056582D01*
X0049464Y0057262D01*
X0049600Y0057466D01*
X0049600Y0130743D01*
X0026028Y0149600D01*
X0005889Y0149600D01*
X0004600Y0150889D01*
X0004600Y0167711D01*
X0005889Y0169000D01*
X0015584Y0169000D01*
X0016399Y0169815D01*
X0017860Y0170420D01*
X0019441Y0170420D01*
X0020902Y0169815D01*
X0021800Y0168917D01*
X0022698Y0169815D01*
X0024159Y0170420D01*
X0025740Y0170420D01*
X0027201Y0169815D01*
X0028016Y0169000D01*
X0037711Y0169000D01*
X0039000Y0167711D01*
X0042711Y0164000D01*
X0102711Y0164000D01*
X0104000Y0162711D01*
X0109000Y0157711D01*
X0109000Y0092711D01*
X0111727Y0089984D01*
X0111934Y0090191D01*
X0113404Y0090800D01*
X0120196Y0090800D01*
X0121666Y0090191D01*
X0122791Y0089066D01*
X0123400Y0087596D01*
X0123400Y0086004D01*
X0122791Y0084534D01*
X0121666Y0083409D01*
X0120196Y0082800D01*
X0113404Y0082800D01*
X0111934Y0083409D01*
X0110809Y0084534D01*
X0110706Y0084783D01*
X0105889Y0089600D01*
X0105889Y0089600D01*
X0104600Y0090889D01*
X0104600Y0155889D01*
X0100889Y0159600D01*
X0040889Y0159600D01*
X0035889Y0164600D01*
X0030842Y0164600D01*
X0031469Y0163973D01*
X0032074Y0162512D01*
X0032074Y0160931D01*
X0031469Y0159470D01*
X0030999Y0159000D01*
X0097711Y0159000D01*
X0099000Y0157711D01*
X0104000Y0152711D01*
X0104000Y0087711D01*
X0111727Y0079984D01*
X0111934Y0080191D01*
X0113404Y0080800D01*
X0120196Y0080800D01*
X0121666Y0080191D01*
X0122791Y0079066D01*
X0123400Y0077596D01*
X0123400Y0076004D01*
X0122791Y0074534D01*
X0121666Y0073409D01*
X0120196Y0072800D01*
X0113404Y0072800D01*
X0111934Y0073409D01*
X0110809Y0074534D01*
X0110706Y0074783D01*
X0100889Y0084600D01*
X0099600Y0085889D01*
X0099600Y0150889D01*
X0099600Y0150462D02*
X0091013Y0150462D01*
X0092875Y0148863D02*
X0099600Y0148863D01*
X0099600Y0147265D02*
X0093400Y0147265D01*
X0093260Y0145666D02*
X0099600Y0145666D01*
X0099600Y0144068D02*
X0092324Y0144068D01*
X0090196Y0140800D02*
X0091666Y0140191D01*
X0092791Y0139066D01*
X0093400Y0137596D01*
X0093400Y0136004D01*
X0092791Y0134534D01*
X0091666Y0133409D01*
X0090196Y0132800D01*
X0083404Y0132800D01*
X0081934Y0133409D01*
X0080809Y0134534D01*
X0080200Y0136004D01*
X0080200Y0137596D01*
X0080809Y0139066D01*
X0081934Y0140191D01*
X0083404Y0140800D01*
X0090196Y0140800D01*
X0092585Y0139272D02*
X0099600Y0139272D01*
X0099600Y0140870D02*
X0064000Y0140870D01*
X0064000Y0139272D02*
X0081015Y0139272D01*
X0080232Y0137673D02*
X0064000Y0137673D01*
X0064000Y0136075D02*
X0080200Y0136075D01*
X0080867Y0134476D02*
X0064000Y0134476D01*
X0064000Y0132878D02*
X0083216Y0132878D01*
X0083404Y0130800D02*
X0081934Y0130191D01*
X0080809Y0129066D01*
X0080200Y0127596D01*
X0080200Y0126004D01*
X0080809Y0124534D01*
X0081934Y0123409D01*
X0083404Y0122800D01*
X0090196Y0122800D01*
X0091666Y0123409D01*
X0092791Y0124534D01*
X0093400Y0126004D01*
X0093400Y0127596D01*
X0092791Y0129066D01*
X0091666Y0130191D01*
X0090196Y0130800D01*
X0083404Y0130800D01*
X0081424Y0129681D02*
X0064461Y0129681D01*
X0064000Y0131279D02*
X0099600Y0131279D01*
X0099600Y0129681D02*
X0092176Y0129681D01*
X0093198Y0128082D02*
X0099600Y0128082D01*
X0099600Y0126484D02*
X0093400Y0126484D01*
X0092936Y0124885D02*
X0099600Y0124885D01*
X0099600Y0123287D02*
X0091371Y0123287D01*
X0090196Y0120800D02*
X0091666Y0120191D01*
X0092791Y0119066D01*
X0093400Y0117596D01*
X0093400Y0116004D01*
X0092791Y0114534D01*
X0091666Y0113409D01*
X0090196Y0112800D01*
X0083404Y0112800D01*
X0081934Y0113409D01*
X0080809Y0114534D01*
X0080200Y0116004D01*
X0080200Y0117596D01*
X0080809Y0119066D01*
X0081934Y0120191D01*
X0083404Y0120800D01*
X0090196Y0120800D01*
X0091767Y0120090D02*
X0099600Y0120090D01*
X0099600Y0121688D02*
X0054000Y0121688D01*
X0054000Y0120090D02*
X0059433Y0120090D01*
X0060143Y0120800D02*
X0057800Y0118457D01*
X0057800Y0115143D01*
X0060143Y0112800D01*
X0063457Y0112800D01*
X0065800Y0115143D01*
X0065800Y0118457D01*
X0063457Y0120800D01*
X0060143Y0120800D01*
X0057834Y0118491D02*
X0054000Y0118491D01*
X0054000Y0116893D02*
X0057800Y0116893D01*
X0057800Y0115294D02*
X0054000Y0115294D01*
X0054000Y0113696D02*
X0059247Y0113696D01*
X0054000Y0112097D02*
X0099600Y0112097D01*
X0099600Y0110499D02*
X0090923Y0110499D01*
X0090196Y0110800D02*
X0091666Y0110191D01*
X0092791Y0109066D01*
X0093400Y0107596D01*
X0093400Y0106004D01*
X0092791Y0104534D01*
X0091666Y0103409D01*
X0090196Y0102800D01*
X0083404Y0102800D01*
X0081934Y0103409D01*
X0080809Y0104534D01*
X0080200Y0106004D01*
X0080200Y0107596D01*
X0080809Y0109066D01*
X0081934Y0110191D01*
X0083404Y0110800D01*
X0090196Y0110800D01*
X0092860Y0108900D02*
X0099600Y0108900D01*
X0099600Y0107302D02*
X0093400Y0107302D01*
X0093275Y0105703D02*
X0099600Y0105703D01*
X0099600Y0104105D02*
X0092362Y0104105D01*
X0090196Y0100800D02*
X0091666Y0100191D01*
X0092791Y0099066D01*
X0093400Y0097596D01*
X0093400Y0096004D01*
X0092791Y0094534D01*
X0091666Y0093409D01*
X0090196Y0092800D01*
X0083404Y0092800D01*
X0081934Y0093409D01*
X0080809Y0094534D01*
X0080200Y0096004D01*
X0080200Y0097596D01*
X0080809Y0099066D01*
X0081934Y0100191D01*
X0083404Y0100800D01*
X0090196Y0100800D01*
X0092548Y0099309D02*
X0099600Y0099309D01*
X0099600Y0097711D02*
X0093352Y0097711D01*
X0093400Y0096112D02*
X0099600Y0096112D01*
X0099600Y0094514D02*
X0092771Y0094514D01*
X0090474Y0092915D02*
X0099600Y0092915D01*
X0099600Y0091317D02*
X0076750Y0091317D01*
X0076750Y0091800D02*
X0071800Y0091800D01*
X0076750Y0091800D01*
X0076750Y0093850D01*
X0073850Y0096750D01*
X0071800Y0096750D01*
X0071800Y0091800D01*
X0071800Y0091800D01*
X0071800Y0091800D01*
X0071800Y0086850D01*
X0073850Y0086850D01*
X0076750Y0089750D01*
X0076750Y0091800D01*
X0076750Y0092915D02*
X0083126Y0092915D01*
X0083404Y0090800D02*
X0081934Y0090191D01*
X0080809Y0089066D01*
X0080200Y0087596D01*
X0080200Y0086004D01*
X0080809Y0084534D01*
X0081934Y0083409D01*
X0083404Y0082800D01*
X0090196Y0082800D01*
X0091666Y0083409D01*
X0092791Y0084534D01*
X0093400Y0086004D01*
X0093400Y0087596D01*
X0092791Y0089066D01*
X0091666Y0090191D01*
X0090196Y0090800D01*
X0083404Y0090800D01*
X0081461Y0089718D02*
X0076718Y0089718D01*
X0075120Y0088120D02*
X0080417Y0088120D01*
X0080200Y0086521D02*
X0054000Y0086521D01*
X0054000Y0084923D02*
X0080648Y0084923D01*
X0082139Y0083324D02*
X0054000Y0083324D01*
X0054000Y0081726D02*
X0065364Y0081726D01*
X0065786Y0081900D02*
X0063911Y0081124D01*
X0062476Y0079689D01*
X0061700Y0077814D01*
X0061700Y0075786D01*
X0062476Y0073911D01*
X0063911Y0072476D01*
X0065037Y0072010D01*
X0064689Y0071897D01*
X0063917Y0071504D01*
X0063217Y0070995D01*
X0062605Y0070383D01*
X0062096Y0069683D01*
X0061703Y0068911D01*
X0061435Y0068088D01*
X0061300Y0067233D01*
X0061300Y0066800D01*
X0066800Y0066800D01*
X0072300Y0066800D01*
X0072300Y0067233D01*
X0072165Y0068088D01*
X0071897Y0068911D01*
X0071504Y0069683D01*
X0070995Y0070383D01*
X0070383Y0070995D01*
X0069683Y0071504D01*
X0068911Y0071897D01*
X0068563Y0072010D01*
X0069689Y0072476D01*
X0071124Y0073911D01*
X0071900Y0075786D01*
X0071900Y0077814D01*
X0071124Y0079689D01*
X0069689Y0081124D01*
X0067814Y0081900D01*
X0065786Y0081900D01*
X0062915Y0080127D02*
X0054000Y0080127D01*
X0054000Y0078529D02*
X0061996Y0078529D01*
X0061700Y0076930D02*
X0054000Y0076930D01*
X0054000Y0075332D02*
X0061888Y0075332D01*
X0062654Y0073733D02*
X0054000Y0073733D01*
X0054000Y0072134D02*
X0064737Y0072134D01*
X0062758Y0070536D02*
X0054000Y0070536D01*
X0054000Y0068937D02*
X0061716Y0068937D01*
X0061317Y0067339D02*
X0054000Y0067339D01*
X0054000Y0065740D02*
X0061399Y0065740D01*
X0061435Y0065512D02*
X0061703Y0064689D01*
X0062096Y0063917D01*
X0062605Y0063217D01*
X0063217Y0062605D01*
X0063917Y0062096D01*
X0064689Y0061703D01*
X0065037Y0061590D01*
X0063911Y0061124D01*
X0062476Y0059689D01*
X0061700Y0057814D01*
X0061700Y0055786D01*
X0062476Y0053911D01*
X0063911Y0052476D01*
X0065786Y0051700D01*
X0067814Y0051700D01*
X0069689Y0052476D01*
X0071124Y0053911D01*
X0071900Y0055786D01*
X0071900Y0057814D01*
X0071124Y0059689D01*
X0069689Y0061124D01*
X0068563Y0061590D01*
X0068911Y0061703D01*
X0069683Y0062096D01*
X0070383Y0062605D01*
X0070995Y0063217D01*
X0071504Y0063917D01*
X0071897Y0064689D01*
X0072165Y0065512D01*
X0072300Y0066367D01*
X0072300Y0066800D01*
X0066800Y0066800D01*
X0066800Y0066800D01*
X0066800Y0066800D01*
X0061300Y0066800D01*
X0061300Y0066367D01*
X0061435Y0065512D01*
X0061982Y0064142D02*
X0054000Y0064142D01*
X0054000Y0062543D02*
X0063302Y0062543D01*
X0063732Y0060945D02*
X0054000Y0060945D01*
X0054000Y0059346D02*
X0062335Y0059346D01*
X0061700Y0057748D02*
X0054344Y0057748D01*
X0051800Y0056800D02*
X0051800Y0131800D01*
X0026800Y0151800D01*
X0006800Y0151800D01*
X0006800Y0166800D01*
X0016800Y0166800D01*
X0018650Y0166446D01*
X0021074Y0169644D02*
X0022526Y0169644D01*
X0025304Y0166800D02*
X0024950Y0166446D01*
X0025304Y0166800D02*
X0036800Y0166800D01*
X0041800Y0161800D01*
X0101800Y0161800D01*
X0106800Y0156800D01*
X0106800Y0091800D01*
X0111800Y0086800D01*
X0116800Y0086800D01*
X0121461Y0083324D02*
X0124600Y0083324D01*
X0124600Y0081726D02*
X0109986Y0081726D01*
X0108387Y0083324D02*
X0112139Y0083324D01*
X0110566Y0084923D02*
X0106789Y0084923D01*
X0105190Y0086521D02*
X0108968Y0086521D01*
X0107369Y0088120D02*
X0104000Y0088120D01*
X0104000Y0089718D02*
X0105771Y0089718D01*
X0104600Y0091317D02*
X0104000Y0091317D01*
X0104000Y0092915D02*
X0104600Y0092915D01*
X0104600Y0094514D02*
X0104000Y0094514D01*
X0104000Y0096112D02*
X0104600Y0096112D01*
X0104600Y0097711D02*
X0104000Y0097711D01*
X0104000Y0099309D02*
X0104600Y0099309D01*
X0104600Y0100908D02*
X0104000Y0100908D01*
X0104000Y0102506D02*
X0104600Y0102506D01*
X0104600Y0104105D02*
X0104000Y0104105D01*
X0104000Y0105703D02*
X0104600Y0105703D01*
X0104600Y0107302D02*
X0104000Y0107302D01*
X0104000Y0108900D02*
X0104600Y0108900D01*
X0104600Y0110499D02*
X0104000Y0110499D01*
X0104000Y0112097D02*
X0104600Y0112097D01*
X0104600Y0113696D02*
X0104000Y0113696D01*
X0104000Y0115294D02*
X0104600Y0115294D01*
X0104600Y0116893D02*
X0104000Y0116893D01*
X0104000Y0118491D02*
X0104600Y0118491D01*
X0104600Y0120090D02*
X0104000Y0120090D01*
X0104000Y0121688D02*
X0104600Y0121688D01*
X0104600Y0123287D02*
X0104000Y0123287D01*
X0104000Y0124885D02*
X0104600Y0124885D01*
X0104600Y0126484D02*
X0104000Y0126484D01*
X0104000Y0128082D02*
X0104600Y0128082D01*
X0104600Y0129681D02*
X0104000Y0129681D01*
X0104000Y0131279D02*
X0104600Y0131279D01*
X0104600Y0132878D02*
X0104000Y0132878D01*
X0104000Y0134476D02*
X0104600Y0134476D01*
X0104600Y0136075D02*
X0104000Y0136075D01*
X0104000Y0137673D02*
X0104600Y0137673D01*
X0104600Y0139272D02*
X0104000Y0139272D01*
X0104000Y0140870D02*
X0104600Y0140870D01*
X0104600Y0142469D02*
X0104000Y0142469D01*
X0104000Y0144068D02*
X0104600Y0144068D01*
X0104600Y0145666D02*
X0104000Y0145666D01*
X0104000Y0147265D02*
X0104600Y0147265D01*
X0104600Y0148863D02*
X0104000Y0148863D01*
X0104000Y0150462D02*
X0104600Y0150462D01*
X0104600Y0152060D02*
X0104000Y0152060D01*
X0104600Y0153659D02*
X0103053Y0153659D01*
X0104600Y0155257D02*
X0101454Y0155257D01*
X0099856Y0156856D02*
X0103633Y0156856D01*
X0102035Y0158454D02*
X0098257Y0158454D01*
X0096800Y0156800D02*
X0026721Y0156800D01*
X0021800Y0161721D01*
X0019446Y0158454D02*
X0018421Y0158454D01*
X0015501Y0158454D02*
X0015501Y0158454D01*
X0015501Y0160053D02*
X0015501Y0160053D01*
X0015501Y0161651D02*
X0015501Y0161651D01*
X0012581Y0158454D02*
X0009000Y0158454D01*
X0009000Y0156856D02*
X0023554Y0156856D01*
X0025153Y0155257D02*
X0009000Y0155257D01*
X0004600Y0155257D02*
X0003600Y0155257D01*
X0003600Y0153659D02*
X0004600Y0153659D01*
X0004600Y0152060D02*
X0003600Y0152060D01*
X0003600Y0150462D02*
X0005027Y0150462D01*
X0003600Y0148863D02*
X0026949Y0148863D01*
X0028948Y0147265D02*
X0003600Y0147265D01*
X0003911Y0146124D02*
X0003600Y0145812D01*
X0003600Y0175799D01*
X0006035Y0174790D01*
X0008824Y0174790D01*
X0011401Y0175857D01*
X0013373Y0177829D01*
X0014440Y0180406D01*
X0014440Y0183194D01*
X0013373Y0185771D01*
X0011401Y0187743D01*
X0008824Y0188810D01*
X0006035Y0188810D01*
X0003600Y0187801D01*
X0003600Y0196800D01*
X0109600Y0196800D01*
X0109600Y0192711D01*
X0105889Y0189000D01*
X0104600Y0187711D01*
X0104600Y0169981D01*
X0104439Y0169981D01*
X0103619Y0169161D01*
X0103619Y0164439D01*
X0104439Y0163619D01*
X0109161Y0163619D01*
X0109981Y0164439D01*
X0109981Y0169161D01*
X0109161Y0169981D01*
X0109000Y0169981D01*
X0109000Y0185889D01*
X0112711Y0189600D01*
X0112711Y0189600D01*
X0114000Y0190889D01*
X0114000Y0194600D01*
X0134600Y0194600D01*
X0134600Y0190889D01*
X0135889Y0189600D01*
X0158619Y0189600D01*
X0158619Y0189439D01*
X0159439Y0188619D01*
X0164161Y0188619D01*
X0164981Y0189439D01*
X0164981Y0194161D01*
X0164161Y0194981D01*
X0159439Y0194981D01*
X0158619Y0194161D01*
X0158619Y0194000D01*
X0139000Y0194000D01*
X0139000Y0196800D01*
X0196800Y0196800D01*
X0196800Y0188056D01*
X0196124Y0189689D01*
X0194689Y0191124D01*
X0192814Y0191900D01*
X0190786Y0191900D01*
X0188911Y0191124D01*
X0187476Y0189689D01*
X0186700Y0187814D01*
X0186700Y0185786D01*
X0187476Y0183911D01*
X0188911Y0182476D01*
X0190544Y0181800D01*
X0188911Y0181124D01*
X0187476Y0179689D01*
X0187191Y0179000D01*
X0180889Y0179000D01*
X0169600Y0167711D01*
X0169600Y0151788D01*
X0164000Y0167188D01*
X0164000Y0167711D01*
X0163701Y0168011D01*
X0163556Y0168408D01*
X0163082Y0168630D01*
X0162711Y0169000D01*
X0162288Y0169000D01*
X0161905Y0169179D01*
X0161412Y0169000D01*
X0148160Y0169000D01*
X0139132Y0187056D01*
X0139155Y0187150D01*
X0138730Y0187859D01*
X0138360Y0188599D01*
X0138268Y0188630D01*
X0138218Y0188713D01*
X0137416Y0188914D01*
X0136631Y0189175D01*
X0136544Y0189132D01*
X0130800Y0190568D01*
X0130800Y0190957D01*
X0128457Y0193300D01*
X0125143Y0193300D01*
X0122800Y0190957D01*
X0122800Y0187643D01*
X0125143Y0185300D01*
X0128457Y0185300D01*
X0129511Y0186354D01*
X0131729Y0185800D01*
X0130143Y0185800D01*
X0127800Y0183457D01*
X0127800Y0180143D01*
X0130143Y0177800D01*
X0133457Y0177800D01*
X0135800Y0180143D01*
X0135800Y0183457D01*
X0134033Y0185224D01*
X0135285Y0184911D01*
X0144600Y0166281D01*
X0144600Y0165889D01*
X0144992Y0165497D01*
X0145240Y0165001D01*
X0145612Y0164877D01*
X0145889Y0164600D01*
X0146443Y0164600D01*
X0146969Y0164425D01*
X0147319Y0164600D01*
X0160259Y0164600D01*
X0179647Y0111284D01*
X0183117Y0082915D01*
X0158407Y0093505D01*
X0155325Y0099669D01*
X0155800Y0100143D01*
X0155800Y0103457D01*
X0153457Y0105800D01*
X0150143Y0105800D01*
X0147800Y0103457D01*
X0147800Y0100143D01*
X0150143Y0097800D01*
X0151340Y0097800D01*
X0154791Y0090898D01*
X0155096Y0090137D01*
X0155193Y0090095D01*
X0155240Y0090001D01*
X0156018Y0089742D01*
X0184636Y0077477D01*
X0185128Y0077092D01*
X0185444Y0077130D01*
X0185736Y0077005D01*
X0185736Y0077005D01*
X0186700Y0076592D01*
X0186700Y0075786D01*
X0187476Y0073911D01*
X0188911Y0072476D01*
X0190037Y0072010D01*
X0189689Y0071897D01*
X0188917Y0071504D01*
X0188217Y0070995D01*
X0187605Y0070383D01*
X0187096Y0069683D01*
X0186703Y0068911D01*
X0186435Y0068088D01*
X0186300Y0067233D01*
X0186300Y0067000D01*
X0191600Y0067000D01*
X0191600Y0066600D01*
X0192000Y0066600D01*
X0192000Y0061300D01*
X0192233Y0061300D01*
X0193088Y0061435D01*
X0193911Y0061703D01*
X0194683Y0062096D01*
X0195383Y0062605D01*
X0195995Y0063217D01*
X0196504Y0063917D01*
X0196800Y0064498D01*
X0196800Y0003600D01*
X0003600Y0003600D01*
X0003600Y0067327D01*
X0003917Y0067096D01*
X0004689Y0066703D01*
X0005512Y0066435D01*
X0006367Y0066300D01*
X0006600Y0066300D01*
X0006600Y0071600D01*
X0007000Y0071600D01*
X0007000Y0072000D01*
X0012300Y0072000D01*
X0012300Y0072233D01*
X0012165Y0073088D01*
X0011897Y0073911D01*
X0011504Y0074683D01*
X0010995Y0075383D01*
X0010383Y0075995D01*
X0009683Y0076504D01*
X0008911Y0076897D01*
X0008563Y0077010D01*
X0009689Y0077476D01*
X0011124Y0078911D01*
X0011409Y0079600D01*
X0022711Y0079600D01*
X0027711Y0084600D01*
X0029000Y0085889D01*
X0029000Y0093343D01*
X0030800Y0095143D01*
X0030800Y0098457D01*
X0028457Y0100800D01*
X0025143Y0100800D01*
X0022800Y0098457D01*
X0022800Y0095143D01*
X0024600Y0093343D01*
X0024600Y0087711D01*
X0020889Y0084000D01*
X0011409Y0084000D01*
X0011124Y0084689D01*
X0009689Y0086124D01*
X0008056Y0086800D01*
X0009689Y0087476D01*
X0011124Y0088911D01*
X0011900Y0090786D01*
X0011900Y0092814D01*
X0011124Y0094689D01*
X0009689Y0096124D01*
X0008056Y0096800D01*
X0009689Y0097476D01*
X0011124Y0098911D01*
X0011409Y0099600D01*
X0016281Y0099600D01*
X0016631Y0099425D01*
X0017157Y0099600D01*
X0017711Y0099600D01*
X0017988Y0099877D01*
X0018360Y0100001D01*
X0018608Y0100497D01*
X0019000Y0100889D01*
X0019000Y0101281D01*
X0023608Y0110497D01*
X0024000Y0110889D01*
X0024000Y0111281D01*
X0024175Y0111631D01*
X0024000Y0112157D01*
X0024000Y0130889D01*
X0025911Y0132800D01*
X0028457Y0132800D01*
X0030800Y0135143D01*
X0030800Y0138457D01*
X0028457Y0140800D01*
X0025143Y0140800D01*
X0022800Y0138457D01*
X0022800Y0135911D01*
X0019600Y0132711D01*
X0019600Y0112319D01*
X0015440Y0104000D01*
X0011409Y0104000D01*
X0011124Y0104689D01*
X0009689Y0106124D01*
X0008056Y0106800D01*
X0009689Y0107476D01*
X0011124Y0108911D01*
X0011900Y0110786D01*
X0011900Y0112814D01*
X0011124Y0114689D01*
X0009689Y0116124D01*
X0008056Y0116800D01*
X0009689Y0117476D01*
X0011124Y0118911D01*
X0011900Y0120786D01*
X0011900Y0122814D01*
X0011124Y0124689D01*
X0009689Y0126124D01*
X0008056Y0126800D01*
X0009689Y0127476D01*
X0011124Y0128911D01*
X0011900Y0130786D01*
X0011900Y0132814D01*
X0011124Y0134689D01*
X0009689Y0136124D01*
X0008056Y0136800D01*
X0009689Y0137476D01*
X0011124Y0138911D01*
X0011900Y0140786D01*
X0011900Y0142814D01*
X0011124Y0144689D01*
X0009689Y0146124D01*
X0007814Y0146900D01*
X0005786Y0146900D01*
X0003911Y0146124D01*
X0010146Y0145666D02*
X0030946Y0145666D01*
X0032944Y0144068D02*
X0011381Y0144068D01*
X0011900Y0142469D02*
X0034942Y0142469D01*
X0036940Y0140870D02*
X0011900Y0140870D01*
X0011273Y0139272D02*
X0023615Y0139272D01*
X0022800Y0137673D02*
X0009886Y0137673D01*
X0009738Y0136075D02*
X0022800Y0136075D01*
X0021365Y0134476D02*
X0011212Y0134476D01*
X0011874Y0132878D02*
X0019767Y0132878D01*
X0019600Y0131279D02*
X0011900Y0131279D01*
X0011442Y0129681D02*
X0019600Y0129681D01*
X0019600Y0128082D02*
X0010295Y0128082D01*
X0008819Y0126484D02*
X0019600Y0126484D01*
X0019600Y0124885D02*
X0010927Y0124885D01*
X0011704Y0123287D02*
X0019600Y0123287D01*
X0019600Y0121688D02*
X0011900Y0121688D01*
X0011612Y0120090D02*
X0019600Y0120090D01*
X0019600Y0118491D02*
X0010704Y0118491D01*
X0008280Y0116893D02*
X0019600Y0116893D01*
X0019600Y0115294D02*
X0010518Y0115294D01*
X0011535Y0113696D02*
X0019600Y0113696D01*
X0019489Y0112097D02*
X0011900Y0112097D01*
X0011781Y0110499D02*
X0018690Y0110499D01*
X0017890Y0108900D02*
X0011113Y0108900D01*
X0009267Y0107302D02*
X0017091Y0107302D01*
X0016292Y0105703D02*
X0010109Y0105703D01*
X0011366Y0104105D02*
X0015493Y0104105D01*
X0016800Y0101800D02*
X0021800Y0111800D01*
X0021800Y0131800D01*
X0026800Y0136800D01*
X0029985Y0139272D02*
X0038938Y0139272D01*
X0040936Y0137673D02*
X0030800Y0137673D01*
X0030800Y0136075D02*
X0042935Y0136075D01*
X0044933Y0134476D02*
X0030133Y0134476D01*
X0028535Y0132878D02*
X0046931Y0132878D01*
X0048929Y0131279D02*
X0024391Y0131279D01*
X0024000Y0129681D02*
X0049600Y0129681D01*
X0049600Y0128082D02*
X0024000Y0128082D01*
X0024000Y0126484D02*
X0049600Y0126484D01*
X0049600Y0124885D02*
X0024000Y0124885D01*
X0024000Y0123287D02*
X0049600Y0123287D01*
X0049600Y0121688D02*
X0024000Y0121688D01*
X0024000Y0120090D02*
X0049600Y0120090D01*
X0049600Y0118491D02*
X0024000Y0118491D01*
X0024000Y0116893D02*
X0049600Y0116893D01*
X0049600Y0115294D02*
X0024000Y0115294D01*
X0024000Y0113696D02*
X0049600Y0113696D01*
X0049600Y0112097D02*
X0024020Y0112097D01*
X0023610Y0110499D02*
X0049600Y0110499D01*
X0049600Y0108900D02*
X0022810Y0108900D01*
X0022011Y0107302D02*
X0049600Y0107302D01*
X0049600Y0105703D02*
X0021211Y0105703D01*
X0020412Y0104105D02*
X0049600Y0104105D01*
X0049600Y0102506D02*
X0019613Y0102506D01*
X0019000Y0100908D02*
X0049600Y0100908D01*
X0049600Y0099309D02*
X0029948Y0099309D01*
X0030800Y0097711D02*
X0049600Y0097711D01*
X0049600Y0096112D02*
X0030800Y0096112D01*
X0030170Y0094514D02*
X0038857Y0094514D01*
X0037800Y0093457D02*
X0037800Y0090143D01*
X0040143Y0087800D01*
X0043457Y0087800D01*
X0045800Y0090143D01*
X0045800Y0093457D01*
X0043457Y0095800D01*
X0040143Y0095800D01*
X0037800Y0093457D01*
X0037800Y0092915D02*
X0029000Y0092915D01*
X0029000Y0091317D02*
X0037800Y0091317D01*
X0038225Y0089718D02*
X0029000Y0089718D01*
X0029000Y0088120D02*
X0039824Y0088120D01*
X0040143Y0085800D02*
X0037800Y0083457D01*
X0037800Y0081966D01*
X0018732Y0070525D01*
X0018457Y0070800D01*
X0015143Y0070800D01*
X0012800Y0068457D01*
X0012800Y0065143D01*
X0015143Y0062800D01*
X0018457Y0062800D01*
X0020800Y0065143D01*
X0020800Y0066634D01*
X0039868Y0078075D01*
X0040143Y0077800D01*
X0043457Y0077800D01*
X0045800Y0080143D01*
X0045800Y0083457D01*
X0043457Y0085800D01*
X0040143Y0085800D01*
X0039266Y0084923D02*
X0028034Y0084923D01*
X0029000Y0086521D02*
X0049600Y0086521D01*
X0049600Y0084923D02*
X0044334Y0084923D01*
X0045800Y0083324D02*
X0049600Y0083324D01*
X0049600Y0081726D02*
X0045800Y0081726D01*
X0045784Y0080127D02*
X0049600Y0080127D01*
X0049600Y0078529D02*
X0044185Y0078529D01*
X0041800Y0081800D02*
X0016800Y0066800D01*
X0018721Y0070536D02*
X0018751Y0070536D01*
X0021415Y0072134D02*
X0012300Y0072134D01*
X0012300Y0071600D02*
X0007000Y0071600D01*
X0007000Y0066300D01*
X0007233Y0066300D01*
X0008088Y0066435D01*
X0008911Y0066703D01*
X0009683Y0067096D01*
X0010383Y0067605D01*
X0010995Y0068217D01*
X0011504Y0068917D01*
X0011897Y0069689D01*
X0012165Y0070512D01*
X0012300Y0071367D01*
X0012300Y0071600D01*
X0012168Y0070536D02*
X0014879Y0070536D01*
X0013281Y0068937D02*
X0011514Y0068937D01*
X0012800Y0067339D02*
X0010017Y0067339D01*
X0007000Y0067339D02*
X0006600Y0067339D01*
X0006600Y0068937D02*
X0007000Y0068937D01*
X0007000Y0070536D02*
X0006600Y0070536D01*
X0003600Y0065740D02*
X0012800Y0065740D01*
X0013801Y0064142D02*
X0003600Y0064142D01*
X0003600Y0062543D02*
X0049600Y0062543D01*
X0049600Y0060945D02*
X0003600Y0060945D01*
X0003600Y0059346D02*
X0049600Y0059346D01*
X0049600Y0057748D02*
X0003600Y0057748D01*
X0003600Y0056149D02*
X0049600Y0056149D01*
X0051208Y0054551D02*
X0003600Y0054551D01*
X0003600Y0052952D02*
X0053605Y0052952D01*
X0051800Y0056800D02*
X0066800Y0046800D01*
X0066800Y0031800D01*
X0081800Y0016800D01*
X0086800Y0016800D01*
X0090653Y0012990D02*
X0112947Y0012990D01*
X0113404Y0012800D02*
X0120196Y0012800D01*
X0121666Y0013409D01*
X0122791Y0014534D01*
X0123400Y0016004D01*
X0123400Y0017596D01*
X0122791Y0019066D01*
X0121666Y0020191D01*
X0120196Y0020800D01*
X0113404Y0020800D01*
X0111934Y0020191D01*
X0110809Y0019066D01*
X0110200Y0017596D01*
X0110200Y0016004D01*
X0110809Y0014534D01*
X0111934Y0013409D01*
X0113404Y0012800D01*
X0110787Y0014588D02*
X0092813Y0014588D01*
X0093400Y0016187D02*
X0110200Y0016187D01*
X0110278Y0017785D02*
X0093322Y0017785D01*
X0092473Y0019384D02*
X0111127Y0019384D01*
X0111934Y0023409D02*
X0113404Y0022800D01*
X0120196Y0022800D01*
X0121666Y0023409D01*
X0122791Y0024534D01*
X0123400Y0026004D01*
X0123400Y0027596D01*
X0122791Y0029066D01*
X0121666Y0030191D01*
X0120196Y0030800D01*
X0113404Y0030800D01*
X0111934Y0030191D01*
X0110809Y0029066D01*
X0110200Y0027596D01*
X0110200Y0026004D01*
X0110809Y0024534D01*
X0111934Y0023409D01*
X0111164Y0024179D02*
X0092436Y0024179D01*
X0092791Y0024534D02*
X0093400Y0026004D01*
X0093400Y0027596D01*
X0092791Y0029066D01*
X0091666Y0030191D01*
X0090196Y0030800D01*
X0083404Y0030800D01*
X0081934Y0030191D01*
X0080809Y0029066D01*
X0080200Y0027596D01*
X0080200Y0026004D01*
X0080809Y0024534D01*
X0081934Y0023409D01*
X0083404Y0022800D01*
X0090196Y0022800D01*
X0091666Y0023409D01*
X0092791Y0024534D01*
X0093306Y0025778D02*
X0110294Y0025778D01*
X0110200Y0027376D02*
X0093400Y0027376D01*
X0092829Y0028975D02*
X0110771Y0028975D01*
X0112857Y0030573D02*
X0090743Y0030573D01*
X0090196Y0032800D02*
X0091666Y0033409D01*
X0092791Y0034534D01*
X0093400Y0036004D01*
X0093400Y0037596D01*
X0092791Y0039066D01*
X0091666Y0040191D01*
X0090196Y0040800D01*
X0083404Y0040800D01*
X0081934Y0040191D01*
X0080809Y0039066D01*
X0080200Y0037596D01*
X0080200Y0036004D01*
X0080809Y0034534D01*
X0081934Y0033409D01*
X0083404Y0032800D01*
X0090196Y0032800D01*
X0092027Y0033770D02*
X0111573Y0033770D01*
X0111934Y0033409D02*
X0110809Y0034534D01*
X0110200Y0036004D01*
X0110200Y0037596D01*
X0110809Y0039066D01*
X0111934Y0040191D01*
X0113404Y0040800D01*
X0120196Y0040800D01*
X0121666Y0040191D01*
X0122791Y0039066D01*
X0123400Y0037596D01*
X0123400Y0036004D01*
X0122791Y0034534D01*
X0121666Y0033409D01*
X0120196Y0032800D01*
X0113404Y0032800D01*
X0111934Y0033409D01*
X0110463Y0035369D02*
X0093137Y0035369D01*
X0093400Y0036967D02*
X0110200Y0036967D01*
X0110602Y0038566D02*
X0092998Y0038566D01*
X0091693Y0040164D02*
X0111907Y0040164D01*
X0113404Y0042800D02*
X0120196Y0042800D01*
X0121666Y0043409D01*
X0122791Y0044534D01*
X0123400Y0046004D01*
X0123400Y0047596D01*
X0122791Y0049066D01*
X0121666Y0050191D01*
X0120196Y0050800D01*
X0113404Y0050800D01*
X0111934Y0050191D01*
X0110809Y0049066D01*
X0110200Y0047596D01*
X0110200Y0046004D01*
X0110809Y0044534D01*
X0111934Y0043409D01*
X0113404Y0042800D01*
X0112049Y0043361D02*
X0091551Y0043361D01*
X0091666Y0043409D02*
X0092791Y0044534D01*
X0093400Y0046004D01*
X0093400Y0047596D01*
X0092791Y0049066D01*
X0091666Y0050191D01*
X0090196Y0050800D01*
X0083404Y0050800D01*
X0081934Y0050191D01*
X0080809Y0049066D01*
X0080200Y0047596D01*
X0080200Y0046004D01*
X0080809Y0044534D01*
X0081934Y0043409D01*
X0083404Y0042800D01*
X0090196Y0042800D01*
X0091666Y0043409D01*
X0092967Y0044960D02*
X0110633Y0044960D01*
X0110200Y0046558D02*
X0093400Y0046558D01*
X0093168Y0048157D02*
X0110432Y0048157D01*
X0111498Y0049755D02*
X0092102Y0049755D01*
X0090196Y0052800D02*
X0091666Y0053409D01*
X0092791Y0054534D01*
X0093400Y0056004D01*
X0093400Y0057596D01*
X0092791Y0059066D01*
X0091666Y0060191D01*
X0090196Y0060800D01*
X0083404Y0060800D01*
X0081934Y0060191D01*
X0080809Y0059066D01*
X0080200Y0057596D01*
X0080200Y0056004D01*
X0080809Y0054534D01*
X0081934Y0053409D01*
X0083404Y0052800D01*
X0090196Y0052800D01*
X0090563Y0052952D02*
X0112060Y0052952D01*
X0111894Y0053037D02*
X0112511Y0052722D01*
X0113170Y0052508D01*
X0113854Y0052400D01*
X0116800Y0052400D01*
X0119746Y0052400D01*
X0120430Y0052508D01*
X0121089Y0052722D01*
X0121706Y0053037D01*
X0122266Y0053444D01*
X0122756Y0053934D01*
X0123163Y0054494D01*
X0123478Y0055111D01*
X0123692Y0055770D01*
X0123800Y0056454D01*
X0123800Y0056800D01*
X0123800Y0057146D01*
X0123692Y0057830D01*
X0123478Y0058489D01*
X0123163Y0059106D01*
X0122756Y0059666D01*
X0122266Y0060156D01*
X0121706Y0060563D01*
X0121089Y0060878D01*
X0120430Y0061092D01*
X0119746Y0061200D01*
X0116800Y0061200D01*
X0116800Y0056800D01*
X0116800Y0056800D01*
X0123800Y0056800D01*
X0116800Y0056800D01*
X0116800Y0056800D01*
X0116800Y0052400D01*
X0116800Y0056800D01*
X0116800Y0056800D01*
X0116800Y0056800D01*
X0109800Y0056800D01*
X0109800Y0057146D01*
X0109908Y0057830D01*
X0110122Y0058489D01*
X0110437Y0059106D01*
X0110844Y0059666D01*
X0111334Y0060156D01*
X0111894Y0060563D01*
X0112511Y0060878D01*
X0113170Y0061092D01*
X0113854Y0061200D01*
X0116800Y0061200D01*
X0116800Y0056800D01*
X0109800Y0056800D01*
X0109800Y0056454D01*
X0109908Y0055770D01*
X0110122Y0055111D01*
X0110437Y0054494D01*
X0110844Y0053934D01*
X0111334Y0053444D01*
X0111894Y0053037D01*
X0110408Y0054551D02*
X0092798Y0054551D01*
X0093400Y0056149D02*
X0109848Y0056149D01*
X0109895Y0057748D02*
X0093337Y0057748D01*
X0092510Y0059346D02*
X0110611Y0059346D01*
X0112718Y0060945D02*
X0069868Y0060945D01*
X0070298Y0062543D02*
X0124577Y0062543D01*
X0124600Y0062572D02*
X0124513Y0062463D01*
X0124600Y0061678D01*
X0124600Y0060889D01*
X0124699Y0060790D01*
X0124714Y0060651D01*
X0125330Y0060158D01*
X0125889Y0059600D01*
X0126028Y0059600D01*
X0147800Y0042183D01*
X0147800Y0040143D01*
X0150143Y0037800D01*
X0153457Y0037800D01*
X0155800Y0040143D01*
X0155800Y0043457D01*
X0153457Y0045800D01*
X0150322Y0045800D01*
X0129000Y0062857D01*
X0129000Y0091281D01*
X0138160Y0109600D01*
X0152711Y0109600D01*
X0154000Y0110889D01*
X0155911Y0112800D01*
X0158457Y0112800D01*
X0160800Y0115143D01*
X0160800Y0118457D01*
X0159000Y0120257D01*
X0159000Y0140889D01*
X0161730Y0143619D01*
X0164161Y0143619D01*
X0164981Y0144439D01*
X0164981Y0149161D01*
X0164161Y0149981D01*
X0159439Y0149981D01*
X0158619Y0149161D01*
X0158619Y0146730D01*
X0155889Y0144000D01*
X0154600Y0142711D01*
X0154600Y0120257D01*
X0152800Y0118457D01*
X0152800Y0115911D01*
X0150889Y0114000D01*
X0138386Y0114000D01*
X0128599Y0143360D01*
X0128555Y0143382D01*
X0123385Y0145967D01*
X0123400Y0146004D01*
X0123400Y0147596D01*
X0122791Y0149066D01*
X0121666Y0150191D01*
X0120196Y0150800D01*
X0113404Y0150800D01*
X0111934Y0150191D01*
X0110809Y0149066D01*
X0110200Y0147596D01*
X0110200Y0146004D01*
X0110809Y0144534D01*
X0111934Y0143409D01*
X0113404Y0142800D01*
X0119881Y0142800D01*
X0125001Y0140240D01*
X0134425Y0111969D01*
X0125816Y0094752D01*
X0123385Y0095967D01*
X0123400Y0096004D01*
X0123400Y0097596D01*
X0122791Y0099066D01*
X0121666Y0100191D01*
X0120196Y0100800D01*
X0113404Y0100800D01*
X0111934Y0100191D01*
X0110809Y0099066D01*
X0110200Y0097596D01*
X0110200Y0096004D01*
X0110809Y0094534D01*
X0111934Y0093409D01*
X0113404Y0092800D01*
X0119881Y0092800D01*
X0124600Y0090440D01*
X0124600Y0062572D01*
X0124600Y0064142D02*
X0122399Y0064142D01*
X0122791Y0064534D02*
X0123400Y0066004D01*
X0123400Y0067596D01*
X0122791Y0069066D01*
X0121666Y0070191D01*
X0120196Y0070800D01*
X0113404Y0070800D01*
X0111934Y0070191D01*
X0110809Y0069066D01*
X0110200Y0067596D01*
X0110200Y0066004D01*
X0110809Y0064534D01*
X0111934Y0063409D01*
X0113404Y0062800D01*
X0120196Y0062800D01*
X0121666Y0063409D01*
X0122791Y0064534D01*
X0123291Y0065740D02*
X0124600Y0065740D01*
X0124600Y0067339D02*
X0123400Y0067339D01*
X0122844Y0068937D02*
X0124600Y0068937D01*
X0124600Y0070536D02*
X0120833Y0070536D01*
X0121990Y0073733D02*
X0124600Y0073733D01*
X0124600Y0072134D02*
X0068863Y0072134D01*
X0070842Y0070536D02*
X0082767Y0070536D01*
X0083404Y0070800D02*
X0081934Y0070191D01*
X0080809Y0069066D01*
X0080200Y0067596D01*
X0080200Y0066004D01*
X0080809Y0064534D01*
X0081934Y0063409D01*
X0083404Y0062800D01*
X0090196Y0062800D01*
X0091666Y0063409D01*
X0092791Y0064534D01*
X0093400Y0066004D01*
X0093400Y0067596D01*
X0092791Y0069066D01*
X0091666Y0070191D01*
X0090196Y0070800D01*
X0083404Y0070800D01*
X0083854Y0072400D02*
X0086800Y0072400D01*
X0089746Y0072400D01*
X0090430Y0072508D01*
X0091089Y0072722D01*
X0091706Y0073037D01*
X0092266Y0073444D01*
X0092756Y0073934D01*
X0093163Y0074494D01*
X0093478Y0075111D01*
X0093692Y0075770D01*
X0093800Y0076454D01*
X0093800Y0076800D01*
X0093800Y0077146D01*
X0093692Y0077830D01*
X0093478Y0078489D01*
X0093163Y0079106D01*
X0092756Y0079666D01*
X0092266Y0080156D01*
X0091706Y0080563D01*
X0091089Y0080878D01*
X0090430Y0081092D01*
X0089746Y0081200D01*
X0086800Y0081200D01*
X0086800Y0076800D01*
X0086800Y0076800D01*
X0093800Y0076800D01*
X0086800Y0076800D01*
X0086800Y0076800D01*
X0086800Y0072400D01*
X0086800Y0076800D01*
X0086800Y0076800D01*
X0086800Y0076800D01*
X0079800Y0076800D01*
X0079800Y0077146D01*
X0079908Y0077830D01*
X0080122Y0078489D01*
X0080437Y0079106D01*
X0080844Y0079666D01*
X0081334Y0080156D01*
X0081894Y0080563D01*
X0082511Y0080878D01*
X0083170Y0081092D01*
X0083854Y0081200D01*
X0086800Y0081200D01*
X0086800Y0076800D01*
X0079800Y0076800D01*
X0079800Y0076454D01*
X0079908Y0075770D01*
X0080122Y0075111D01*
X0080437Y0074494D01*
X0080844Y0073934D01*
X0081334Y0073444D01*
X0081894Y0073037D01*
X0082511Y0072722D01*
X0083170Y0072508D01*
X0083854Y0072400D01*
X0081044Y0073733D02*
X0070945Y0073733D01*
X0071712Y0075332D02*
X0080051Y0075332D01*
X0079800Y0076930D02*
X0071900Y0076930D01*
X0071604Y0078529D02*
X0080143Y0078529D01*
X0081305Y0080127D02*
X0070685Y0080127D01*
X0068236Y0081726D02*
X0103763Y0081726D01*
X0102165Y0083324D02*
X0091461Y0083324D01*
X0092952Y0084923D02*
X0100566Y0084923D01*
X0099600Y0086521D02*
X0093400Y0086521D01*
X0093183Y0088120D02*
X0099600Y0088120D01*
X0099600Y0089718D02*
X0092139Y0089718D01*
X0092295Y0080127D02*
X0105362Y0080127D01*
X0106960Y0078529D02*
X0093457Y0078529D01*
X0093800Y0076930D02*
X0108559Y0076930D01*
X0110157Y0075332D02*
X0093549Y0075332D01*
X0092556Y0073733D02*
X0111610Y0073733D01*
X0111800Y0076800D02*
X0101800Y0086800D01*
X0101800Y0151800D01*
X0096800Y0156800D01*
X0096830Y0153659D02*
X0028053Y0153659D01*
X0029997Y0152060D02*
X0048258Y0152060D01*
X0046997Y0150462D02*
X0031995Y0150462D01*
X0033993Y0148863D02*
X0046483Y0148863D01*
X0046483Y0147265D02*
X0035991Y0147265D01*
X0037989Y0145666D02*
X0047140Y0145666D01*
X0048605Y0144068D02*
X0039987Y0144068D01*
X0041985Y0142469D02*
X0056549Y0142469D01*
X0059125Y0140870D02*
X0043984Y0140870D01*
X0045982Y0139272D02*
X0059600Y0139272D01*
X0059600Y0137673D02*
X0047980Y0137673D01*
X0049978Y0136075D02*
X0059600Y0136075D01*
X0059600Y0134476D02*
X0051976Y0134476D01*
X0053894Y0132878D02*
X0059600Y0132878D01*
X0059600Y0131279D02*
X0054071Y0131279D01*
X0054000Y0129681D02*
X0059139Y0129681D01*
X0058619Y0128082D02*
X0054000Y0128082D01*
X0054000Y0126484D02*
X0058619Y0126484D01*
X0058619Y0124885D02*
X0054000Y0124885D01*
X0054000Y0123287D02*
X0082229Y0123287D01*
X0080663Y0124885D02*
X0064981Y0124885D01*
X0064981Y0126484D02*
X0080200Y0126484D01*
X0080402Y0128082D02*
X0064981Y0128082D01*
X0061800Y0126800D02*
X0061800Y0141800D01*
X0051426Y0148237D01*
X0040436Y0160053D02*
X0031710Y0160053D01*
X0032074Y0161651D02*
X0038838Y0161651D01*
X0037239Y0163250D02*
X0031768Y0163250D01*
X0027373Y0169644D02*
X0104102Y0169644D01*
X0103619Y0168045D02*
X0038666Y0168045D01*
X0040265Y0166447D02*
X0103619Y0166447D01*
X0103619Y0164848D02*
X0041863Y0164848D01*
X0037564Y0174790D02*
X0034776Y0174790D01*
X0032199Y0175857D01*
X0030227Y0177829D01*
X0029160Y0180406D01*
X0029160Y0183194D01*
X0030227Y0185771D01*
X0032199Y0187743D01*
X0034776Y0188810D01*
X0037564Y0188810D01*
X0040141Y0187743D01*
X0042113Y0185771D01*
X0043180Y0183194D01*
X0043180Y0180406D01*
X0042113Y0177829D01*
X0040141Y0175857D01*
X0037564Y0174790D01*
X0040322Y0176038D02*
X0104600Y0176038D01*
X0104600Y0177636D02*
X0041920Y0177636D01*
X0042695Y0179235D02*
X0104600Y0179235D01*
X0104600Y0180833D02*
X0043180Y0180833D01*
X0043180Y0182432D02*
X0104600Y0182432D01*
X0104600Y0184030D02*
X0042834Y0184030D01*
X0042172Y0185629D02*
X0104600Y0185629D01*
X0104600Y0187227D02*
X0089426Y0187227D01*
X0088531Y0186857D02*
X0090348Y0187609D01*
X0091739Y0189000D01*
X0092491Y0190817D01*
X0092491Y0192783D01*
X0091739Y0194600D01*
X0090348Y0195991D01*
X0088531Y0196743D01*
X0086565Y0196743D01*
X0084748Y0195991D01*
X0083611Y0194854D01*
X0082474Y0195991D01*
X0080657Y0196743D01*
X0078691Y0196743D01*
X0076874Y0195991D01*
X0075737Y0194854D01*
X0074600Y0195991D01*
X0072783Y0196743D01*
X0070817Y0196743D01*
X0069000Y0195991D01*
X0067863Y0194854D01*
X0066726Y0195991D01*
X0064909Y0196743D01*
X0062943Y0196743D01*
X0061126Y0195991D01*
X0059989Y0194854D01*
X0058852Y0195991D01*
X0057035Y0196743D01*
X0055069Y0196743D01*
X0053252Y0195991D01*
X0051861Y0194600D01*
X0051109Y0192783D01*
X0051109Y0190817D01*
X0051861Y0189000D01*
X0053252Y0187609D01*
X0055069Y0186857D01*
X0057035Y0186857D01*
X0058852Y0187609D01*
X0059989Y0188746D01*
X0061126Y0187609D01*
X0062943Y0186857D01*
X0064909Y0186857D01*
X0066726Y0187609D01*
X0067863Y0188746D01*
X0069000Y0187609D01*
X0070817Y0186857D01*
X0072783Y0186857D01*
X0074600Y0187609D01*
X0075737Y0188746D01*
X0076874Y0187609D01*
X0078691Y0186857D01*
X0080657Y0186857D01*
X0082474Y0187609D01*
X0083611Y0188746D01*
X0084748Y0187609D01*
X0086565Y0186857D01*
X0088531Y0186857D01*
X0085670Y0187227D02*
X0081552Y0187227D01*
X0077796Y0187227D02*
X0073678Y0187227D01*
X0069922Y0187227D02*
X0065804Y0187227D01*
X0062048Y0187227D02*
X0057930Y0187227D01*
X0054174Y0187227D02*
X0040657Y0187227D01*
X0031683Y0187227D02*
X0011917Y0187227D01*
X0013432Y0185629D02*
X0030168Y0185629D01*
X0029506Y0184030D02*
X0014094Y0184030D01*
X0014440Y0182432D02*
X0029160Y0182432D01*
X0029160Y0180833D02*
X0014440Y0180833D01*
X0013955Y0179235D02*
X0029645Y0179235D01*
X0030420Y0177636D02*
X0013180Y0177636D01*
X0011582Y0176038D02*
X0032018Y0176038D01*
X0016227Y0169644D02*
X0003600Y0169644D01*
X0003600Y0171242D02*
X0104600Y0171242D01*
X0104600Y0172841D02*
X0003600Y0172841D01*
X0003600Y0174439D02*
X0104600Y0174439D01*
X0109000Y0174439D02*
X0140521Y0174439D01*
X0141320Y0172841D02*
X0109000Y0172841D01*
X0109000Y0171242D02*
X0142119Y0171242D01*
X0142918Y0169644D02*
X0109498Y0169644D01*
X0109981Y0168045D02*
X0143718Y0168045D01*
X0144517Y0166447D02*
X0109981Y0166447D01*
X0109981Y0164848D02*
X0145641Y0164848D01*
X0146800Y0166800D02*
X0161800Y0166800D01*
X0181800Y0111800D01*
X0185766Y0079386D01*
X0156800Y0091800D01*
X0151800Y0101800D01*
X0153554Y0105703D02*
X0160046Y0105703D01*
X0160143Y0105800D02*
X0157800Y0103457D01*
X0157800Y0100143D01*
X0160143Y0097800D01*
X0163457Y0097800D01*
X0165800Y0100143D01*
X0165800Y0103457D01*
X0163457Y0105800D01*
X0160143Y0105800D01*
X0158448Y0104105D02*
X0155152Y0104105D01*
X0155800Y0102506D02*
X0157800Y0102506D01*
X0157800Y0100908D02*
X0155800Y0100908D01*
X0155505Y0099309D02*
X0158634Y0099309D01*
X0156304Y0097711D02*
X0181307Y0097711D01*
X0181112Y0099309D02*
X0164966Y0099309D01*
X0165800Y0100908D02*
X0180916Y0100908D01*
X0180721Y0102506D02*
X0165800Y0102506D01*
X0165152Y0104105D02*
X0180525Y0104105D01*
X0180329Y0105703D02*
X0163554Y0105703D01*
X0159353Y0113696D02*
X0178770Y0113696D01*
X0178188Y0115294D02*
X0160800Y0115294D01*
X0160800Y0116893D02*
X0177607Y0116893D01*
X0177026Y0118491D02*
X0160766Y0118491D01*
X0159167Y0120090D02*
X0176445Y0120090D01*
X0175863Y0121688D02*
X0159000Y0121688D01*
X0159000Y0123287D02*
X0175282Y0123287D01*
X0174701Y0124885D02*
X0159000Y0124885D01*
X0159000Y0126484D02*
X0174119Y0126484D01*
X0173538Y0128082D02*
X0159000Y0128082D01*
X0159000Y0129681D02*
X0172957Y0129681D01*
X0172376Y0131279D02*
X0159000Y0131279D01*
X0159000Y0132878D02*
X0171794Y0132878D01*
X0171213Y0134476D02*
X0159000Y0134476D01*
X0159000Y0136075D02*
X0170632Y0136075D01*
X0170051Y0137673D02*
X0159000Y0137673D01*
X0159000Y0139272D02*
X0169469Y0139272D01*
X0168888Y0140870D02*
X0159000Y0140870D01*
X0160580Y0142469D02*
X0168307Y0142469D01*
X0167725Y0144068D02*
X0164610Y0144068D01*
X0164981Y0145666D02*
X0167144Y0145666D01*
X0166563Y0147265D02*
X0164981Y0147265D01*
X0164981Y0148863D02*
X0165982Y0148863D01*
X0165400Y0150462D02*
X0121013Y0150462D01*
X0122875Y0148863D02*
X0158619Y0148863D01*
X0158619Y0147265D02*
X0123400Y0147265D01*
X0123987Y0145666D02*
X0157555Y0145666D01*
X0155956Y0144068D02*
X0127184Y0144068D01*
X0126800Y0141800D02*
X0136800Y0111800D01*
X0126800Y0091800D01*
X0126800Y0061800D01*
X0151800Y0041800D01*
X0154297Y0044960D02*
X0158737Y0044960D01*
X0159977Y0046200D02*
X0157400Y0043623D01*
X0157400Y0041800D01*
X0161800Y0041800D01*
X0166200Y0041800D01*
X0166200Y0043623D01*
X0163623Y0046200D01*
X0161800Y0046200D01*
X0161800Y0041800D01*
X0161800Y0041800D01*
X0161800Y0041800D01*
X0166200Y0041800D01*
X0166200Y0039977D01*
X0163623Y0037400D01*
X0161800Y0037400D01*
X0161800Y0041800D01*
X0161800Y0041800D01*
X0161800Y0041800D01*
X0161800Y0046200D01*
X0159977Y0046200D01*
X0161800Y0044960D02*
X0161800Y0044960D01*
X0161800Y0043361D02*
X0161800Y0043361D01*
X0161800Y0041800D02*
X0157400Y0041800D01*
X0157400Y0039977D01*
X0159977Y0037400D01*
X0161800Y0037400D01*
X0161800Y0041800D01*
X0161800Y0041763D02*
X0161800Y0041763D01*
X0161800Y0040164D02*
X0161800Y0040164D01*
X0161800Y0038566D02*
X0161800Y0038566D01*
X0164788Y0038566D02*
X0196800Y0038566D01*
X0196800Y0040164D02*
X0166200Y0040164D01*
X0166200Y0041763D02*
X0196800Y0041763D01*
X0196800Y0043361D02*
X0166200Y0043361D01*
X0164863Y0044960D02*
X0196800Y0044960D01*
X0196800Y0046558D02*
X0149374Y0046558D01*
X0147376Y0048157D02*
X0196800Y0048157D01*
X0196800Y0049755D02*
X0145378Y0049755D01*
X0143379Y0051354D02*
X0196800Y0051354D01*
X0196800Y0052952D02*
X0141381Y0052952D01*
X0139383Y0054551D02*
X0196800Y0054551D01*
X0196800Y0056149D02*
X0137385Y0056149D01*
X0135387Y0057748D02*
X0196800Y0057748D01*
X0196800Y0059346D02*
X0133389Y0059346D01*
X0131391Y0060945D02*
X0196800Y0060945D01*
X0196800Y0062543D02*
X0195298Y0062543D01*
X0196618Y0064142D02*
X0196800Y0064142D01*
X0192000Y0064142D02*
X0191600Y0064142D01*
X0191600Y0065740D02*
X0192000Y0065740D01*
X0191600Y0066600D02*
X0191600Y0061300D01*
X0191367Y0061300D01*
X0190512Y0061435D01*
X0189689Y0061703D01*
X0188917Y0062096D01*
X0188217Y0062605D01*
X0187605Y0063217D01*
X0187096Y0063917D01*
X0186703Y0064689D01*
X0186435Y0065512D01*
X0186300Y0066367D01*
X0186300Y0066600D01*
X0191600Y0066600D01*
X0191600Y0062543D02*
X0192000Y0062543D01*
X0188302Y0062543D02*
X0129392Y0062543D01*
X0129000Y0064142D02*
X0186982Y0064142D01*
X0186399Y0065740D02*
X0129000Y0065740D01*
X0129000Y0067339D02*
X0186317Y0067339D01*
X0186716Y0068937D02*
X0129000Y0068937D01*
X0129000Y0070536D02*
X0187758Y0070536D01*
X0189737Y0072134D02*
X0129000Y0072134D01*
X0129000Y0073733D02*
X0133432Y0073733D01*
X0132943Y0074223D02*
X0134223Y0072943D01*
X0135895Y0072250D01*
X0137705Y0072250D01*
X0139377Y0072943D01*
X0140657Y0074223D01*
X0141350Y0075895D01*
X0141350Y0077705D01*
X0140657Y0079377D01*
X0139377Y0080657D01*
X0137705Y0081350D01*
X0135895Y0081350D01*
X0134223Y0080657D01*
X0132943Y0079377D01*
X0132250Y0077705D01*
X0132250Y0075895D01*
X0132943Y0074223D01*
X0132483Y0075332D02*
X0129000Y0075332D01*
X0129000Y0076930D02*
X0132250Y0076930D01*
X0132591Y0078529D02*
X0129000Y0078529D01*
X0129000Y0080127D02*
X0133692Y0080127D01*
X0134750Y0081850D02*
X0131850Y0084750D01*
X0131850Y0086800D01*
X0136800Y0086800D01*
X0136800Y0086800D01*
X0136800Y0091750D01*
X0138850Y0091750D01*
X0141750Y0088850D01*
X0141750Y0086800D01*
X0136800Y0086800D01*
X0136800Y0086800D01*
X0136800Y0086800D01*
X0136800Y0091750D01*
X0134750Y0091750D01*
X0131850Y0088850D01*
X0131850Y0086800D01*
X0136800Y0086800D01*
X0141750Y0086800D01*
X0141750Y0084750D01*
X0138850Y0081850D01*
X0136800Y0081850D01*
X0136800Y0086800D01*
X0136800Y0086800D01*
X0136800Y0081850D01*
X0134750Y0081850D01*
X0133276Y0083324D02*
X0129000Y0083324D01*
X0129000Y0081726D02*
X0174722Y0081726D01*
X0170992Y0083324D02*
X0140324Y0083324D01*
X0141750Y0084923D02*
X0167262Y0084923D01*
X0163533Y0086521D02*
X0141750Y0086521D01*
X0141750Y0088120D02*
X0159803Y0088120D01*
X0156073Y0089718D02*
X0140882Y0089718D01*
X0139284Y0091317D02*
X0154582Y0091317D01*
X0153783Y0092915D02*
X0129817Y0092915D01*
X0129018Y0091317D02*
X0134316Y0091317D01*
X0132718Y0089718D02*
X0129000Y0089718D01*
X0129000Y0088120D02*
X0131850Y0088120D01*
X0131850Y0086521D02*
X0129000Y0086521D01*
X0129000Y0084923D02*
X0131850Y0084923D01*
X0136800Y0084923D02*
X0136800Y0084923D01*
X0136800Y0086521D02*
X0136800Y0086521D01*
X0136800Y0088120D02*
X0136800Y0088120D01*
X0136800Y0089718D02*
X0136800Y0089718D01*
X0136800Y0091317D02*
X0136800Y0091317D01*
X0130616Y0094514D02*
X0152983Y0094514D01*
X0152184Y0096112D02*
X0131416Y0096112D01*
X0132215Y0097711D02*
X0151385Y0097711D01*
X0148634Y0099309D02*
X0133014Y0099309D01*
X0133814Y0100908D02*
X0147800Y0100908D01*
X0147800Y0102506D02*
X0134613Y0102506D01*
X0135412Y0104105D02*
X0148448Y0104105D01*
X0150046Y0105703D02*
X0136211Y0105703D01*
X0137011Y0107302D02*
X0180134Y0107302D01*
X0179938Y0108900D02*
X0137810Y0108900D01*
X0136800Y0111800D02*
X0151800Y0111800D01*
X0156800Y0116800D01*
X0156800Y0141800D01*
X0161800Y0146800D01*
X0164819Y0152060D02*
X0109000Y0152060D01*
X0109000Y0150462D02*
X0112587Y0150462D01*
X0110725Y0148863D02*
X0109000Y0148863D01*
X0109000Y0147265D02*
X0110200Y0147265D01*
X0110340Y0145666D02*
X0109000Y0145666D01*
X0109000Y0144068D02*
X0111276Y0144068D01*
X0109000Y0142469D02*
X0120543Y0142469D01*
X0120430Y0141092D02*
X0119746Y0141200D01*
X0116800Y0141200D01*
X0116800Y0136800D01*
X0116800Y0136800D01*
X0123800Y0136800D01*
X0123800Y0137146D01*
X0123692Y0137830D01*
X0123478Y0138489D01*
X0123163Y0139106D01*
X0122756Y0139666D01*
X0122266Y0140156D01*
X0121706Y0140563D01*
X0121089Y0140878D01*
X0120430Y0141092D01*
X0121103Y0140870D02*
X0123740Y0140870D01*
X0123043Y0139272D02*
X0125324Y0139272D01*
X0125856Y0137673D02*
X0123716Y0137673D01*
X0123800Y0136800D02*
X0116800Y0136800D01*
X0116800Y0136800D01*
X0116800Y0132400D01*
X0119746Y0132400D01*
X0120430Y0132508D01*
X0121089Y0132722D01*
X0121706Y0133037D01*
X0122266Y0133444D01*
X0122756Y0133934D01*
X0123163Y0134494D01*
X0123478Y0135111D01*
X0123692Y0135770D01*
X0123800Y0136454D01*
X0123800Y0136800D01*
X0123740Y0136075D02*
X0126389Y0136075D01*
X0126922Y0134476D02*
X0123151Y0134476D01*
X0121394Y0132878D02*
X0127455Y0132878D01*
X0127988Y0131279D02*
X0109000Y0131279D01*
X0109000Y0129681D02*
X0111424Y0129681D01*
X0111934Y0130191D02*
X0110809Y0129066D01*
X0110200Y0127596D01*
X0110200Y0126004D01*
X0110809Y0124534D01*
X0111934Y0123409D01*
X0113404Y0122800D01*
X0120196Y0122800D01*
X0121666Y0123409D01*
X0122791Y0124534D01*
X0123400Y0126004D01*
X0123400Y0127596D01*
X0122791Y0129066D01*
X0121666Y0130191D01*
X0120196Y0130800D01*
X0113404Y0130800D01*
X0111934Y0130191D01*
X0112511Y0132722D02*
X0113170Y0132508D01*
X0113854Y0132400D01*
X0116800Y0132400D01*
X0116800Y0136800D01*
X0116800Y0136800D01*
X0116800Y0136800D01*
X0109800Y0136800D01*
X0109800Y0137146D01*
X0109908Y0137830D01*
X0110122Y0138489D01*
X0110437Y0139106D01*
X0110844Y0139666D01*
X0111334Y0140156D01*
X0111894Y0140563D01*
X0112511Y0140878D01*
X0113170Y0141092D01*
X0113854Y0141200D01*
X0116800Y0141200D01*
X0116800Y0136800D01*
X0109800Y0136800D01*
X0109800Y0136454D01*
X0109908Y0135770D01*
X0110122Y0135111D01*
X0110437Y0134494D01*
X0110844Y0133934D01*
X0111334Y0133444D01*
X0111894Y0133037D01*
X0112511Y0132722D01*
X0112206Y0132878D02*
X0109000Y0132878D01*
X0109000Y0134476D02*
X0110449Y0134476D01*
X0109860Y0136075D02*
X0109000Y0136075D01*
X0109000Y0137673D02*
X0109884Y0137673D01*
X0110557Y0139272D02*
X0109000Y0139272D01*
X0109000Y0140870D02*
X0112497Y0140870D01*
X0116800Y0140870D02*
X0116800Y0140870D01*
X0116800Y0139272D02*
X0116800Y0139272D01*
X0116800Y0137673D02*
X0116800Y0137673D01*
X0116800Y0136075D02*
X0116800Y0136075D01*
X0116800Y0134476D02*
X0116800Y0134476D01*
X0116800Y0132878D02*
X0116800Y0132878D01*
X0122176Y0129681D02*
X0128521Y0129681D01*
X0129054Y0128082D02*
X0123198Y0128082D01*
X0123400Y0126484D02*
X0129586Y0126484D01*
X0130119Y0124885D02*
X0122936Y0124885D01*
X0121371Y0123287D02*
X0130652Y0123287D01*
X0131185Y0121688D02*
X0109000Y0121688D01*
X0109000Y0120090D02*
X0111833Y0120090D01*
X0111934Y0120191D02*
X0110809Y0119066D01*
X0110200Y0117596D01*
X0110200Y0116004D01*
X0110809Y0114534D01*
X0111934Y0113409D01*
X0113404Y0112800D01*
X0120196Y0112800D01*
X0121666Y0113409D01*
X0122791Y0114534D01*
X0123400Y0116004D01*
X0123400Y0117596D01*
X0122791Y0119066D01*
X0121666Y0120191D01*
X0120196Y0120800D01*
X0113404Y0120800D01*
X0111934Y0120191D01*
X0110571Y0118491D02*
X0109000Y0118491D01*
X0109000Y0116893D02*
X0110200Y0116893D01*
X0110494Y0115294D02*
X0109000Y0115294D01*
X0109000Y0113696D02*
X0111647Y0113696D01*
X0112677Y0110499D02*
X0109000Y0110499D01*
X0109000Y0112097D02*
X0134382Y0112097D01*
X0133849Y0113696D02*
X0121953Y0113696D01*
X0123106Y0115294D02*
X0133316Y0115294D01*
X0132783Y0116893D02*
X0123400Y0116893D01*
X0123029Y0118491D02*
X0132251Y0118491D01*
X0131718Y0120090D02*
X0121767Y0120090D01*
X0120196Y0110800D02*
X0113404Y0110800D01*
X0111934Y0110191D01*
X0110809Y0109066D01*
X0110200Y0107596D01*
X0110200Y0106004D01*
X0110809Y0104534D01*
X0111934Y0103409D01*
X0113404Y0102800D01*
X0120196Y0102800D01*
X0121666Y0103409D01*
X0122791Y0104534D01*
X0123400Y0106004D01*
X0123400Y0107596D01*
X0122791Y0109066D01*
X0121666Y0110191D01*
X0120196Y0110800D01*
X0120923Y0110499D02*
X0133690Y0110499D01*
X0132890Y0108900D02*
X0122860Y0108900D01*
X0123400Y0107302D02*
X0132091Y0107302D01*
X0131292Y0105703D02*
X0123275Y0105703D01*
X0122362Y0104105D02*
X0130493Y0104105D01*
X0129693Y0102506D02*
X0109000Y0102506D01*
X0109000Y0100908D02*
X0128894Y0100908D01*
X0128095Y0099309D02*
X0122548Y0099309D01*
X0123352Y0097711D02*
X0127296Y0097711D01*
X0126496Y0096112D02*
X0123400Y0096112D01*
X0122847Y0091317D02*
X0110395Y0091317D01*
X0109000Y0092915D02*
X0113126Y0092915D01*
X0110829Y0094514D02*
X0109000Y0094514D01*
X0109000Y0096112D02*
X0110200Y0096112D01*
X0110248Y0097711D02*
X0109000Y0097711D01*
X0109000Y0099309D02*
X0111052Y0099309D01*
X0111238Y0104105D02*
X0109000Y0104105D01*
X0109000Y0105703D02*
X0110325Y0105703D01*
X0110200Y0107302D02*
X0109000Y0107302D01*
X0109000Y0108900D02*
X0110740Y0108900D01*
X0099600Y0113696D02*
X0091953Y0113696D01*
X0093106Y0115294D02*
X0099600Y0115294D01*
X0099600Y0116893D02*
X0093400Y0116893D01*
X0093029Y0118491D02*
X0099600Y0118491D01*
X0109000Y0123287D02*
X0112229Y0123287D01*
X0110663Y0124885D02*
X0109000Y0124885D01*
X0109000Y0126484D02*
X0110200Y0126484D01*
X0110402Y0128082D02*
X0109000Y0128082D01*
X0099600Y0132878D02*
X0090384Y0132878D01*
X0092733Y0134476D02*
X0099600Y0134476D01*
X0099600Y0136075D02*
X0093400Y0136075D01*
X0093368Y0137673D02*
X0099600Y0137673D01*
X0099600Y0142469D02*
X0064000Y0142469D01*
X0069977Y0121200D02*
X0067400Y0118623D01*
X0067400Y0116800D01*
X0071800Y0116800D01*
X0076200Y0116800D01*
X0076200Y0118623D01*
X0073623Y0121200D01*
X0071800Y0121200D01*
X0071800Y0116800D01*
X0071800Y0116800D01*
X0071800Y0116800D01*
X0076200Y0116800D01*
X0076200Y0114977D01*
X0073623Y0112400D01*
X0071800Y0112400D01*
X0071800Y0116800D01*
X0071800Y0116800D01*
X0071800Y0116800D01*
X0071800Y0121200D01*
X0069977Y0121200D01*
X0068867Y0120090D02*
X0064167Y0120090D01*
X0065766Y0118491D02*
X0067400Y0118491D01*
X0067400Y0116893D02*
X0065800Y0116893D01*
X0065800Y0115294D02*
X0067400Y0115294D01*
X0067400Y0114977D02*
X0067400Y0116800D01*
X0071800Y0116800D01*
X0071800Y0112400D01*
X0069977Y0112400D01*
X0067400Y0114977D01*
X0068682Y0113696D02*
X0064353Y0113696D01*
X0071800Y0113696D02*
X0071800Y0113696D01*
X0071800Y0115294D02*
X0071800Y0115294D01*
X0071800Y0116893D02*
X0071800Y0116893D01*
X0071800Y0118491D02*
X0071800Y0118491D01*
X0071800Y0120090D02*
X0071800Y0120090D01*
X0074733Y0120090D02*
X0081833Y0120090D01*
X0080571Y0118491D02*
X0076200Y0118491D01*
X0076200Y0116893D02*
X0080200Y0116893D01*
X0080494Y0115294D02*
X0076200Y0115294D01*
X0074918Y0113696D02*
X0081647Y0113696D01*
X0082677Y0110499D02*
X0054000Y0110499D01*
X0054000Y0108900D02*
X0080740Y0108900D01*
X0080200Y0107302D02*
X0054000Y0107302D01*
X0054000Y0105703D02*
X0080325Y0105703D01*
X0081238Y0104105D02*
X0054000Y0104105D01*
X0054000Y0102506D02*
X0099600Y0102506D01*
X0099600Y0100908D02*
X0054000Y0100908D01*
X0054000Y0099309D02*
X0081052Y0099309D01*
X0080248Y0097711D02*
X0054000Y0097711D01*
X0054000Y0096112D02*
X0060321Y0096112D01*
X0060895Y0096350D02*
X0059223Y0095657D01*
X0057943Y0094377D01*
X0057250Y0092705D01*
X0057250Y0090895D01*
X0057943Y0089223D01*
X0059223Y0087943D01*
X0060895Y0087250D01*
X0062705Y0087250D01*
X0064377Y0087943D01*
X0065657Y0089223D01*
X0066350Y0090895D01*
X0066350Y0092705D01*
X0065657Y0094377D01*
X0064377Y0095657D01*
X0062705Y0096350D01*
X0060895Y0096350D01*
X0063279Y0096112D02*
X0069112Y0096112D01*
X0069750Y0096750D02*
X0066850Y0093850D01*
X0066850Y0091800D01*
X0071800Y0091800D01*
X0071800Y0091800D01*
X0071800Y0091800D01*
X0071800Y0096750D01*
X0069750Y0096750D01*
X0071800Y0096112D02*
X0071800Y0096112D01*
X0071800Y0094514D02*
X0071800Y0094514D01*
X0071800Y0092915D02*
X0071800Y0092915D01*
X0071800Y0091800D02*
X0066850Y0091800D01*
X0066850Y0089750D01*
X0069750Y0086850D01*
X0071800Y0086850D01*
X0071800Y0091800D01*
X0071800Y0091317D02*
X0071800Y0091317D01*
X0071800Y0089718D02*
X0071800Y0089718D01*
X0071800Y0088120D02*
X0071800Y0088120D01*
X0068480Y0088120D02*
X0064554Y0088120D01*
X0065863Y0089718D02*
X0066882Y0089718D01*
X0066850Y0091317D02*
X0066350Y0091317D01*
X0066263Y0092915D02*
X0066850Y0092915D01*
X0067513Y0094514D02*
X0065521Y0094514D01*
X0058079Y0094514D02*
X0054000Y0094514D01*
X0054000Y0092915D02*
X0057337Y0092915D01*
X0057250Y0091317D02*
X0054000Y0091317D01*
X0054000Y0089718D02*
X0057737Y0089718D01*
X0059046Y0088120D02*
X0054000Y0088120D01*
X0049600Y0088120D02*
X0043776Y0088120D01*
X0045375Y0089718D02*
X0049600Y0089718D01*
X0049600Y0091317D02*
X0045800Y0091317D01*
X0045800Y0092915D02*
X0049600Y0092915D01*
X0049600Y0094514D02*
X0044743Y0094514D01*
X0037800Y0083324D02*
X0026435Y0083324D01*
X0024837Y0081726D02*
X0037400Y0081726D01*
X0034736Y0080127D02*
X0023238Y0080127D01*
X0021800Y0081800D02*
X0026800Y0086800D01*
X0026800Y0096800D01*
X0023652Y0099309D02*
X0011288Y0099309D01*
X0009923Y0097711D02*
X0022800Y0097711D01*
X0022800Y0096112D02*
X0009700Y0096112D01*
X0011196Y0094514D02*
X0023429Y0094514D01*
X0024600Y0092915D02*
X0011858Y0092915D01*
X0011900Y0091317D02*
X0024600Y0091317D01*
X0024600Y0089718D02*
X0011458Y0089718D01*
X0010332Y0088120D02*
X0024600Y0088120D01*
X0023410Y0086521D02*
X0008729Y0086521D01*
X0010890Y0084923D02*
X0021811Y0084923D01*
X0021800Y0081800D02*
X0006800Y0081800D01*
X0010741Y0078529D02*
X0032072Y0078529D01*
X0029407Y0076930D02*
X0008810Y0076930D01*
X0011033Y0075332D02*
X0026743Y0075332D01*
X0024079Y0073733D02*
X0011955Y0073733D01*
X0021974Y0067339D02*
X0049600Y0067339D01*
X0049600Y0068937D02*
X0024638Y0068937D01*
X0020800Y0065740D02*
X0049600Y0065740D01*
X0049600Y0064142D02*
X0019799Y0064142D01*
X0027303Y0070536D02*
X0049600Y0070536D01*
X0049600Y0072134D02*
X0029967Y0072134D01*
X0032631Y0073733D02*
X0049600Y0073733D01*
X0049600Y0075332D02*
X0035295Y0075332D01*
X0037959Y0076930D02*
X0049600Y0076930D01*
X0056742Y0056149D02*
X0061700Y0056149D01*
X0062211Y0054551D02*
X0059140Y0054551D01*
X0061538Y0052952D02*
X0063435Y0052952D01*
X0063935Y0051354D02*
X0136336Y0051354D01*
X0134338Y0052952D02*
X0121540Y0052952D01*
X0123192Y0054551D02*
X0132340Y0054551D01*
X0130342Y0056149D02*
X0123752Y0056149D01*
X0123705Y0057748D02*
X0128343Y0057748D01*
X0126345Y0059346D02*
X0122989Y0059346D01*
X0124600Y0060945D02*
X0120882Y0060945D01*
X0116800Y0060945D02*
X0116800Y0060945D01*
X0116800Y0059346D02*
X0116800Y0059346D01*
X0116800Y0057748D02*
X0116800Y0057748D01*
X0116800Y0056149D02*
X0116800Y0056149D01*
X0116800Y0054551D02*
X0116800Y0054551D01*
X0116800Y0052952D02*
X0116800Y0052952D01*
X0122102Y0049755D02*
X0138334Y0049755D01*
X0140332Y0048157D02*
X0123168Y0048157D01*
X0123400Y0046558D02*
X0142330Y0046558D01*
X0144329Y0044960D02*
X0122967Y0044960D01*
X0121551Y0043361D02*
X0146327Y0043361D01*
X0147800Y0041763D02*
X0069000Y0041763D01*
X0069000Y0043361D02*
X0082049Y0043361D01*
X0080633Y0044960D02*
X0069000Y0044960D01*
X0069092Y0046558D02*
X0080200Y0046558D01*
X0080432Y0048157D02*
X0068731Y0048157D01*
X0066333Y0049755D02*
X0081498Y0049755D01*
X0083037Y0052952D02*
X0070165Y0052952D01*
X0071389Y0054551D02*
X0080802Y0054551D01*
X0080200Y0056149D02*
X0071900Y0056149D01*
X0071900Y0057748D02*
X0080263Y0057748D01*
X0081090Y0059346D02*
X0071265Y0059346D01*
X0071618Y0064142D02*
X0081201Y0064142D01*
X0080309Y0065740D02*
X0072201Y0065740D01*
X0072283Y0067339D02*
X0080200Y0067339D01*
X0080756Y0068937D02*
X0071884Y0068937D01*
X0056003Y0051354D02*
X0003600Y0051354D01*
X0003600Y0049755D02*
X0058401Y0049755D01*
X0060799Y0048157D02*
X0003600Y0048157D01*
X0003600Y0046558D02*
X0063196Y0046558D01*
X0064600Y0044960D02*
X0003600Y0044960D01*
X0003600Y0043361D02*
X0064600Y0043361D01*
X0064600Y0041763D02*
X0003600Y0041763D01*
X0003600Y0040164D02*
X0064600Y0040164D01*
X0064600Y0038566D02*
X0003600Y0038566D01*
X0003600Y0036967D02*
X0064600Y0036967D01*
X0064600Y0035369D02*
X0058888Y0035369D01*
X0058457Y0035800D02*
X0055143Y0035800D01*
X0052800Y0033457D01*
X0052800Y0030143D01*
X0055143Y0027800D01*
X0058457Y0027800D01*
X0060800Y0030143D01*
X0060800Y0033457D01*
X0058457Y0035800D01*
X0060487Y0033770D02*
X0064600Y0033770D01*
X0064600Y0032172D02*
X0060800Y0032172D01*
X0060800Y0030573D02*
X0064916Y0030573D01*
X0066514Y0028975D02*
X0059632Y0028975D01*
X0053968Y0028975D02*
X0049632Y0028975D01*
X0050800Y0030143D02*
X0048457Y0027800D01*
X0045143Y0027800D01*
X0042800Y0030143D01*
X0042800Y0033457D01*
X0045143Y0035800D01*
X0048457Y0035800D01*
X0050800Y0033457D01*
X0050800Y0030143D01*
X0050800Y0030573D02*
X0052800Y0030573D01*
X0052800Y0032172D02*
X0050800Y0032172D01*
X0050487Y0033770D02*
X0053113Y0033770D01*
X0054712Y0035369D02*
X0048888Y0035369D01*
X0044712Y0035369D02*
X0003600Y0035369D01*
X0003600Y0033770D02*
X0043113Y0033770D01*
X0042800Y0032172D02*
X0003600Y0032172D01*
X0003600Y0030573D02*
X0014351Y0030573D01*
X0014977Y0031200D02*
X0012400Y0028623D01*
X0012400Y0026800D01*
X0016800Y0026800D01*
X0016800Y0026800D01*
X0016800Y0031200D01*
X0018623Y0031200D01*
X0021200Y0028623D01*
X0021200Y0026800D01*
X0016800Y0026800D01*
X0016800Y0026800D01*
X0016800Y0026800D01*
X0016800Y0031200D01*
X0014977Y0031200D01*
X0016800Y0030573D02*
X0016800Y0030573D01*
X0016800Y0028975D02*
X0016800Y0028975D01*
X0016800Y0027376D02*
X0016800Y0027376D01*
X0016800Y0026800D02*
X0012400Y0026800D01*
X0012400Y0024977D01*
X0014977Y0022400D01*
X0016800Y0022400D01*
X0018623Y0022400D01*
X0021200Y0024977D01*
X0021200Y0026800D01*
X0016800Y0026800D01*
X0016800Y0022400D01*
X0016800Y0026800D01*
X0016800Y0026800D01*
X0016800Y0025778D02*
X0016800Y0025778D01*
X0016800Y0024179D02*
X0016800Y0024179D01*
X0016800Y0022581D02*
X0016800Y0022581D01*
X0018803Y0022581D02*
X0072908Y0022581D01*
X0071310Y0024179D02*
X0020402Y0024179D01*
X0021200Y0025778D02*
X0069711Y0025778D01*
X0068113Y0027376D02*
X0021200Y0027376D01*
X0020848Y0028975D02*
X0043968Y0028975D01*
X0042800Y0030573D02*
X0019249Y0030573D01*
X0012752Y0028975D02*
X0003600Y0028975D01*
X0003600Y0027376D02*
X0012400Y0027376D01*
X0012400Y0025778D02*
X0003600Y0025778D01*
X0003600Y0024179D02*
X0013198Y0024179D01*
X0014797Y0022581D02*
X0003600Y0022581D01*
X0003600Y0020982D02*
X0074507Y0020982D01*
X0076105Y0019384D02*
X0003600Y0019384D01*
X0003600Y0017785D02*
X0077704Y0017785D01*
X0078457Y0015800D02*
X0075143Y0015800D01*
X0072800Y0013457D01*
X0072800Y0010143D01*
X0075143Y0007800D01*
X0078457Y0007800D01*
X0080800Y0010143D01*
X0080800Y0013457D01*
X0078457Y0015800D01*
X0079302Y0016187D02*
X0038636Y0016187D01*
X0038623Y0016200D02*
X0036800Y0016200D01*
X0036800Y0011800D01*
X0041200Y0011800D01*
X0041200Y0013623D01*
X0038623Y0016200D01*
X0036800Y0016187D02*
X0036800Y0016187D01*
X0036800Y0016200D02*
X0034977Y0016200D01*
X0032400Y0013623D01*
X0032400Y0011800D01*
X0036800Y0011800D01*
X0036800Y0011800D01*
X0036800Y0011800D01*
X0041200Y0011800D01*
X0041200Y0009977D01*
X0038623Y0007400D01*
X0036800Y0007400D01*
X0036800Y0011800D01*
X0036800Y0011800D01*
X0036800Y0011800D01*
X0036800Y0016200D01*
X0036800Y0014588D02*
X0036800Y0014588D01*
X0036800Y0012990D02*
X0036800Y0012990D01*
X0036800Y0011800D02*
X0032400Y0011800D01*
X0032400Y0009977D01*
X0034977Y0007400D01*
X0036800Y0007400D01*
X0036800Y0011800D01*
X0036800Y0011391D02*
X0036800Y0011391D01*
X0036800Y0009793D02*
X0036800Y0009793D01*
X0036800Y0008194D02*
X0036800Y0008194D01*
X0034183Y0008194D02*
X0003600Y0008194D01*
X0003600Y0006596D02*
X0196800Y0006596D01*
X0196800Y0008194D02*
X0078851Y0008194D01*
X0080449Y0009793D02*
X0196800Y0009793D01*
X0196800Y0011391D02*
X0080800Y0011391D01*
X0080800Y0012990D02*
X0082947Y0012990D01*
X0080787Y0014588D02*
X0079669Y0014588D01*
X0073931Y0014588D02*
X0040234Y0014588D01*
X0041200Y0012990D02*
X0072800Y0012990D01*
X0072800Y0011391D02*
X0041200Y0011391D01*
X0041015Y0009793D02*
X0073151Y0009793D01*
X0074749Y0008194D02*
X0039417Y0008194D01*
X0033366Y0014588D02*
X0003600Y0014588D01*
X0003600Y0012990D02*
X0032400Y0012990D01*
X0032400Y0011391D02*
X0003600Y0011391D01*
X0003600Y0009793D02*
X0032585Y0009793D01*
X0034964Y0016187D02*
X0003600Y0016187D01*
X0003600Y0004997D02*
X0196800Y0004997D01*
X0196800Y0012990D02*
X0144212Y0012990D01*
X0143623Y0012400D02*
X0146200Y0014977D01*
X0146200Y0016800D01*
X0146200Y0018623D01*
X0143623Y0021200D01*
X0141800Y0021200D01*
X0141800Y0016800D01*
X0146200Y0016800D01*
X0141800Y0016800D01*
X0141800Y0016800D01*
X0141800Y0016800D01*
X0141800Y0012400D01*
X0143623Y0012400D01*
X0141800Y0012400D02*
X0141800Y0016800D01*
X0141800Y0016800D01*
X0141800Y0016800D01*
X0137400Y0016800D01*
X0137400Y0018623D01*
X0139977Y0021200D01*
X0141800Y0021200D01*
X0141800Y0016800D01*
X0137400Y0016800D01*
X0137400Y0014977D01*
X0139977Y0012400D01*
X0141800Y0012400D01*
X0141800Y0012990D02*
X0141800Y0012990D01*
X0141800Y0014588D02*
X0141800Y0014588D01*
X0141800Y0016187D02*
X0141800Y0016187D01*
X0141800Y0017785D02*
X0141800Y0017785D01*
X0141800Y0019384D02*
X0141800Y0019384D01*
X0141800Y0020982D02*
X0141800Y0020982D01*
X0143840Y0020982D02*
X0196800Y0020982D01*
X0196800Y0019384D02*
X0145439Y0019384D01*
X0146200Y0017785D02*
X0196800Y0017785D01*
X0196800Y0016187D02*
X0146200Y0016187D01*
X0145811Y0014588D02*
X0196800Y0014588D01*
X0196800Y0022581D02*
X0079131Y0022581D01*
X0080729Y0020982D02*
X0139760Y0020982D01*
X0138161Y0019384D02*
X0134873Y0019384D01*
X0135800Y0018457D02*
X0133457Y0020800D01*
X0130143Y0020800D01*
X0127800Y0018457D01*
X0127800Y0015143D01*
X0130143Y0012800D01*
X0133457Y0012800D01*
X0135800Y0015143D01*
X0135800Y0018457D01*
X0135800Y0017785D02*
X0137400Y0017785D01*
X0137400Y0016187D02*
X0135800Y0016187D01*
X0135245Y0014588D02*
X0137789Y0014588D01*
X0139388Y0012990D02*
X0133646Y0012990D01*
X0129954Y0012990D02*
X0120653Y0012990D01*
X0122813Y0014588D02*
X0128355Y0014588D01*
X0127800Y0016187D02*
X0123400Y0016187D01*
X0123322Y0017785D02*
X0127800Y0017785D01*
X0128727Y0019384D02*
X0122473Y0019384D01*
X0122436Y0024179D02*
X0196800Y0024179D01*
X0196800Y0025778D02*
X0123306Y0025778D01*
X0123400Y0027376D02*
X0196800Y0027376D01*
X0196800Y0028975D02*
X0122829Y0028975D01*
X0120743Y0030573D02*
X0196800Y0030573D01*
X0196800Y0032172D02*
X0069540Y0032172D01*
X0069000Y0033770D02*
X0081573Y0033770D01*
X0080463Y0035369D02*
X0069000Y0035369D01*
X0069000Y0036967D02*
X0080200Y0036967D01*
X0080602Y0038566D02*
X0069000Y0038566D01*
X0069000Y0040164D02*
X0081907Y0040164D01*
X0082857Y0030573D02*
X0071138Y0030573D01*
X0072737Y0028975D02*
X0080771Y0028975D01*
X0080200Y0027376D02*
X0074335Y0027376D01*
X0075934Y0025778D02*
X0080294Y0025778D01*
X0081164Y0024179D02*
X0077532Y0024179D01*
X0092399Y0064142D02*
X0111201Y0064142D01*
X0110309Y0065740D02*
X0093291Y0065740D01*
X0093400Y0067339D02*
X0110200Y0067339D01*
X0110756Y0068937D02*
X0092844Y0068937D01*
X0090833Y0070536D02*
X0112767Y0070536D01*
X0111800Y0076800D02*
X0116800Y0076800D01*
X0111870Y0080127D02*
X0111584Y0080127D01*
X0121730Y0080127D02*
X0124600Y0080127D01*
X0124600Y0078529D02*
X0123014Y0078529D01*
X0123400Y0076930D02*
X0124600Y0076930D01*
X0124600Y0075332D02*
X0123121Y0075332D01*
X0122952Y0084923D02*
X0124600Y0084923D01*
X0124600Y0086521D02*
X0123400Y0086521D01*
X0123183Y0088120D02*
X0124600Y0088120D01*
X0124600Y0089718D02*
X0122139Y0089718D01*
X0126800Y0091800D02*
X0116800Y0096800D01*
X0136800Y0083324D02*
X0136800Y0083324D01*
X0139908Y0080127D02*
X0178452Y0080127D01*
X0182182Y0078529D02*
X0141009Y0078529D01*
X0141350Y0076930D02*
X0185912Y0076930D01*
X0186888Y0075332D02*
X0141117Y0075332D01*
X0140168Y0073733D02*
X0187654Y0073733D01*
X0191800Y0076800D02*
X0185766Y0079386D01*
X0183067Y0083324D02*
X0182162Y0083324D01*
X0182872Y0084923D02*
X0178432Y0084923D01*
X0174702Y0086521D02*
X0182676Y0086521D01*
X0182481Y0088120D02*
X0170972Y0088120D01*
X0167243Y0089718D02*
X0182285Y0089718D01*
X0182090Y0091317D02*
X0163513Y0091317D01*
X0159783Y0092915D02*
X0181894Y0092915D01*
X0181698Y0094514D02*
X0157903Y0094514D01*
X0157104Y0096112D02*
X0181503Y0096112D01*
X0185936Y0096112D02*
X0186700Y0096112D01*
X0186700Y0095786D02*
X0187476Y0093911D01*
X0188911Y0092476D01*
X0190544Y0091800D01*
X0188911Y0091124D01*
X0187476Y0089689D01*
X0186894Y0088282D01*
X0184060Y0111441D01*
X0184179Y0111695D01*
X0183953Y0112316D01*
X0183873Y0112972D01*
X0183652Y0113145D01*
X0170114Y0150375D01*
X0173619Y0146870D01*
X0173619Y0144439D01*
X0174439Y0143619D01*
X0179161Y0143619D01*
X0179981Y0144439D01*
X0179981Y0149161D01*
X0179161Y0149981D01*
X0176730Y0149981D01*
X0174000Y0152711D01*
X0174000Y0165889D01*
X0182711Y0174600D01*
X0187191Y0174600D01*
X0187476Y0173911D01*
X0188911Y0172476D01*
X0190037Y0172010D01*
X0189689Y0171897D01*
X0188917Y0171504D01*
X0188217Y0170995D01*
X0187605Y0170383D01*
X0187096Y0169683D01*
X0186703Y0168911D01*
X0186435Y0168088D01*
X0186300Y0167233D01*
X0186300Y0167000D01*
X0191600Y0167000D01*
X0191600Y0166600D01*
X0186300Y0166600D01*
X0186300Y0166367D01*
X0186435Y0165512D01*
X0186703Y0164689D01*
X0187096Y0163917D01*
X0187605Y0163217D01*
X0188217Y0162605D01*
X0188917Y0162096D01*
X0189689Y0161703D01*
X0190037Y0161590D01*
X0188911Y0161124D01*
X0187476Y0159689D01*
X0187191Y0159000D01*
X0175889Y0159000D01*
X0174600Y0157711D01*
X0174600Y0155889D01*
X0175889Y0154600D01*
X0187191Y0154600D01*
X0187476Y0153911D01*
X0188911Y0152476D01*
X0190544Y0151800D01*
X0188911Y0151124D01*
X0187476Y0149689D01*
X0186700Y0147814D01*
X0186700Y0145786D01*
X0187476Y0143911D01*
X0188911Y0142476D01*
X0190544Y0141800D01*
X0188911Y0141124D01*
X0187476Y0139689D01*
X0186700Y0137814D01*
X0186700Y0135786D01*
X0187476Y0133911D01*
X0188911Y0132476D01*
X0190544Y0131800D01*
X0188911Y0131124D01*
X0187476Y0129689D01*
X0186700Y0127814D01*
X0186700Y0125786D01*
X0187476Y0123911D01*
X0188911Y0122476D01*
X0190544Y0121800D01*
X0188911Y0121124D01*
X0187476Y0119689D01*
X0186700Y0117814D01*
X0186700Y0115786D01*
X0187476Y0113911D01*
X0188911Y0112476D01*
X0190544Y0111800D01*
X0188911Y0111124D01*
X0187476Y0109689D01*
X0186700Y0107814D01*
X0186700Y0105786D01*
X0187476Y0103911D01*
X0188911Y0102476D01*
X0190544Y0101800D01*
X0188911Y0101124D01*
X0187476Y0099689D01*
X0186700Y0097814D01*
X0186700Y0095786D01*
X0187227Y0094514D02*
X0186131Y0094514D01*
X0186327Y0092915D02*
X0188472Y0092915D01*
X0189377Y0091317D02*
X0186522Y0091317D01*
X0186718Y0089718D02*
X0187506Y0089718D01*
X0186700Y0097711D02*
X0185740Y0097711D01*
X0185545Y0099309D02*
X0187319Y0099309D01*
X0188695Y0100908D02*
X0185349Y0100908D01*
X0185153Y0102506D02*
X0188881Y0102506D01*
X0187396Y0104105D02*
X0184958Y0104105D01*
X0184762Y0105703D02*
X0186734Y0105703D01*
X0186700Y0107302D02*
X0184567Y0107302D01*
X0184371Y0108900D02*
X0187150Y0108900D01*
X0188286Y0110499D02*
X0184176Y0110499D01*
X0184033Y0112097D02*
X0189826Y0112097D01*
X0187692Y0113696D02*
X0183452Y0113696D01*
X0182870Y0115294D02*
X0186903Y0115294D01*
X0186700Y0116893D02*
X0182289Y0116893D01*
X0181708Y0118491D02*
X0186980Y0118491D01*
X0187877Y0120090D02*
X0181126Y0120090D01*
X0180545Y0121688D02*
X0190275Y0121688D01*
X0188101Y0123287D02*
X0179964Y0123287D01*
X0179383Y0124885D02*
X0187073Y0124885D01*
X0186700Y0126484D02*
X0178801Y0126484D01*
X0178220Y0128082D02*
X0186811Y0128082D01*
X0187473Y0129681D02*
X0177639Y0129681D01*
X0177058Y0131279D02*
X0189287Y0131279D01*
X0188510Y0132878D02*
X0176476Y0132878D01*
X0175895Y0134476D02*
X0187242Y0134476D01*
X0186700Y0136075D02*
X0175314Y0136075D01*
X0174732Y0137673D02*
X0186700Y0137673D01*
X0187304Y0139272D02*
X0174151Y0139272D01*
X0173570Y0140870D02*
X0188658Y0140870D01*
X0188929Y0142469D02*
X0172989Y0142469D01*
X0172407Y0144068D02*
X0173990Y0144068D01*
X0173619Y0145666D02*
X0171826Y0145666D01*
X0171245Y0147265D02*
X0173224Y0147265D01*
X0171626Y0148863D02*
X0170663Y0148863D01*
X0171800Y0151800D02*
X0176800Y0146800D01*
X0179610Y0144068D02*
X0187412Y0144068D01*
X0186749Y0145666D02*
X0179981Y0145666D01*
X0179981Y0147265D02*
X0186700Y0147265D01*
X0187134Y0148863D02*
X0179981Y0148863D01*
X0176250Y0150462D02*
X0188249Y0150462D01*
X0189916Y0152060D02*
X0174651Y0152060D01*
X0174000Y0153659D02*
X0187729Y0153659D01*
X0191800Y0156800D02*
X0176800Y0156800D01*
X0175232Y0155257D02*
X0174000Y0155257D01*
X0174000Y0156856D02*
X0174600Y0156856D01*
X0174000Y0158454D02*
X0175343Y0158454D01*
X0174000Y0160053D02*
X0187840Y0160053D01*
X0189848Y0161651D02*
X0174000Y0161651D01*
X0174000Y0163250D02*
X0187581Y0163250D01*
X0186651Y0164848D02*
X0174000Y0164848D01*
X0174558Y0166447D02*
X0186300Y0166447D01*
X0186429Y0168045D02*
X0176156Y0168045D01*
X0177755Y0169644D02*
X0187076Y0169644D01*
X0188557Y0171242D02*
X0179353Y0171242D01*
X0180952Y0172841D02*
X0188547Y0172841D01*
X0187258Y0174439D02*
X0182550Y0174439D01*
X0181800Y0176800D02*
X0171800Y0166800D01*
X0171800Y0151800D01*
X0169600Y0152060D02*
X0169501Y0152060D01*
X0169600Y0153659D02*
X0168920Y0153659D01*
X0168338Y0155257D02*
X0169600Y0155257D01*
X0169600Y0156856D02*
X0167757Y0156856D01*
X0167176Y0158454D02*
X0169600Y0158454D01*
X0169600Y0160053D02*
X0166595Y0160053D01*
X0166013Y0161651D02*
X0169600Y0161651D01*
X0169600Y0163250D02*
X0165432Y0163250D01*
X0164851Y0164848D02*
X0169600Y0164848D01*
X0169600Y0166447D02*
X0164269Y0166447D01*
X0163688Y0168045D02*
X0169934Y0168045D01*
X0171532Y0169644D02*
X0147838Y0169644D01*
X0147039Y0171242D02*
X0173131Y0171242D01*
X0174729Y0172841D02*
X0146239Y0172841D01*
X0145440Y0174439D02*
X0176328Y0174439D01*
X0177926Y0176038D02*
X0144641Y0176038D01*
X0143842Y0177636D02*
X0179525Y0177636D01*
X0181800Y0176800D02*
X0191800Y0176800D01*
X0187288Y0179235D02*
X0174665Y0179235D01*
X0174592Y0179161D02*
X0175187Y0179756D01*
X0175681Y0180437D01*
X0176063Y0181186D01*
X0176323Y0181986D01*
X0176454Y0182816D01*
X0176454Y0182856D01*
X0171492Y0182856D01*
X0171492Y0183618D01*
X0170730Y0183618D01*
X0170730Y0182856D01*
X0165768Y0182856D01*
X0165768Y0182816D01*
X0165899Y0181986D01*
X0166159Y0181186D01*
X0166541Y0180437D01*
X0167035Y0179756D01*
X0167630Y0179161D01*
X0168311Y0178667D01*
X0169060Y0178285D01*
X0169860Y0178025D01*
X0170690Y0177894D01*
X0170730Y0177894D01*
X0170730Y0182856D01*
X0171492Y0182856D01*
X0171492Y0177894D01*
X0171532Y0177894D01*
X0172362Y0178025D01*
X0173162Y0178285D01*
X0173912Y0178667D01*
X0174592Y0179161D01*
X0175883Y0180833D02*
X0188621Y0180833D01*
X0189019Y0182432D02*
X0176393Y0182432D01*
X0176454Y0183618D02*
X0176454Y0183658D01*
X0176323Y0184488D01*
X0176063Y0185288D01*
X0175681Y0186037D01*
X0175187Y0186718D01*
X0174592Y0187313D01*
X0173912Y0187807D01*
X0173162Y0188189D01*
X0172362Y0188449D01*
X0171532Y0188580D01*
X0171492Y0188580D01*
X0171492Y0183618D01*
X0176454Y0183618D01*
X0176395Y0184030D02*
X0187427Y0184030D01*
X0186765Y0185629D02*
X0175889Y0185629D01*
X0174677Y0187227D02*
X0186700Y0187227D01*
X0187119Y0188826D02*
X0164368Y0188826D01*
X0164981Y0190424D02*
X0188212Y0190424D01*
X0195388Y0190424D02*
X0196800Y0190424D01*
X0196800Y0188826D02*
X0196481Y0188826D01*
X0196800Y0192023D02*
X0164981Y0192023D01*
X0164981Y0193621D02*
X0196800Y0193621D01*
X0196800Y0195220D02*
X0139000Y0195220D01*
X0136800Y0196800D02*
X0136800Y0191800D01*
X0161800Y0191800D01*
X0159232Y0188826D02*
X0137767Y0188826D01*
X0139109Y0187227D02*
X0148425Y0187227D01*
X0148626Y0187428D02*
X0147235Y0186037D01*
X0146483Y0184220D01*
X0146483Y0182254D01*
X0147235Y0180437D01*
X0148626Y0179046D01*
X0150443Y0178294D01*
X0152409Y0178294D01*
X0154226Y0179046D01*
X0155617Y0180437D01*
X0156369Y0182254D01*
X0156369Y0184220D01*
X0155617Y0186037D01*
X0154226Y0187428D01*
X0152409Y0188180D01*
X0150443Y0188180D01*
X0148626Y0187428D01*
X0147066Y0185629D02*
X0139845Y0185629D01*
X0140645Y0184030D02*
X0146483Y0184030D01*
X0146483Y0182432D02*
X0141444Y0182432D01*
X0142243Y0180833D02*
X0147071Y0180833D01*
X0148437Y0179235D02*
X0143042Y0179235D01*
X0138922Y0177636D02*
X0123859Y0177636D01*
X0123623Y0177400D02*
X0126200Y0179977D01*
X0126200Y0181800D01*
X0126200Y0183623D01*
X0123623Y0186200D01*
X0121800Y0186200D01*
X0121800Y0181800D01*
X0126200Y0181800D01*
X0121800Y0181800D01*
X0121800Y0181800D01*
X0121800Y0181800D01*
X0121800Y0177400D01*
X0123623Y0177400D01*
X0121800Y0177400D02*
X0121800Y0181800D01*
X0121800Y0181800D01*
X0121800Y0181800D01*
X0117400Y0181800D01*
X0117400Y0183623D01*
X0119977Y0186200D01*
X0121800Y0186200D01*
X0121800Y0181800D01*
X0117400Y0181800D01*
X0117400Y0179977D01*
X0119977Y0177400D01*
X0121800Y0177400D01*
X0121800Y0177636D02*
X0121800Y0177636D01*
X0121800Y0179235D02*
X0121800Y0179235D01*
X0121800Y0180833D02*
X0121800Y0180833D01*
X0121800Y0182432D02*
X0121800Y0182432D01*
X0121800Y0184030D02*
X0121800Y0184030D01*
X0121800Y0185629D02*
X0121800Y0185629D01*
X0123216Y0187227D02*
X0110339Y0187227D01*
X0109000Y0185629D02*
X0119406Y0185629D01*
X0117808Y0184030D02*
X0109000Y0184030D01*
X0109000Y0182432D02*
X0117400Y0182432D01*
X0117400Y0180833D02*
X0109000Y0180833D01*
X0109000Y0179235D02*
X0118143Y0179235D01*
X0119741Y0177636D02*
X0109000Y0177636D01*
X0109000Y0176038D02*
X0139721Y0176038D01*
X0138123Y0179235D02*
X0134892Y0179235D01*
X0135800Y0180833D02*
X0137324Y0180833D01*
X0136524Y0182432D02*
X0135800Y0182432D01*
X0135725Y0184030D02*
X0135227Y0184030D01*
X0136800Y0186800D02*
X0146800Y0166800D01*
X0154396Y0160053D02*
X0106659Y0160053D01*
X0105060Y0161651D02*
X0161331Y0161651D01*
X0161913Y0160053D02*
X0159204Y0160053D01*
X0158457Y0160800D02*
X0160800Y0158457D01*
X0160800Y0155143D01*
X0158457Y0152800D01*
X0155143Y0152800D01*
X0152800Y0155143D01*
X0152800Y0158457D01*
X0155143Y0160800D01*
X0158457Y0160800D01*
X0160800Y0158454D02*
X0162494Y0158454D01*
X0163075Y0156856D02*
X0160800Y0156856D01*
X0160800Y0155257D02*
X0163656Y0155257D01*
X0164238Y0153659D02*
X0159315Y0153659D01*
X0154285Y0153659D02*
X0109000Y0153659D01*
X0109000Y0155257D02*
X0152800Y0155257D01*
X0152800Y0156856D02*
X0109000Y0156856D01*
X0108257Y0158454D02*
X0152800Y0158454D01*
X0160750Y0163250D02*
X0103462Y0163250D01*
X0106800Y0166800D02*
X0106800Y0186800D01*
X0111800Y0191800D01*
X0111800Y0196800D01*
X0136800Y0196800D01*
X0134600Y0193621D02*
X0114000Y0193621D01*
X0114000Y0192023D02*
X0123866Y0192023D01*
X0122800Y0190424D02*
X0113536Y0190424D01*
X0111937Y0188826D02*
X0122800Y0188826D01*
X0124194Y0185629D02*
X0124814Y0185629D01*
X0125792Y0184030D02*
X0128373Y0184030D01*
X0128786Y0185629D02*
X0129972Y0185629D01*
X0127800Y0182432D02*
X0126200Y0182432D01*
X0126200Y0180833D02*
X0127800Y0180833D01*
X0128708Y0179235D02*
X0125457Y0179235D01*
X0126800Y0189300D02*
X0136800Y0186800D01*
X0135064Y0190424D02*
X0131373Y0190424D01*
X0129734Y0192023D02*
X0134600Y0192023D01*
X0154427Y0187227D02*
X0167545Y0187227D01*
X0167630Y0187313D02*
X0167035Y0186718D01*
X0166541Y0186037D01*
X0166159Y0185288D01*
X0165899Y0184488D01*
X0165768Y0183658D01*
X0165768Y0183618D01*
X0170730Y0183618D01*
X0170730Y0188580D01*
X0170690Y0188580D01*
X0169860Y0188449D01*
X0169060Y0188189D01*
X0168311Y0187807D01*
X0167630Y0187313D01*
X0166333Y0185629D02*
X0155786Y0185629D01*
X0156369Y0184030D02*
X0165827Y0184030D01*
X0165829Y0182432D02*
X0156369Y0182432D01*
X0155781Y0180833D02*
X0166339Y0180833D01*
X0167557Y0179235D02*
X0154415Y0179235D01*
X0170730Y0179235D02*
X0171492Y0179235D01*
X0171492Y0180833D02*
X0170730Y0180833D01*
X0170730Y0182432D02*
X0171492Y0182432D01*
X0171492Y0184030D02*
X0170730Y0184030D01*
X0170730Y0185629D02*
X0171492Y0185629D01*
X0171492Y0187227D02*
X0170730Y0187227D01*
X0154600Y0142469D02*
X0128896Y0142469D01*
X0129429Y0140870D02*
X0154600Y0140870D01*
X0154600Y0139272D02*
X0129962Y0139272D01*
X0130495Y0137673D02*
X0154600Y0137673D01*
X0154600Y0136075D02*
X0131027Y0136075D01*
X0131560Y0134476D02*
X0154600Y0134476D01*
X0154600Y0132878D02*
X0132093Y0132878D01*
X0132626Y0131279D02*
X0154600Y0131279D01*
X0154600Y0129681D02*
X0133159Y0129681D01*
X0133692Y0128082D02*
X0154600Y0128082D01*
X0154600Y0126484D02*
X0134224Y0126484D01*
X0134757Y0124885D02*
X0154600Y0124885D01*
X0154600Y0123287D02*
X0135290Y0123287D01*
X0135823Y0121688D02*
X0154600Y0121688D01*
X0154433Y0120090D02*
X0136356Y0120090D01*
X0136889Y0118491D02*
X0152834Y0118491D01*
X0152800Y0116893D02*
X0137421Y0116893D01*
X0137954Y0115294D02*
X0152183Y0115294D01*
X0155209Y0112097D02*
X0179351Y0112097D01*
X0179743Y0110499D02*
X0153610Y0110499D01*
X0126800Y0141800D02*
X0116800Y0146800D01*
X0105715Y0188826D02*
X0091565Y0188826D01*
X0092329Y0190424D02*
X0107313Y0190424D01*
X0108912Y0192023D02*
X0092491Y0192023D01*
X0092144Y0193621D02*
X0109600Y0193621D01*
X0109600Y0195220D02*
X0091119Y0195220D01*
X0083977Y0195220D02*
X0083245Y0195220D01*
X0076103Y0195220D02*
X0075371Y0195220D01*
X0068229Y0195220D02*
X0067497Y0195220D01*
X0060355Y0195220D02*
X0059623Y0195220D01*
X0052481Y0195220D02*
X0003600Y0195220D01*
X0003600Y0193621D02*
X0051456Y0193621D01*
X0051109Y0192023D02*
X0003600Y0192023D01*
X0003600Y0190424D02*
X0051271Y0190424D01*
X0052035Y0188826D02*
X0003600Y0188826D01*
X0003600Y0168045D02*
X0004934Y0168045D01*
X0004600Y0166447D02*
X0003600Y0166447D01*
X0003600Y0164848D02*
X0004600Y0164848D01*
X0004600Y0163250D02*
X0003600Y0163250D01*
X0003600Y0161651D02*
X0004600Y0161651D01*
X0004600Y0160053D02*
X0003600Y0160053D01*
X0003600Y0158454D02*
X0004600Y0158454D01*
X0004600Y0156856D02*
X0003600Y0156856D01*
X0009000Y0160053D02*
X0011443Y0160053D01*
X0011126Y0161651D02*
X0009000Y0161651D01*
X0009000Y0163250D02*
X0011397Y0163250D01*
X0006800Y0101800D02*
X0016800Y0101800D01*
X0074488Y0096112D02*
X0080200Y0096112D01*
X0080829Y0094514D02*
X0076087Y0094514D01*
X0086800Y0080127D02*
X0086800Y0080127D01*
X0086800Y0078529D02*
X0086800Y0078529D01*
X0086800Y0076930D02*
X0086800Y0076930D01*
X0086800Y0075332D02*
X0086800Y0075332D01*
X0086800Y0073733D02*
X0086800Y0073733D01*
X0121693Y0040164D02*
X0147800Y0040164D01*
X0149377Y0038566D02*
X0122998Y0038566D01*
X0123400Y0036967D02*
X0196800Y0036967D01*
X0196800Y0035369D02*
X0123137Y0035369D01*
X0122027Y0033770D02*
X0196800Y0033770D01*
X0158812Y0038566D02*
X0154223Y0038566D01*
X0155800Y0040164D02*
X0157400Y0040164D01*
X0157400Y0041763D02*
X0155800Y0041763D01*
X0155800Y0043361D02*
X0157400Y0043361D01*
D20*
X0161800Y0146800D03*
X0176800Y0146800D03*
X0161800Y0191800D03*
X0106800Y0166800D03*
X0061800Y0126800D03*
M02*
