%
M48
M72
T01C0.02362
T02C0.03150
T03C0.03200
T04C0.04000
T05C0.04724
T06C0.07480
%
T01
X61800Y126800
X106800Y166800
X161800Y146800
X176800Y146800
X161800Y191800
T02
X18650Y166446
X15501Y161721
X21800Y161721
X24950Y166446
X28099Y161721
X66800Y76800
X66800Y66800
X66800Y56800
T03
X16800Y26800
X36800Y11800
X46800Y31800
X56800Y31800
X76800Y11800
X86800Y16800
X86800Y26800
X86800Y36800
X86800Y46800
X86800Y56800
X86800Y66800
X86800Y76800
X86800Y86800
X86800Y96800
X86800Y106800
X86800Y116800
X86800Y126800
X86800Y136800
X86800Y146800
X71800Y116800
X61800Y116800
X61800Y91800
X71800Y91800
X41800Y91800
X41800Y81800
X26800Y96800
X16800Y66800
X26800Y136800
X116800Y136800
X116800Y126800
X116800Y116800
X116800Y106800
X116800Y96800
X116800Y86800
X116800Y76800
X116800Y66800
X116800Y56800
X116800Y46800
X116800Y36800
X116800Y26800
X116800Y16800
X131800Y16800
X141800Y16800
X151800Y41800
X161800Y41800
X136800Y76800
X136800Y86800
X151800Y101800
X161800Y101800
X156800Y116800
X156800Y156800
X131800Y181800
X126800Y189300
X121800Y181800
X116800Y146800
T04
X6800Y141800
X6800Y131800
X6800Y121800
X6800Y111800
X6800Y101800
X6800Y91800
X6800Y81800
X6800Y71800
X191800Y66800
X191800Y76800
X191800Y86800
X191800Y96800
X191800Y106800
X191800Y116800
X191800Y126800
X191800Y136800
X191800Y146800
X191800Y156800
X191800Y166800
X191800Y176800
X191800Y186800
T05
X51426Y148237
X71111Y148237
X71800Y191800
X63926Y191800
X56052Y191800
X79674Y191800
X87548Y191800
X151426Y183237
X171111Y183237
T06
X7430Y181800
X36170Y181800
M30
