G75*
%MOIN*%
%OFA0B0*%
%FSLAX25Y25*%
%IPPOS*%
%LPD*%
%AMOC8*
5,1,8,0,0,1.08239X$1,22.5*
%
%ADD10C,0.00000*%
%ADD11OC8,0.05600*%
%ADD12C,0.06700*%
%ADD13OC8,0.06700*%
%ADD14C,0.05600*%
%ADD15C,0.05550*%
%ADD16C,0.11620*%
%ADD17C,0.07800*%
%ADD18C,0.07487*%
D10*
X0001800Y0001800D02*
X0001800Y0198650D01*
X0198650Y0198650D01*
X0198650Y0001800D01*
X0001800Y0001800D01*
D11*
X0016800Y0026800D03*
X0036800Y0011800D03*
X0046800Y0031800D03*
X0056800Y0031800D03*
X0076800Y0011800D03*
X0131800Y0016800D03*
X0141800Y0016800D03*
X0151800Y0041800D03*
X0161800Y0041800D03*
X0161800Y0101800D03*
X0151800Y0101800D03*
X0156800Y0116800D03*
X0156800Y0156800D03*
X0131800Y0181800D03*
X0126800Y0189300D03*
X0121800Y0181800D03*
X0071800Y0116800D03*
X0061800Y0116800D03*
X0041800Y0091800D03*
X0041800Y0081800D03*
X0026800Y0096800D03*
X0016800Y0066800D03*
X0026800Y0136800D03*
D12*
X0061800Y0091800D03*
X0136800Y0076800D03*
D13*
X0136800Y0086800D03*
X0071800Y0091800D03*
D14*
X0084200Y0086800D02*
X0089400Y0086800D01*
X0089400Y0076800D02*
X0084200Y0076800D01*
X0084200Y0066800D02*
X0089400Y0066800D01*
X0089400Y0056800D02*
X0084200Y0056800D01*
X0084200Y0046800D02*
X0089400Y0046800D01*
X0089400Y0036800D02*
X0084200Y0036800D01*
X0084200Y0026800D02*
X0089400Y0026800D01*
X0089400Y0016800D02*
X0084200Y0016800D01*
X0114200Y0016800D02*
X0119400Y0016800D01*
X0119400Y0026800D02*
X0114200Y0026800D01*
X0114200Y0036800D02*
X0119400Y0036800D01*
X0119400Y0046800D02*
X0114200Y0046800D01*
X0114200Y0056800D02*
X0119400Y0056800D01*
X0119400Y0066800D02*
X0114200Y0066800D01*
X0114200Y0076800D02*
X0119400Y0076800D01*
X0119400Y0086800D02*
X0114200Y0086800D01*
X0114200Y0096800D02*
X0119400Y0096800D01*
X0119400Y0106800D02*
X0114200Y0106800D01*
X0114200Y0116800D02*
X0119400Y0116800D01*
X0119400Y0126800D02*
X0114200Y0126800D01*
X0114200Y0136800D02*
X0119400Y0136800D01*
X0119400Y0146800D02*
X0114200Y0146800D01*
X0089400Y0146800D02*
X0084200Y0146800D01*
X0084200Y0136800D02*
X0089400Y0136800D01*
X0089400Y0126800D02*
X0084200Y0126800D01*
X0084200Y0116800D02*
X0089400Y0116800D01*
X0089400Y0106800D02*
X0084200Y0106800D01*
X0084200Y0096800D02*
X0089400Y0096800D01*
D15*
X0028099Y0161721D03*
X0024950Y0166446D03*
X0021800Y0161721D03*
X0018650Y0166446D03*
X0015501Y0161721D03*
D16*
X0007430Y0181800D03*
X0036170Y0181800D03*
D17*
X0006800Y0141800D03*
X0006800Y0131800D03*
X0006800Y0121800D03*
X0006800Y0111800D03*
X0006800Y0101800D03*
X0006800Y0091800D03*
X0006800Y0081800D03*
X0006800Y0071800D03*
X0066800Y0066800D03*
X0066800Y0076800D03*
X0066800Y0056800D03*
X0191800Y0066800D03*
X0191800Y0076800D03*
X0191800Y0086800D03*
X0191800Y0096800D03*
X0191800Y0106800D03*
X0191800Y0116800D03*
X0191800Y0126800D03*
X0191800Y0136800D03*
X0191800Y0146800D03*
X0191800Y0156800D03*
X0191800Y0166800D03*
X0191800Y0176800D03*
X0191800Y0186800D03*
D18*
X0171111Y0183237D03*
X0151426Y0183237D03*
X0087548Y0191800D03*
X0079674Y0191800D03*
X0071800Y0191800D03*
X0063926Y0191800D03*
X0056052Y0191800D03*
X0051426Y0148237D03*
X0071111Y0148237D03*
M02*
