G75*
%MOIN*%
%OFA0B0*%
%FSLAX25Y25*%
%IPPOS*%
%LPD*%
%AMOC8*
5,1,8,0,0,1.08239X$1,22.5*
%
%ADD10C,0.00000*%
%ADD11OC8,0.05200*%
%ADD12C,0.06300*%
%ADD13OC8,0.06300*%
%ADD14C,0.05200*%
%ADD15C,0.05150*%
%ADD16C,0.11220*%
%ADD17C,0.07400*%
%ADD18C,0.07087*%
%ADD19C,0.01600*%
%ADD20R,0.03962X0.03962*%
D10*
X0009867Y0001800D02*
X0009867Y0198650D01*
X0206717Y0198650D01*
X0206717Y0001800D01*
X0009867Y0001800D01*
D11*
X0034867Y0056800D03*
X0044867Y0056800D03*
X0074867Y0076800D03*
X0084867Y0076800D03*
X0079867Y0061800D03*
X0079867Y0021800D03*
X0139867Y0066800D03*
X0179867Y0066800D03*
X0139867Y0111800D03*
X0164867Y0141800D03*
X0174867Y0141800D03*
X0139867Y0151800D03*
X0119867Y0166800D03*
X0114867Y0174300D03*
X0109867Y0166800D03*
X0094867Y0171800D03*
X0084867Y0171800D03*
X0039867Y0131800D03*
X0029867Y0131800D03*
X0039867Y0116800D03*
X0069867Y0106800D03*
X0079867Y0106800D03*
X0079867Y0116800D03*
D12*
X0144867Y0086800D03*
X0164867Y0096800D03*
D13*
X0174867Y0096800D03*
X0144867Y0096800D03*
D14*
X0127467Y0096800D02*
X0122267Y0096800D01*
X0122267Y0086800D02*
X0127467Y0086800D01*
X0127467Y0076800D02*
X0122267Y0076800D01*
X0122267Y0066800D02*
X0127467Y0066800D01*
X0127467Y0056800D02*
X0122267Y0056800D01*
X0122267Y0046800D02*
X0127467Y0046800D01*
X0127467Y0036800D02*
X0122267Y0036800D01*
X0122267Y0026800D02*
X0127467Y0026800D01*
X0127467Y0016800D02*
X0122267Y0016800D01*
X0122267Y0006800D02*
X0127467Y0006800D01*
X0097467Y0006800D02*
X0092267Y0006800D01*
X0092267Y0016800D02*
X0097467Y0016800D01*
X0097467Y0026800D02*
X0092267Y0026800D01*
X0092267Y0036800D02*
X0097467Y0036800D01*
X0097467Y0046800D02*
X0092267Y0046800D01*
X0092267Y0056800D02*
X0097467Y0056800D01*
X0097467Y0066800D02*
X0092267Y0066800D01*
X0092267Y0076800D02*
X0097467Y0076800D01*
X0097467Y0086800D02*
X0092267Y0086800D01*
X0092267Y0096800D02*
X0097467Y0096800D01*
X0097467Y0106800D02*
X0092267Y0106800D01*
X0092267Y0116800D02*
X0097467Y0116800D01*
X0097467Y0126800D02*
X0092267Y0126800D01*
X0092267Y0136800D02*
X0097467Y0136800D01*
X0122267Y0136800D02*
X0127467Y0136800D01*
X0127467Y0126800D02*
X0122267Y0126800D01*
X0122267Y0116800D02*
X0127467Y0116800D01*
X0127467Y0106800D02*
X0122267Y0106800D01*
D15*
X0044945Y0170501D03*
X0040221Y0173650D03*
X0044945Y0176800D03*
X0040221Y0179950D03*
X0044945Y0183099D03*
D16*
X0024867Y0191170D03*
X0024867Y0162430D03*
D17*
X0014867Y0131800D03*
X0014867Y0121800D03*
X0014867Y0111800D03*
X0014867Y0101800D03*
X0014867Y0091800D03*
X0014867Y0081800D03*
X0014867Y0071800D03*
X0014867Y0061800D03*
X0069867Y0151800D03*
X0079867Y0151800D03*
X0089867Y0151800D03*
X0199867Y0146800D03*
X0199867Y0156800D03*
X0199867Y0166800D03*
X0199867Y0176800D03*
X0199867Y0186800D03*
X0199867Y0131800D03*
X0199867Y0121800D03*
X0199867Y0111800D03*
X0199867Y0101800D03*
X0199867Y0091800D03*
X0199867Y0081800D03*
X0199867Y0071800D03*
X0199867Y0061800D03*
D18*
X0156304Y0167489D03*
X0156304Y0187174D03*
X0100615Y0191800D03*
X0092741Y0191800D03*
X0084867Y0191800D03*
X0076993Y0191800D03*
X0069119Y0191800D03*
X0036304Y0037174D03*
X0036304Y0017489D03*
D19*
X0036685Y0017785D02*
X0067467Y0017785D01*
X0067467Y0016323D02*
X0067832Y0015441D01*
X0072832Y0010441D01*
X0073507Y0009765D01*
X0074389Y0009400D01*
X0085344Y0009400D01*
X0086226Y0009765D01*
X0086901Y0010441D01*
X0087267Y0011323D01*
X0087267Y0019400D01*
X0088927Y0019400D01*
X0088706Y0019179D01*
X0088067Y0017635D01*
X0088067Y0015965D01*
X0088706Y0014421D01*
X0089888Y0013239D01*
X0091431Y0012600D01*
X0098302Y0012600D01*
X0099846Y0013239D01*
X0101027Y0014421D01*
X0101667Y0015965D01*
X0101667Y0017635D01*
X0101027Y0019179D01*
X0099846Y0020361D01*
X0098302Y0021000D01*
X0092461Y0021000D01*
X0094061Y0022600D01*
X0098302Y0022600D01*
X0099846Y0023239D01*
X0101027Y0024421D01*
X0101667Y0025965D01*
X0101667Y0027635D01*
X0101027Y0029179D01*
X0099846Y0030361D01*
X0098302Y0031000D01*
X0091431Y0031000D01*
X0089888Y0030361D01*
X0088706Y0029179D01*
X0088067Y0027635D01*
X0088067Y0025965D01*
X0088706Y0024421D01*
X0088900Y0024227D01*
X0088873Y0024200D01*
X0084389Y0024200D01*
X0083694Y0023912D01*
X0082267Y0025340D01*
X0082267Y0034400D01*
X0088727Y0034400D01*
X0089888Y0033239D01*
X0091431Y0032600D01*
X0098302Y0032600D01*
X0099846Y0033239D01*
X0099939Y0033333D01*
X0102467Y0030806D01*
X0102467Y0012794D01*
X0099939Y0010267D01*
X0099846Y0010361D01*
X0098302Y0011000D01*
X0091431Y0011000D01*
X0089888Y0010361D01*
X0088706Y0009179D01*
X0088067Y0007635D01*
X0088067Y0006600D01*
X0014667Y0006600D01*
X0014667Y0056500D01*
X0015921Y0056500D01*
X0017869Y0057307D01*
X0019360Y0058798D01*
X0020167Y0060746D01*
X0020167Y0062854D01*
X0019360Y0064802D01*
X0017869Y0066293D01*
X0016645Y0066800D01*
X0017869Y0067307D01*
X0019360Y0068798D01*
X0020167Y0070746D01*
X0020167Y0072854D01*
X0019360Y0074802D01*
X0017869Y0076293D01*
X0016645Y0076800D01*
X0017869Y0077307D01*
X0019360Y0078798D01*
X0020167Y0080746D01*
X0020167Y0082854D01*
X0019360Y0084802D01*
X0017869Y0086293D01*
X0016645Y0086800D01*
X0017869Y0087307D01*
X0019360Y0088798D01*
X0020167Y0090746D01*
X0020167Y0092854D01*
X0019360Y0094802D01*
X0017869Y0096293D01*
X0016645Y0096800D01*
X0017869Y0097307D01*
X0019360Y0098798D01*
X0019609Y0099400D01*
X0021286Y0099400D01*
X0021286Y0094156D01*
X0022223Y0093219D01*
X0022467Y0093219D01*
X0022467Y0085381D01*
X0022223Y0085381D01*
X0021286Y0084444D01*
X0021286Y0079156D01*
X0022223Y0078219D01*
X0027510Y0078219D01*
X0028448Y0079156D01*
X0028448Y0084444D01*
X0027510Y0085381D01*
X0027267Y0085381D01*
X0027267Y0093219D01*
X0027510Y0093219D01*
X0028448Y0094156D01*
X0028448Y0099400D01*
X0028873Y0099400D01*
X0032467Y0095806D01*
X0032467Y0082794D01*
X0023507Y0073835D01*
X0022832Y0073159D01*
X0022467Y0072277D01*
X0022467Y0046323D01*
X0022832Y0045441D01*
X0023507Y0044765D01*
X0024389Y0044400D01*
X0025684Y0044400D01*
X0031373Y0038711D01*
X0031160Y0038197D01*
X0031160Y0036151D01*
X0031943Y0034261D01*
X0033390Y0032814D01*
X0035281Y0032031D01*
X0037327Y0032031D01*
X0039217Y0032814D01*
X0040664Y0034261D01*
X0041447Y0036151D01*
X0041447Y0038197D01*
X0040664Y0040087D01*
X0039217Y0041534D01*
X0037327Y0042317D01*
X0035281Y0042317D01*
X0034767Y0042105D01*
X0028037Y0048835D01*
X0027267Y0049154D01*
X0027267Y0068219D01*
X0027467Y0068219D01*
X0027467Y0061323D01*
X0027832Y0060441D01*
X0030667Y0057606D01*
X0030667Y0055060D01*
X0033127Y0052600D01*
X0036606Y0052600D01*
X0039067Y0055060D01*
X0039067Y0058540D01*
X0036606Y0061000D01*
X0034061Y0061000D01*
X0032267Y0062794D01*
X0032267Y0068219D01*
X0032510Y0068219D01*
X0033448Y0069156D01*
X0033448Y0074444D01*
X0032510Y0075381D01*
X0031842Y0075381D01*
X0036901Y0080441D01*
X0037267Y0081323D01*
X0037267Y0097277D01*
X0036901Y0098159D01*
X0036226Y0098835D01*
X0031226Y0103835D01*
X0030344Y0104200D01*
X0019609Y0104200D01*
X0019360Y0104802D01*
X0017869Y0106293D01*
X0016645Y0106800D01*
X0017869Y0107307D01*
X0019360Y0108798D01*
X0020167Y0110746D01*
X0020167Y0112854D01*
X0019360Y0114802D01*
X0017869Y0116293D01*
X0016645Y0116800D01*
X0017869Y0117307D01*
X0019360Y0118798D01*
X0020167Y0120746D01*
X0020167Y0122854D01*
X0019360Y0124802D01*
X0017869Y0126293D01*
X0016923Y0126685D01*
X0016978Y0126703D01*
X0017749Y0127096D01*
X0018450Y0127605D01*
X0019062Y0128217D01*
X0019571Y0128917D01*
X0019964Y0129689D01*
X0020231Y0130512D01*
X0020367Y0131367D01*
X0020367Y0131600D01*
X0015067Y0131600D01*
X0015067Y0132000D01*
X0020367Y0132000D01*
X0020367Y0132233D01*
X0020231Y0133088D01*
X0019964Y0133911D01*
X0019571Y0134683D01*
X0019062Y0135383D01*
X0018450Y0135995D01*
X0017749Y0136504D01*
X0016978Y0136897D01*
X0016155Y0137165D01*
X0015300Y0137300D01*
X0015067Y0137300D01*
X0015067Y0132000D01*
X0014667Y0132000D01*
X0014667Y0193850D01*
X0018173Y0193850D01*
X0017656Y0192604D01*
X0017656Y0189736D01*
X0018754Y0187086D01*
X0020782Y0185058D01*
X0023432Y0183960D01*
X0026301Y0183960D01*
X0028951Y0185058D01*
X0030979Y0187086D01*
X0032077Y0189736D01*
X0032077Y0192604D01*
X0031561Y0193850D01*
X0064401Y0193850D01*
X0063975Y0192823D01*
X0063975Y0190777D01*
X0064758Y0188887D01*
X0066205Y0187440D01*
X0068096Y0186657D01*
X0070142Y0186657D01*
X0072032Y0187440D01*
X0073056Y0188463D01*
X0074079Y0187440D01*
X0075970Y0186657D01*
X0078016Y0186657D01*
X0079906Y0187440D01*
X0080930Y0188463D01*
X0081953Y0187440D01*
X0083844Y0186657D01*
X0085890Y0186657D01*
X0087780Y0187440D01*
X0088804Y0188463D01*
X0089827Y0187440D01*
X0090341Y0187227D01*
X0090341Y0183449D01*
X0090706Y0182566D01*
X0091381Y0181891D01*
X0098507Y0174765D01*
X0099389Y0174400D01*
X0108873Y0174400D01*
X0110667Y0172606D01*
X0110667Y0172560D01*
X0113127Y0170100D01*
X0113173Y0170100D01*
X0113507Y0169765D01*
X0114389Y0169400D01*
X0115344Y0169400D01*
X0116226Y0169765D01*
X0116561Y0170100D01*
X0116606Y0170100D01*
X0118406Y0171900D01*
X0126373Y0171900D01*
X0127467Y0170806D01*
X0127467Y0161323D01*
X0127832Y0160441D01*
X0128507Y0159765D01*
X0129389Y0159400D01*
X0143873Y0159400D01*
X0147891Y0155381D01*
X0147223Y0155381D01*
X0146286Y0154444D01*
X0146286Y0149156D01*
X0147223Y0148219D01*
X0147467Y0148219D01*
X0147467Y0135381D01*
X0142223Y0135381D01*
X0141286Y0134444D01*
X0141286Y0129156D01*
X0142223Y0128219D01*
X0142467Y0128219D01*
X0142467Y0115423D01*
X0141689Y0116200D01*
X0139867Y0116200D01*
X0139867Y0111800D01*
X0139867Y0107400D01*
X0141689Y0107400D01*
X0142467Y0108177D01*
X0142467Y0104200D01*
X0130806Y0104200D01*
X0131027Y0104421D01*
X0131667Y0105965D01*
X0131667Y0107635D01*
X0131027Y0109179D01*
X0129846Y0110361D01*
X0128302Y0111000D01*
X0121431Y0111000D01*
X0119888Y0110361D01*
X0118706Y0109179D01*
X0118067Y0107635D01*
X0118067Y0105965D01*
X0118706Y0104421D01*
X0119888Y0103239D01*
X0121286Y0102660D01*
X0121286Y0100940D01*
X0119937Y0100381D01*
X0119680Y0100381D01*
X0117267Y0102794D01*
X0117267Y0134400D01*
X0118727Y0134400D01*
X0119888Y0133239D01*
X0121431Y0132600D01*
X0128302Y0132600D01*
X0129846Y0133239D01*
X0131027Y0134421D01*
X0131667Y0135965D01*
X0131667Y0137635D01*
X0131027Y0139179D01*
X0129846Y0140361D01*
X0128302Y0141000D01*
X0124061Y0141000D01*
X0122267Y0142794D01*
X0122267Y0152277D01*
X0121901Y0153159D01*
X0121226Y0153835D01*
X0120344Y0154200D01*
X0110861Y0154200D01*
X0097175Y0167886D01*
X0099267Y0169977D01*
X0099267Y0171800D01*
X0099267Y0173623D01*
X0096689Y0176200D01*
X0094867Y0176200D01*
X0094867Y0171800D01*
X0099267Y0171800D01*
X0094867Y0171800D01*
X0094867Y0171800D01*
X0094867Y0171800D01*
X0094867Y0176200D01*
X0093044Y0176200D01*
X0090839Y0173995D01*
X0090344Y0174200D01*
X0088406Y0174200D01*
X0086606Y0176000D01*
X0083127Y0176000D01*
X0080667Y0173540D01*
X0080667Y0170060D01*
X0083127Y0167600D01*
X0086606Y0167600D01*
X0088406Y0169400D01*
X0088873Y0169400D01*
X0107832Y0150441D01*
X0108507Y0149765D01*
X0109389Y0149400D01*
X0117467Y0149400D01*
X0117467Y0141323D01*
X0117832Y0140441D01*
X0118900Y0139373D01*
X0118727Y0139200D01*
X0114389Y0139200D01*
X0113507Y0138835D01*
X0112832Y0138159D01*
X0112467Y0137277D01*
X0112467Y0101323D01*
X0112832Y0100441D01*
X0116286Y0096987D01*
X0116286Y0094156D01*
X0117223Y0093219D01*
X0119937Y0093219D01*
X0121431Y0092600D01*
X0128302Y0092600D01*
X0129846Y0093239D01*
X0131027Y0094421D01*
X0131667Y0095965D01*
X0131667Y0097635D01*
X0131027Y0099179D01*
X0130806Y0099400D01*
X0140466Y0099400D01*
X0139917Y0098850D01*
X0139917Y0096800D01*
X0139917Y0094750D01*
X0142816Y0091850D01*
X0144867Y0091850D01*
X0146917Y0091850D01*
X0149817Y0094750D01*
X0149817Y0096800D01*
X0149817Y0098850D01*
X0147267Y0101400D01*
X0147267Y0128219D01*
X0147467Y0128219D01*
X0147467Y0106323D01*
X0147832Y0105441D01*
X0152467Y0100806D01*
X0152467Y0091323D01*
X0152832Y0090441D01*
X0157891Y0085381D01*
X0157223Y0085381D01*
X0156286Y0084444D01*
X0156286Y0084200D01*
X0150861Y0084200D01*
X0149496Y0085564D01*
X0149617Y0085855D01*
X0149617Y0087745D01*
X0148894Y0089491D01*
X0147557Y0090827D01*
X0145811Y0091550D01*
X0143922Y0091550D01*
X0142176Y0090827D01*
X0140840Y0089491D01*
X0140117Y0087745D01*
X0140117Y0085855D01*
X0140840Y0084109D01*
X0142176Y0082773D01*
X0143922Y0082050D01*
X0145811Y0082050D01*
X0146102Y0082170D01*
X0148507Y0079765D01*
X0149389Y0079400D01*
X0156286Y0079400D01*
X0156286Y0079156D01*
X0157223Y0078219D01*
X0162467Y0078219D01*
X0162467Y0047794D01*
X0158873Y0044200D01*
X0131016Y0044200D01*
X0131230Y0044494D01*
X0131544Y0045111D01*
X0131758Y0045770D01*
X0131867Y0046454D01*
X0131867Y0046800D01*
X0131867Y0047146D01*
X0131758Y0047830D01*
X0131544Y0048489D01*
X0131230Y0049106D01*
X0131016Y0049400D01*
X0135344Y0049400D01*
X0136226Y0049765D01*
X0136901Y0050441D01*
X0137267Y0051323D01*
X0137267Y0060806D01*
X0139061Y0062600D01*
X0141606Y0062600D01*
X0144067Y0065060D01*
X0144067Y0068540D01*
X0141606Y0071000D01*
X0138127Y0071000D01*
X0135667Y0068540D01*
X0135667Y0065994D01*
X0132832Y0063159D01*
X0132467Y0062277D01*
X0132467Y0054200D01*
X0130806Y0054200D01*
X0131027Y0054421D01*
X0131667Y0055965D01*
X0131667Y0057635D01*
X0131027Y0059179D01*
X0129846Y0060361D01*
X0128302Y0061000D01*
X0121431Y0061000D01*
X0119888Y0060361D01*
X0118706Y0059179D01*
X0118067Y0057635D01*
X0118067Y0055965D01*
X0118706Y0054421D01*
X0118927Y0054200D01*
X0115861Y0054200D01*
X0112267Y0057794D01*
X0112267Y0132277D01*
X0111901Y0133159D01*
X0111226Y0133835D01*
X0106226Y0138835D01*
X0105344Y0139200D01*
X0101006Y0139200D01*
X0100834Y0139373D01*
X0101226Y0139765D01*
X0101901Y0140441D01*
X0102267Y0141323D01*
X0102267Y0148219D01*
X0102510Y0148219D01*
X0103448Y0149156D01*
X0103448Y0154444D01*
X0102510Y0155381D01*
X0097223Y0155381D01*
X0096286Y0154444D01*
X0096286Y0149156D01*
X0097223Y0148219D01*
X0097467Y0148219D01*
X0097467Y0142794D01*
X0095673Y0141000D01*
X0091431Y0141000D01*
X0089888Y0140361D01*
X0088706Y0139179D01*
X0088067Y0137635D01*
X0088067Y0135965D01*
X0088706Y0134421D01*
X0088927Y0134200D01*
X0085861Y0134200D01*
X0072788Y0147273D01*
X0072869Y0147307D01*
X0074360Y0148798D01*
X0074752Y0149744D01*
X0074770Y0149689D01*
X0075163Y0148917D01*
X0075671Y0148217D01*
X0076284Y0147605D01*
X0076984Y0147096D01*
X0077755Y0146703D01*
X0078579Y0146435D01*
X0079434Y0146300D01*
X0079867Y0146300D01*
X0080300Y0146300D01*
X0081155Y0146435D01*
X0081978Y0146703D01*
X0082749Y0147096D01*
X0083450Y0147605D01*
X0084062Y0148217D01*
X0084571Y0148917D01*
X0084964Y0149689D01*
X0084982Y0149744D01*
X0085374Y0148798D01*
X0086864Y0147307D01*
X0088812Y0146500D01*
X0090921Y0146500D01*
X0092869Y0147307D01*
X0094360Y0148798D01*
X0095167Y0150746D01*
X0095167Y0152854D01*
X0094360Y0154802D01*
X0092869Y0156293D01*
X0090921Y0157100D01*
X0088812Y0157100D01*
X0086864Y0156293D01*
X0085374Y0154802D01*
X0084982Y0153856D01*
X0084964Y0153911D01*
X0084571Y0154683D01*
X0084062Y0155383D01*
X0083450Y0155995D01*
X0082749Y0156504D01*
X0081978Y0156897D01*
X0081155Y0157165D01*
X0080300Y0157300D01*
X0079867Y0157300D01*
X0079867Y0151800D01*
X0079867Y0151800D01*
X0079867Y0146300D01*
X0079867Y0151800D01*
X0079867Y0151800D01*
X0079867Y0157300D01*
X0079434Y0157300D01*
X0078579Y0157165D01*
X0077755Y0156897D01*
X0076984Y0156504D01*
X0076284Y0155995D01*
X0075671Y0155383D01*
X0075163Y0154683D01*
X0074770Y0153911D01*
X0074752Y0153856D01*
X0074360Y0154802D01*
X0072869Y0156293D01*
X0070921Y0157100D01*
X0068812Y0157100D01*
X0066864Y0156293D01*
X0065374Y0154802D01*
X0064567Y0152854D01*
X0064567Y0150746D01*
X0065207Y0149200D01*
X0063448Y0149200D01*
X0063448Y0154444D01*
X0062510Y0155381D01*
X0059680Y0155381D01*
X0057267Y0157794D01*
X0057267Y0167277D01*
X0056901Y0168159D01*
X0056226Y0168835D01*
X0052267Y0172794D01*
X0052267Y0177277D01*
X0051901Y0178159D01*
X0051226Y0178835D01*
X0050344Y0179200D01*
X0048449Y0179200D01*
X0047700Y0179950D01*
X0048485Y0180734D01*
X0049120Y0182269D01*
X0049120Y0183930D01*
X0048485Y0185464D01*
X0047310Y0186638D01*
X0045776Y0187274D01*
X0044115Y0187274D01*
X0042581Y0186638D01*
X0041406Y0185464D01*
X0040851Y0184124D01*
X0039391Y0184124D01*
X0037856Y0183489D01*
X0036682Y0182314D01*
X0036046Y0180780D01*
X0036046Y0179119D01*
X0036682Y0177585D01*
X0037467Y0176800D01*
X0036682Y0176015D01*
X0036046Y0174481D01*
X0036046Y0172820D01*
X0036682Y0171286D01*
X0037467Y0170501D01*
X0037467Y0146323D01*
X0037832Y0145441D01*
X0038507Y0144765D01*
X0039389Y0144400D01*
X0068873Y0144400D01*
X0083507Y0129765D01*
X0084389Y0129400D01*
X0088927Y0129400D01*
X0088706Y0129179D01*
X0088067Y0127635D01*
X0088067Y0126994D01*
X0086226Y0128835D01*
X0085344Y0129200D01*
X0062267Y0129200D01*
X0062267Y0133219D01*
X0062510Y0133219D01*
X0063448Y0134156D01*
X0063448Y0139444D01*
X0062510Y0140381D01*
X0057223Y0140381D01*
X0056286Y0139444D01*
X0056286Y0134156D01*
X0057223Y0133219D01*
X0057467Y0133219D01*
X0057467Y0126323D01*
X0057832Y0125441D01*
X0058507Y0124765D01*
X0059389Y0124400D01*
X0083873Y0124400D01*
X0087832Y0120441D01*
X0088507Y0119765D01*
X0089062Y0119535D01*
X0088706Y0119179D01*
X0088067Y0117635D01*
X0088067Y0115965D01*
X0088706Y0114421D01*
X0089888Y0113239D01*
X0091431Y0112600D01*
X0097273Y0112600D01*
X0095673Y0111000D01*
X0091431Y0111000D01*
X0089888Y0110361D01*
X0088706Y0109179D01*
X0088067Y0107635D01*
X0088067Y0105965D01*
X0088706Y0104421D01*
X0089888Y0103239D01*
X0091431Y0102600D01*
X0097467Y0102600D01*
X0097467Y0101000D01*
X0091431Y0101000D01*
X0089888Y0100361D01*
X0088706Y0099179D01*
X0088067Y0097635D01*
X0088067Y0095965D01*
X0088706Y0094421D01*
X0089888Y0093239D01*
X0091431Y0092600D01*
X0097467Y0092600D01*
X0097467Y0091000D01*
X0091431Y0091000D01*
X0089888Y0090361D01*
X0088706Y0089179D01*
X0088067Y0087635D01*
X0088067Y0085965D01*
X0088706Y0084421D01*
X0089888Y0083239D01*
X0091431Y0082600D01*
X0097467Y0082600D01*
X0097467Y0081000D01*
X0091431Y0081000D01*
X0089888Y0080361D01*
X0088708Y0079181D01*
X0086689Y0081200D01*
X0084867Y0081200D01*
X0084867Y0076800D01*
X0084867Y0072400D01*
X0086689Y0072400D01*
X0088708Y0074419D01*
X0088900Y0074227D01*
X0083873Y0069200D01*
X0073448Y0069200D01*
X0073448Y0072600D01*
X0076606Y0072600D01*
X0079067Y0075060D01*
X0079067Y0078540D01*
X0076606Y0081000D01*
X0073127Y0081000D01*
X0070667Y0078540D01*
X0070667Y0075381D01*
X0069680Y0075381D01*
X0057267Y0087794D01*
X0057267Y0092277D01*
X0056901Y0093159D01*
X0042267Y0107794D01*
X0042267Y0113260D01*
X0044067Y0115060D01*
X0044067Y0118540D01*
X0041606Y0121000D01*
X0038127Y0121000D01*
X0035667Y0118540D01*
X0035667Y0115060D01*
X0037467Y0113260D01*
X0037467Y0106323D01*
X0037832Y0105441D01*
X0038507Y0104765D01*
X0052467Y0090806D01*
X0052467Y0086323D01*
X0052832Y0085441D01*
X0053507Y0084765D01*
X0053507Y0084765D01*
X0066286Y0071987D01*
X0066286Y0069200D01*
X0065861Y0069200D01*
X0061226Y0073835D01*
X0060344Y0074200D01*
X0043448Y0074200D01*
X0043448Y0074444D01*
X0042510Y0075381D01*
X0037223Y0075381D01*
X0036286Y0074444D01*
X0036286Y0069156D01*
X0037223Y0068219D01*
X0042510Y0068219D01*
X0043448Y0069156D01*
X0043448Y0069400D01*
X0058873Y0069400D01*
X0062832Y0065441D01*
X0063507Y0064765D01*
X0064389Y0064400D01*
X0076527Y0064400D01*
X0075667Y0063540D01*
X0075667Y0060060D01*
X0078127Y0057600D01*
X0081606Y0057600D01*
X0084067Y0060060D01*
X0084067Y0063540D01*
X0083206Y0064400D01*
X0085344Y0064400D01*
X0086226Y0064765D01*
X0087873Y0066412D01*
X0087975Y0065770D01*
X0088189Y0065111D01*
X0088503Y0064494D01*
X0088911Y0063934D01*
X0089400Y0063444D01*
X0089961Y0063037D01*
X0090578Y0062722D01*
X0091236Y0062508D01*
X0091920Y0062400D01*
X0094867Y0062400D01*
X0097467Y0062400D01*
X0097467Y0061000D01*
X0091431Y0061000D01*
X0089888Y0060361D01*
X0088706Y0059179D01*
X0088067Y0057635D01*
X0088067Y0055965D01*
X0088706Y0054421D01*
X0089888Y0053239D01*
X0091431Y0052600D01*
X0097467Y0052600D01*
X0097467Y0051000D01*
X0091431Y0051000D01*
X0089888Y0050361D01*
X0088706Y0049179D01*
X0088067Y0047635D01*
X0088067Y0045965D01*
X0088706Y0044421D01*
X0089888Y0043239D01*
X0091431Y0042600D01*
X0097467Y0042600D01*
X0097467Y0041000D01*
X0091431Y0041000D01*
X0089888Y0040361D01*
X0088727Y0039200D01*
X0079389Y0039200D01*
X0078507Y0038835D01*
X0077832Y0038159D01*
X0077467Y0037277D01*
X0077467Y0025340D01*
X0075667Y0023540D01*
X0075667Y0020060D01*
X0078127Y0017600D01*
X0081606Y0017600D01*
X0082467Y0018460D01*
X0082467Y0014200D01*
X0075861Y0014200D01*
X0072267Y0017794D01*
X0072267Y0038219D01*
X0072510Y0038219D01*
X0073448Y0039156D01*
X0073448Y0044444D01*
X0072510Y0045381D01*
X0067223Y0045381D01*
X0066286Y0044444D01*
X0066286Y0039156D01*
X0067223Y0038219D01*
X0067467Y0038219D01*
X0067467Y0016323D01*
X0067523Y0016187D02*
X0041499Y0016187D01*
X0041515Y0016238D02*
X0041647Y0017068D01*
X0041647Y0017108D01*
X0036685Y0017108D01*
X0036685Y0017870D01*
X0041647Y0017870D01*
X0041647Y0017909D01*
X0041515Y0018740D01*
X0041255Y0019540D01*
X0040874Y0020289D01*
X0040379Y0020970D01*
X0039785Y0021565D01*
X0039104Y0022059D01*
X0038355Y0022441D01*
X0037555Y0022701D01*
X0036724Y0022832D01*
X0036685Y0022832D01*
X0036685Y0017870D01*
X0035923Y0017870D01*
X0035923Y0022832D01*
X0035883Y0022832D01*
X0035052Y0022701D01*
X0034253Y0022441D01*
X0033503Y0022059D01*
X0032823Y0021565D01*
X0032228Y0020970D01*
X0031734Y0020289D01*
X0031352Y0019540D01*
X0031092Y0018740D01*
X0030960Y0017909D01*
X0030960Y0017870D01*
X0035922Y0017870D01*
X0035922Y0017108D01*
X0030960Y0017108D01*
X0030960Y0017068D01*
X0031092Y0016238D01*
X0031352Y0015438D01*
X0031734Y0014688D01*
X0032228Y0014008D01*
X0032823Y0013413D01*
X0033503Y0012919D01*
X0034253Y0012537D01*
X0035052Y0012277D01*
X0035883Y0012146D01*
X0035923Y0012146D01*
X0035923Y0017108D01*
X0036685Y0017108D01*
X0036685Y0012146D01*
X0036724Y0012146D01*
X0037555Y0012277D01*
X0038355Y0012537D01*
X0039104Y0012919D01*
X0039785Y0013413D01*
X0040379Y0014008D01*
X0040874Y0014688D01*
X0041255Y0015438D01*
X0041515Y0016238D01*
X0040801Y0014588D02*
X0068684Y0014588D01*
X0070283Y0012990D02*
X0039201Y0012990D01*
X0036685Y0012990D02*
X0035923Y0012990D01*
X0035923Y0014588D02*
X0036685Y0014588D01*
X0036685Y0016187D02*
X0035923Y0016187D01*
X0035922Y0017785D02*
X0014667Y0017785D01*
X0014667Y0016187D02*
X0031109Y0016187D01*
X0031807Y0014588D02*
X0014667Y0014588D01*
X0014667Y0012990D02*
X0033406Y0012990D01*
X0031301Y0019384D02*
X0014667Y0019384D01*
X0014667Y0020982D02*
X0032240Y0020982D01*
X0034683Y0022581D02*
X0014667Y0022581D01*
X0014667Y0024179D02*
X0067467Y0024179D01*
X0067467Y0022581D02*
X0037924Y0022581D01*
X0036685Y0022581D02*
X0035923Y0022581D01*
X0035923Y0020982D02*
X0036685Y0020982D01*
X0036685Y0019384D02*
X0035923Y0019384D01*
X0040367Y0020982D02*
X0067467Y0020982D01*
X0067467Y0019384D02*
X0041306Y0019384D01*
X0037667Y0032172D02*
X0067467Y0032172D01*
X0067467Y0033770D02*
X0040174Y0033770D01*
X0041123Y0035369D02*
X0067467Y0035369D01*
X0067467Y0036967D02*
X0041447Y0036967D01*
X0041294Y0038566D02*
X0066876Y0038566D01*
X0066286Y0040164D02*
X0040587Y0040164D01*
X0038665Y0041763D02*
X0066286Y0041763D01*
X0066286Y0043361D02*
X0033510Y0043361D01*
X0031912Y0044960D02*
X0066802Y0044960D01*
X0069867Y0041800D02*
X0069867Y0016800D01*
X0074867Y0011800D01*
X0084867Y0011800D01*
X0084867Y0021800D01*
X0089867Y0021800D01*
X0094867Y0026800D01*
X0094041Y0022581D02*
X0102467Y0022581D01*
X0102467Y0024179D02*
X0100786Y0024179D01*
X0101589Y0025778D02*
X0102467Y0025778D01*
X0102467Y0027376D02*
X0101667Y0027376D01*
X0101112Y0028975D02*
X0102467Y0028975D01*
X0102467Y0030573D02*
X0099332Y0030573D01*
X0101101Y0032172D02*
X0082267Y0032172D01*
X0082267Y0033770D02*
X0089357Y0033770D01*
X0090401Y0030573D02*
X0082267Y0030573D01*
X0082267Y0028975D02*
X0088621Y0028975D01*
X0088067Y0027376D02*
X0082267Y0027376D01*
X0082267Y0025778D02*
X0088144Y0025778D01*
X0084339Y0024179D02*
X0083427Y0024179D01*
X0079867Y0021800D02*
X0079867Y0036800D01*
X0094867Y0036800D01*
X0099867Y0036800D02*
X0099867Y0106800D01*
X0102267Y0103219D02*
X0102467Y0103219D01*
X0102467Y0041323D01*
X0102832Y0040441D01*
X0103507Y0039765D01*
X0104389Y0039400D01*
X0105344Y0039400D01*
X0118927Y0039400D01*
X0118706Y0039179D01*
X0118067Y0037635D01*
X0118067Y0035965D01*
X0118706Y0034421D01*
X0119888Y0033239D01*
X0121431Y0032600D01*
X0128302Y0032600D01*
X0129846Y0033239D01*
X0131027Y0034421D01*
X0131667Y0035965D01*
X0131667Y0037635D01*
X0131027Y0039179D01*
X0130806Y0039400D01*
X0160344Y0039400D01*
X0161226Y0039765D01*
X0161901Y0040441D01*
X0166901Y0045441D01*
X0167267Y0046323D01*
X0167267Y0082277D01*
X0166901Y0083159D01*
X0166226Y0083835D01*
X0157267Y0092794D01*
X0157267Y0102277D01*
X0156901Y0103159D01*
X0156226Y0103835D01*
X0152267Y0107794D01*
X0152267Y0148219D01*
X0152510Y0148219D01*
X0153448Y0149156D01*
X0153448Y0149825D01*
X0160667Y0142606D01*
X0160667Y0140060D01*
X0163127Y0137600D01*
X0165673Y0137600D01*
X0173507Y0129765D01*
X0174389Y0129400D01*
X0183873Y0129400D01*
X0187467Y0125806D01*
X0187467Y0071323D01*
X0187832Y0070441D01*
X0188507Y0069765D01*
X0189389Y0069400D01*
X0195124Y0069400D01*
X0195374Y0068798D01*
X0196864Y0067307D01*
X0197811Y0066915D01*
X0197755Y0066897D01*
X0196984Y0066504D01*
X0196284Y0065995D01*
X0195671Y0065383D01*
X0195163Y0064683D01*
X0194770Y0063911D01*
X0194502Y0063088D01*
X0194367Y0062233D01*
X0194367Y0062000D01*
X0199667Y0062000D01*
X0199667Y0061600D01*
X0200067Y0061600D01*
X0200067Y0056300D01*
X0200300Y0056300D01*
X0201155Y0056435D01*
X0201917Y0056683D01*
X0201917Y0006600D01*
X0131667Y0006600D01*
X0131667Y0007635D01*
X0131027Y0009179D01*
X0129846Y0010361D01*
X0128302Y0011000D01*
X0121431Y0011000D01*
X0119888Y0010361D01*
X0118706Y0009179D01*
X0118067Y0007635D01*
X0118067Y0006600D01*
X0103061Y0006600D01*
X0106226Y0009765D01*
X0106901Y0010441D01*
X0107267Y0011323D01*
X0107267Y0032277D01*
X0106901Y0033159D01*
X0102267Y0037794D01*
X0102267Y0103219D01*
X0102267Y0102506D02*
X0102467Y0102506D01*
X0102467Y0100908D02*
X0102267Y0100908D01*
X0102267Y0099309D02*
X0102467Y0099309D01*
X0102467Y0097711D02*
X0102267Y0097711D01*
X0102267Y0096112D02*
X0102467Y0096112D01*
X0102467Y0094514D02*
X0102267Y0094514D01*
X0102267Y0092915D02*
X0102467Y0092915D01*
X0102467Y0091317D02*
X0102267Y0091317D01*
X0102267Y0089718D02*
X0102467Y0089718D01*
X0102467Y0088120D02*
X0102267Y0088120D01*
X0102267Y0086521D02*
X0102467Y0086521D01*
X0102467Y0084923D02*
X0102267Y0084923D01*
X0102267Y0083324D02*
X0102467Y0083324D01*
X0102467Y0081726D02*
X0102267Y0081726D01*
X0102267Y0080127D02*
X0102467Y0080127D01*
X0102467Y0078529D02*
X0102267Y0078529D01*
X0102267Y0076930D02*
X0102467Y0076930D01*
X0102467Y0075332D02*
X0102267Y0075332D01*
X0102267Y0073733D02*
X0102467Y0073733D01*
X0102467Y0072134D02*
X0102267Y0072134D01*
X0102267Y0070536D02*
X0102467Y0070536D01*
X0102467Y0068937D02*
X0102267Y0068937D01*
X0102267Y0067339D02*
X0102467Y0067339D01*
X0102467Y0065740D02*
X0102267Y0065740D01*
X0102267Y0064142D02*
X0102467Y0064142D01*
X0102467Y0062543D02*
X0102267Y0062543D01*
X0102267Y0060945D02*
X0102467Y0060945D01*
X0102467Y0059346D02*
X0102267Y0059346D01*
X0102267Y0057748D02*
X0102467Y0057748D01*
X0102467Y0056149D02*
X0102267Y0056149D01*
X0102267Y0054551D02*
X0102467Y0054551D01*
X0102467Y0052952D02*
X0102267Y0052952D01*
X0102267Y0051354D02*
X0102467Y0051354D01*
X0102467Y0049755D02*
X0102267Y0049755D01*
X0102267Y0048157D02*
X0102467Y0048157D01*
X0102467Y0046558D02*
X0102267Y0046558D01*
X0102267Y0044960D02*
X0102467Y0044960D01*
X0102467Y0043361D02*
X0102267Y0043361D01*
X0102267Y0041763D02*
X0102467Y0041763D01*
X0102267Y0040164D02*
X0103108Y0040164D01*
X0102267Y0038566D02*
X0118452Y0038566D01*
X0118067Y0036967D02*
X0103094Y0036967D01*
X0104692Y0035369D02*
X0118313Y0035369D01*
X0119357Y0033770D02*
X0106291Y0033770D01*
X0107267Y0032172D02*
X0201917Y0032172D01*
X0201917Y0033770D02*
X0130377Y0033770D01*
X0131420Y0035369D02*
X0201917Y0035369D01*
X0201917Y0036967D02*
X0131667Y0036967D01*
X0131281Y0038566D02*
X0201917Y0038566D01*
X0201917Y0040164D02*
X0161625Y0040164D01*
X0163224Y0041763D02*
X0201917Y0041763D01*
X0201917Y0043361D02*
X0164822Y0043361D01*
X0166421Y0044960D02*
X0201917Y0044960D01*
X0201917Y0046558D02*
X0167267Y0046558D01*
X0167267Y0048157D02*
X0201917Y0048157D01*
X0201917Y0049755D02*
X0167267Y0049755D01*
X0167267Y0051354D02*
X0201917Y0051354D01*
X0201917Y0052952D02*
X0167267Y0052952D01*
X0167267Y0054551D02*
X0201917Y0054551D01*
X0201917Y0056149D02*
X0167267Y0056149D01*
X0167267Y0057748D02*
X0196141Y0057748D01*
X0196284Y0057605D02*
X0196984Y0057096D01*
X0197755Y0056703D01*
X0198579Y0056435D01*
X0199434Y0056300D01*
X0199667Y0056300D01*
X0199667Y0061600D01*
X0194367Y0061600D01*
X0194367Y0061367D01*
X0194502Y0060512D01*
X0194770Y0059689D01*
X0195163Y0058917D01*
X0195671Y0058217D01*
X0196284Y0057605D01*
X0194944Y0059346D02*
X0167267Y0059346D01*
X0167267Y0060945D02*
X0194434Y0060945D01*
X0194416Y0062543D02*
X0167267Y0062543D01*
X0167267Y0064142D02*
X0176585Y0064142D01*
X0175667Y0065060D02*
X0178127Y0062600D01*
X0181606Y0062600D01*
X0184067Y0065060D01*
X0184067Y0068540D01*
X0182267Y0070340D01*
X0182267Y0083219D01*
X0182510Y0083219D01*
X0183448Y0084156D01*
X0183448Y0089444D01*
X0182510Y0090381D01*
X0177223Y0090381D01*
X0176286Y0089444D01*
X0176286Y0084156D01*
X0177223Y0083219D01*
X0177467Y0083219D01*
X0177467Y0070340D01*
X0175667Y0068540D01*
X0175667Y0065060D01*
X0175667Y0065740D02*
X0167267Y0065740D01*
X0167267Y0067339D02*
X0175667Y0067339D01*
X0176064Y0068937D02*
X0167267Y0068937D01*
X0167267Y0070536D02*
X0177467Y0070536D01*
X0177467Y0072134D02*
X0167267Y0072134D01*
X0167267Y0073733D02*
X0177467Y0073733D01*
X0177467Y0075332D02*
X0167267Y0075332D01*
X0167267Y0076930D02*
X0177467Y0076930D01*
X0177467Y0078529D02*
X0167267Y0078529D01*
X0167267Y0080127D02*
X0177467Y0080127D01*
X0177467Y0081726D02*
X0167267Y0081726D01*
X0166737Y0083324D02*
X0177118Y0083324D01*
X0176286Y0084923D02*
X0165138Y0084923D01*
X0163540Y0086521D02*
X0176286Y0086521D01*
X0176286Y0088120D02*
X0161941Y0088120D01*
X0160343Y0089718D02*
X0176560Y0089718D01*
X0176917Y0091850D02*
X0174867Y0091850D01*
X0174867Y0096800D01*
X0179817Y0096800D01*
X0179817Y0098850D01*
X0176917Y0101750D01*
X0174867Y0101750D01*
X0174867Y0096800D01*
X0174867Y0096800D01*
X0179817Y0096800D01*
X0179817Y0094750D01*
X0176917Y0091850D01*
X0177982Y0092915D02*
X0187467Y0092915D01*
X0187467Y0091317D02*
X0158744Y0091317D01*
X0157267Y0092915D02*
X0162034Y0092915D01*
X0162176Y0092773D02*
X0163922Y0092050D01*
X0165811Y0092050D01*
X0167557Y0092773D01*
X0168894Y0094109D01*
X0169617Y0095855D01*
X0169617Y0097745D01*
X0168894Y0099491D01*
X0167557Y0100827D01*
X0165811Y0101550D01*
X0163922Y0101550D01*
X0162176Y0100827D01*
X0160840Y0099491D01*
X0160117Y0097745D01*
X0160117Y0095855D01*
X0160840Y0094109D01*
X0162176Y0092773D01*
X0160672Y0094514D02*
X0157267Y0094514D01*
X0157267Y0096112D02*
X0160117Y0096112D01*
X0160117Y0097711D02*
X0157267Y0097711D01*
X0157267Y0099309D02*
X0160765Y0099309D01*
X0162371Y0100908D02*
X0157267Y0100908D01*
X0157172Y0102506D02*
X0187467Y0102506D01*
X0187467Y0100908D02*
X0177759Y0100908D01*
X0179358Y0099309D02*
X0187467Y0099309D01*
X0187467Y0097711D02*
X0179817Y0097711D01*
X0179817Y0096112D02*
X0187467Y0096112D01*
X0187467Y0094514D02*
X0179581Y0094514D01*
X0174867Y0094514D02*
X0174867Y0094514D01*
X0174867Y0096112D02*
X0174867Y0096112D01*
X0174867Y0096800D02*
X0174867Y0096800D01*
X0174867Y0096800D01*
X0174867Y0091850D01*
X0172816Y0091850D01*
X0169917Y0094750D01*
X0169917Y0096800D01*
X0174867Y0096800D01*
X0174867Y0101750D01*
X0172816Y0101750D01*
X0169917Y0098850D01*
X0169917Y0096800D01*
X0174867Y0096800D01*
X0174867Y0096800D01*
X0174867Y0097711D02*
X0174867Y0097711D01*
X0174867Y0099309D02*
X0174867Y0099309D01*
X0174867Y0100908D02*
X0174867Y0100908D01*
X0171974Y0100908D02*
X0167362Y0100908D01*
X0168969Y0099309D02*
X0170376Y0099309D01*
X0169917Y0097711D02*
X0169617Y0097711D01*
X0169617Y0096112D02*
X0169917Y0096112D01*
X0170153Y0094514D02*
X0169061Y0094514D01*
X0167699Y0092915D02*
X0171751Y0092915D01*
X0174867Y0092915D02*
X0174867Y0092915D01*
X0179867Y0086800D02*
X0179867Y0066800D01*
X0183148Y0064142D02*
X0194887Y0064142D01*
X0196029Y0065740D02*
X0184067Y0065740D01*
X0184067Y0067339D02*
X0196832Y0067339D01*
X0195316Y0068937D02*
X0183669Y0068937D01*
X0182267Y0070536D02*
X0187792Y0070536D01*
X0187467Y0072134D02*
X0182267Y0072134D01*
X0182267Y0073733D02*
X0187467Y0073733D01*
X0187467Y0075332D02*
X0182267Y0075332D01*
X0182267Y0076930D02*
X0187467Y0076930D01*
X0187467Y0078529D02*
X0182267Y0078529D01*
X0182267Y0080127D02*
X0187467Y0080127D01*
X0187467Y0081726D02*
X0182267Y0081726D01*
X0182616Y0083324D02*
X0187467Y0083324D01*
X0187467Y0084923D02*
X0183448Y0084923D01*
X0183448Y0086521D02*
X0187467Y0086521D01*
X0187467Y0088120D02*
X0183448Y0088120D01*
X0183173Y0089718D02*
X0187467Y0089718D01*
X0192267Y0089718D02*
X0194992Y0089718D01*
X0195374Y0088798D02*
X0196864Y0087307D01*
X0198088Y0086800D01*
X0196864Y0086293D01*
X0195374Y0084802D01*
X0194567Y0082854D01*
X0194567Y0080746D01*
X0195374Y0078798D01*
X0196864Y0077307D01*
X0198088Y0076800D01*
X0196864Y0076293D01*
X0195374Y0074802D01*
X0195124Y0074200D01*
X0192267Y0074200D01*
X0192267Y0127277D01*
X0191901Y0128159D01*
X0186901Y0133159D01*
X0186226Y0133835D01*
X0185344Y0134200D01*
X0175861Y0134200D01*
X0169067Y0140994D01*
X0169067Y0143540D01*
X0166606Y0146000D01*
X0164061Y0146000D01*
X0146901Y0163159D01*
X0146226Y0163835D01*
X0145344Y0164200D01*
X0132267Y0164200D01*
X0132267Y0172277D01*
X0131901Y0173159D01*
X0129401Y0175659D01*
X0128726Y0176335D01*
X0127844Y0176700D01*
X0118406Y0176700D01*
X0116606Y0178500D01*
X0113127Y0178500D01*
X0112344Y0177717D01*
X0111901Y0178159D01*
X0111226Y0178835D01*
X0110344Y0179200D01*
X0100861Y0179200D01*
X0095141Y0184920D01*
X0095141Y0187227D01*
X0095654Y0187440D01*
X0096678Y0188463D01*
X0097701Y0187440D01*
X0099592Y0186657D01*
X0101638Y0186657D01*
X0103528Y0187440D01*
X0104975Y0188887D01*
X0105758Y0190777D01*
X0105758Y0192823D01*
X0105332Y0193850D01*
X0201917Y0193850D01*
X0201917Y0191687D01*
X0200921Y0192100D01*
X0198812Y0192100D01*
X0196864Y0191293D01*
X0195374Y0189802D01*
X0194567Y0187854D01*
X0194567Y0185746D01*
X0195374Y0183798D01*
X0196864Y0182307D01*
X0198088Y0181800D01*
X0196864Y0181293D01*
X0195374Y0179802D01*
X0194567Y0177854D01*
X0194567Y0175746D01*
X0195374Y0173798D01*
X0196864Y0172307D01*
X0197811Y0171915D01*
X0197755Y0171897D01*
X0196984Y0171504D01*
X0196284Y0170995D01*
X0195671Y0170383D01*
X0195163Y0169683D01*
X0194770Y0168911D01*
X0194502Y0168088D01*
X0194367Y0167233D01*
X0194367Y0167000D01*
X0199667Y0167000D01*
X0199667Y0166600D01*
X0194367Y0166600D01*
X0194367Y0166367D01*
X0194502Y0165512D01*
X0194770Y0164689D01*
X0195163Y0163917D01*
X0195671Y0163217D01*
X0196284Y0162605D01*
X0196984Y0162096D01*
X0197755Y0161703D01*
X0197811Y0161685D01*
X0196864Y0161293D01*
X0195374Y0159802D01*
X0195124Y0159200D01*
X0170861Y0159200D01*
X0166901Y0163159D01*
X0166226Y0163835D01*
X0165344Y0164200D01*
X0163448Y0164200D01*
X0163448Y0164444D01*
X0162510Y0165381D01*
X0161227Y0165381D01*
X0161255Y0165438D01*
X0161515Y0166238D01*
X0161647Y0167068D01*
X0161647Y0167108D01*
X0156685Y0167108D01*
X0156685Y0167870D01*
X0161647Y0167870D01*
X0161647Y0167909D01*
X0161515Y0168740D01*
X0161255Y0169540D01*
X0160874Y0170289D01*
X0160379Y0170970D01*
X0159785Y0171565D01*
X0159104Y0172059D01*
X0158355Y0172441D01*
X0157555Y0172701D01*
X0156724Y0172832D01*
X0156685Y0172832D01*
X0156685Y0167870D01*
X0155923Y0167870D01*
X0155923Y0172832D01*
X0155883Y0172832D01*
X0155052Y0172701D01*
X0154253Y0172441D01*
X0153503Y0172059D01*
X0152823Y0171565D01*
X0152228Y0170970D01*
X0151734Y0170289D01*
X0151352Y0169540D01*
X0151092Y0168740D01*
X0150960Y0167909D01*
X0150960Y0167870D01*
X0155922Y0167870D01*
X0155922Y0167108D01*
X0150960Y0167108D01*
X0150960Y0167068D01*
X0151092Y0166238D01*
X0151352Y0165438D01*
X0151734Y0164688D01*
X0152228Y0164008D01*
X0152823Y0163413D01*
X0153503Y0162919D01*
X0154253Y0162537D01*
X0155052Y0162277D01*
X0155883Y0162146D01*
X0155923Y0162146D01*
X0155923Y0167108D01*
X0156685Y0167108D01*
X0156685Y0164843D01*
X0156286Y0164444D01*
X0156286Y0159156D01*
X0157223Y0158219D01*
X0162510Y0158219D01*
X0163448Y0159156D01*
X0163448Y0159400D01*
X0163873Y0159400D01*
X0168507Y0154765D01*
X0169389Y0154400D01*
X0195124Y0154400D01*
X0195374Y0153798D01*
X0196864Y0152307D01*
X0198088Y0151800D01*
X0196864Y0151293D01*
X0195374Y0149802D01*
X0194567Y0147854D01*
X0194567Y0145746D01*
X0195374Y0143798D01*
X0196864Y0142307D01*
X0198812Y0141500D01*
X0200921Y0141500D01*
X0201917Y0141913D01*
X0201917Y0136687D01*
X0200921Y0137100D01*
X0198812Y0137100D01*
X0196864Y0136293D01*
X0195374Y0134802D01*
X0194567Y0132854D01*
X0194567Y0130746D01*
X0195374Y0128798D01*
X0196864Y0127307D01*
X0198088Y0126800D01*
X0196864Y0126293D01*
X0195374Y0124802D01*
X0194567Y0122854D01*
X0194567Y0120746D01*
X0195374Y0118798D01*
X0196864Y0117307D01*
X0198088Y0116800D01*
X0196864Y0116293D01*
X0195374Y0114802D01*
X0194567Y0112854D01*
X0194567Y0110746D01*
X0195374Y0108798D01*
X0196864Y0107307D01*
X0198088Y0106800D01*
X0196864Y0106293D01*
X0195374Y0104802D01*
X0194567Y0102854D01*
X0194567Y0100746D01*
X0195374Y0098798D01*
X0196864Y0097307D01*
X0198088Y0096800D01*
X0196864Y0096293D01*
X0195374Y0094802D01*
X0194567Y0092854D01*
X0194567Y0090746D01*
X0195374Y0088798D01*
X0196052Y0088120D02*
X0192267Y0088120D01*
X0192267Y0086521D02*
X0197415Y0086521D01*
X0195494Y0084923D02*
X0192267Y0084923D01*
X0192267Y0083324D02*
X0194761Y0083324D01*
X0194567Y0081726D02*
X0192267Y0081726D01*
X0192267Y0080127D02*
X0194823Y0080127D01*
X0195643Y0078529D02*
X0192267Y0078529D01*
X0192267Y0076930D02*
X0197774Y0076930D01*
X0195903Y0075332D02*
X0192267Y0075332D01*
X0189867Y0071800D02*
X0189867Y0126800D01*
X0184867Y0131800D01*
X0174867Y0131800D01*
X0164867Y0141800D01*
X0144867Y0161800D01*
X0129867Y0161800D01*
X0129867Y0171800D01*
X0127367Y0174300D01*
X0114867Y0174300D01*
X0114867Y0171800D01*
X0109867Y0176800D01*
X0099867Y0176800D01*
X0092741Y0183926D01*
X0092741Y0191800D01*
X0095141Y0187227D02*
X0098214Y0187227D01*
X0095141Y0185629D02*
X0151377Y0185629D01*
X0151160Y0186151D02*
X0151943Y0184261D01*
X0153390Y0182814D01*
X0155281Y0182031D01*
X0157327Y0182031D01*
X0159217Y0182814D01*
X0160664Y0184261D01*
X0161447Y0186151D01*
X0161447Y0188197D01*
X0160664Y0190087D01*
X0159217Y0191534D01*
X0157327Y0192317D01*
X0155281Y0192317D01*
X0153390Y0191534D01*
X0151943Y0190087D01*
X0151160Y0188197D01*
X0151160Y0186151D01*
X0151160Y0187227D02*
X0103015Y0187227D01*
X0104914Y0188826D02*
X0151421Y0188826D01*
X0152280Y0190424D02*
X0105612Y0190424D01*
X0105758Y0192023D02*
X0154570Y0192023D01*
X0158038Y0192023D02*
X0198626Y0192023D01*
X0201107Y0192023D02*
X0201917Y0192023D01*
X0201917Y0193621D02*
X0105427Y0193621D01*
X0096030Y0184030D02*
X0152174Y0184030D01*
X0154312Y0182432D02*
X0097629Y0182432D01*
X0099227Y0180833D02*
X0196405Y0180833D01*
X0196740Y0182432D02*
X0158295Y0182432D01*
X0160434Y0184030D02*
X0195277Y0184030D01*
X0194615Y0185629D02*
X0161231Y0185629D01*
X0161447Y0187227D02*
X0194567Y0187227D01*
X0194969Y0188826D02*
X0161187Y0188826D01*
X0160327Y0190424D02*
X0195996Y0190424D01*
X0195138Y0179235D02*
X0100826Y0179235D01*
X0097235Y0176038D02*
X0096851Y0176038D01*
X0094867Y0176038D02*
X0094867Y0176038D01*
X0094867Y0174439D02*
X0094867Y0174439D01*
X0094867Y0172841D02*
X0094867Y0172841D01*
X0092882Y0176038D02*
X0052267Y0176038D01*
X0052267Y0174439D02*
X0081566Y0174439D01*
X0080667Y0172841D02*
X0052267Y0172841D01*
X0053819Y0171242D02*
X0080667Y0171242D01*
X0081083Y0169644D02*
X0055417Y0169644D01*
X0056949Y0168045D02*
X0082682Y0168045D01*
X0084867Y0171800D02*
X0089867Y0171800D01*
X0109867Y0151800D01*
X0119867Y0151800D01*
X0119867Y0141800D01*
X0124867Y0136800D01*
X0114867Y0136800D01*
X0114867Y0101800D01*
X0119867Y0096800D01*
X0116286Y0096112D02*
X0112267Y0096112D01*
X0112267Y0094514D02*
X0116286Y0094514D01*
X0115562Y0097711D02*
X0112267Y0097711D01*
X0112267Y0099309D02*
X0113963Y0099309D01*
X0112639Y0100908D02*
X0112267Y0100908D01*
X0112267Y0102506D02*
X0112467Y0102506D01*
X0112467Y0104105D02*
X0112267Y0104105D01*
X0112267Y0105703D02*
X0112467Y0105703D01*
X0112467Y0107302D02*
X0112267Y0107302D01*
X0112267Y0108900D02*
X0112467Y0108900D01*
X0112467Y0110499D02*
X0112267Y0110499D01*
X0112267Y0112097D02*
X0112467Y0112097D01*
X0112467Y0113696D02*
X0112267Y0113696D01*
X0112267Y0115294D02*
X0112467Y0115294D01*
X0112467Y0116893D02*
X0112267Y0116893D01*
X0112267Y0118491D02*
X0112467Y0118491D01*
X0112467Y0120090D02*
X0112267Y0120090D01*
X0112267Y0121688D02*
X0112467Y0121688D01*
X0112467Y0123287D02*
X0112267Y0123287D01*
X0112267Y0124885D02*
X0112467Y0124885D01*
X0112467Y0126484D02*
X0112267Y0126484D01*
X0112267Y0128082D02*
X0112467Y0128082D01*
X0112467Y0129681D02*
X0112267Y0129681D01*
X0112267Y0131279D02*
X0112467Y0131279D01*
X0112467Y0132878D02*
X0112018Y0132878D01*
X0112467Y0134476D02*
X0110584Y0134476D01*
X0108986Y0136075D02*
X0112467Y0136075D01*
X0112631Y0137673D02*
X0107387Y0137673D01*
X0104867Y0136800D02*
X0109867Y0131800D01*
X0109867Y0056800D01*
X0114867Y0051800D01*
X0134867Y0051800D01*
X0134867Y0061800D01*
X0139867Y0066800D01*
X0143148Y0064142D02*
X0162467Y0064142D01*
X0162467Y0065740D02*
X0144067Y0065740D01*
X0144067Y0067339D02*
X0162467Y0067339D01*
X0162467Y0068937D02*
X0143669Y0068937D01*
X0142070Y0070536D02*
X0162467Y0070536D01*
X0162467Y0072134D02*
X0112267Y0072134D01*
X0112267Y0070536D02*
X0120311Y0070536D01*
X0119888Y0070361D02*
X0121431Y0071000D01*
X0128302Y0071000D01*
X0129846Y0070361D01*
X0131027Y0069179D01*
X0131667Y0067635D01*
X0131667Y0065965D01*
X0131027Y0064421D01*
X0129846Y0063239D01*
X0128302Y0062600D01*
X0121431Y0062600D01*
X0119888Y0063239D01*
X0118706Y0064421D01*
X0118067Y0065965D01*
X0118067Y0067635D01*
X0118706Y0069179D01*
X0119888Y0070361D01*
X0118606Y0068937D02*
X0112267Y0068937D01*
X0112267Y0067339D02*
X0118067Y0067339D01*
X0118159Y0065740D02*
X0112267Y0065740D01*
X0112267Y0064142D02*
X0118985Y0064142D01*
X0121298Y0060945D02*
X0112267Y0060945D01*
X0112267Y0062543D02*
X0132577Y0062543D01*
X0132467Y0060945D02*
X0128435Y0060945D01*
X0130860Y0059346D02*
X0132467Y0059346D01*
X0132467Y0057748D02*
X0131620Y0057748D01*
X0131667Y0056149D02*
X0132467Y0056149D01*
X0132467Y0054551D02*
X0131081Y0054551D01*
X0137267Y0054551D02*
X0162467Y0054551D01*
X0162467Y0056149D02*
X0137267Y0056149D01*
X0137267Y0057748D02*
X0162467Y0057748D01*
X0162467Y0059346D02*
X0137267Y0059346D01*
X0137406Y0060945D02*
X0162467Y0060945D01*
X0162467Y0062543D02*
X0139004Y0062543D01*
X0135413Y0065740D02*
X0131574Y0065740D01*
X0131667Y0067339D02*
X0135667Y0067339D01*
X0136064Y0068937D02*
X0131127Y0068937D01*
X0129422Y0070536D02*
X0137663Y0070536D01*
X0133814Y0064142D02*
X0130748Y0064142D01*
X0128302Y0072600D02*
X0121431Y0072600D01*
X0119888Y0073239D01*
X0118706Y0074421D01*
X0118067Y0075965D01*
X0118067Y0077635D01*
X0118706Y0079179D01*
X0119888Y0080361D01*
X0121431Y0081000D01*
X0128302Y0081000D01*
X0129846Y0080361D01*
X0131027Y0079179D01*
X0131667Y0077635D01*
X0131667Y0075965D01*
X0131027Y0074421D01*
X0129846Y0073239D01*
X0128302Y0072600D01*
X0130339Y0073733D02*
X0162467Y0073733D01*
X0162467Y0075332D02*
X0131404Y0075332D01*
X0131667Y0076930D02*
X0162467Y0076930D01*
X0164867Y0081800D02*
X0164867Y0046800D01*
X0159867Y0041800D01*
X0104867Y0041800D01*
X0104867Y0111800D01*
X0099867Y0111800D01*
X0094867Y0106800D01*
X0097467Y0102506D02*
X0081795Y0102506D01*
X0081689Y0102400D02*
X0079867Y0102400D01*
X0079867Y0106800D01*
X0084267Y0106800D01*
X0084267Y0108623D01*
X0081689Y0111200D01*
X0079867Y0111200D01*
X0079867Y0106800D01*
X0079867Y0106800D01*
X0084267Y0106800D01*
X0084267Y0104977D01*
X0081689Y0102400D01*
X0079867Y0102400D02*
X0079867Y0106800D01*
X0079867Y0106800D01*
X0079867Y0106800D01*
X0079867Y0111200D01*
X0078044Y0111200D01*
X0075467Y0108623D01*
X0075467Y0106800D01*
X0075467Y0104977D01*
X0078044Y0102400D01*
X0079867Y0102400D01*
X0079867Y0102506D02*
X0079867Y0102506D01*
X0079867Y0104105D02*
X0079867Y0104105D01*
X0079867Y0105703D02*
X0079867Y0105703D01*
X0079867Y0106800D02*
X0075467Y0106800D01*
X0079867Y0106800D01*
X0079867Y0106800D01*
X0079867Y0107302D02*
X0079867Y0107302D01*
X0079867Y0108900D02*
X0079867Y0108900D01*
X0079867Y0110499D02*
X0079867Y0110499D01*
X0079867Y0112400D02*
X0078044Y0112400D01*
X0075467Y0114977D01*
X0075467Y0116800D01*
X0079867Y0116800D01*
X0084267Y0116800D01*
X0084267Y0118623D01*
X0081689Y0121200D01*
X0079867Y0121200D01*
X0079867Y0116800D01*
X0079867Y0116800D01*
X0084267Y0116800D01*
X0084267Y0114977D01*
X0081689Y0112400D01*
X0079867Y0112400D01*
X0079867Y0116800D01*
X0079867Y0116800D01*
X0079867Y0116800D01*
X0079867Y0112400D01*
X0079867Y0113696D02*
X0079867Y0113696D01*
X0079867Y0115294D02*
X0079867Y0115294D01*
X0079867Y0116800D02*
X0079867Y0116800D01*
X0079867Y0121200D01*
X0078044Y0121200D01*
X0075467Y0118623D01*
X0075467Y0116800D01*
X0079867Y0116800D01*
X0079867Y0116893D02*
X0079867Y0116893D01*
X0079867Y0118491D02*
X0079867Y0118491D01*
X0079867Y0120090D02*
X0079867Y0120090D01*
X0082799Y0120090D02*
X0088183Y0120090D01*
X0088421Y0118491D02*
X0084267Y0118491D01*
X0084267Y0116893D02*
X0088067Y0116893D01*
X0088344Y0115294D02*
X0084267Y0115294D01*
X0082985Y0113696D02*
X0089431Y0113696D01*
X0090221Y0110499D02*
X0082390Y0110499D01*
X0083989Y0108900D02*
X0088591Y0108900D01*
X0088067Y0107302D02*
X0084267Y0107302D01*
X0084267Y0105703D02*
X0088175Y0105703D01*
X0089022Y0104105D02*
X0083394Y0104105D01*
X0077938Y0102506D02*
X0047555Y0102506D01*
X0049153Y0100908D02*
X0091208Y0100908D01*
X0088836Y0099309D02*
X0050752Y0099309D01*
X0052350Y0097711D02*
X0088098Y0097711D01*
X0088067Y0096112D02*
X0053949Y0096112D01*
X0055547Y0094514D02*
X0088668Y0094514D01*
X0090670Y0092915D02*
X0057002Y0092915D01*
X0057267Y0091317D02*
X0097467Y0091317D01*
X0089245Y0089718D02*
X0057267Y0089718D01*
X0057267Y0088120D02*
X0088267Y0088120D01*
X0088067Y0086521D02*
X0058540Y0086521D01*
X0060138Y0084923D02*
X0088498Y0084923D01*
X0089803Y0083324D02*
X0061737Y0083324D01*
X0063335Y0081726D02*
X0097467Y0081726D01*
X0094867Y0076800D02*
X0084867Y0066800D01*
X0064867Y0066800D01*
X0059867Y0071800D01*
X0039867Y0071800D01*
X0042560Y0075332D02*
X0062941Y0075332D01*
X0061343Y0076930D02*
X0033391Y0076930D01*
X0032560Y0075332D02*
X0037173Y0075332D01*
X0036286Y0073733D02*
X0033448Y0073733D01*
X0033448Y0072134D02*
X0036286Y0072134D01*
X0036286Y0070536D02*
X0033448Y0070536D01*
X0033229Y0068937D02*
X0036504Y0068937D01*
X0032267Y0067339D02*
X0060934Y0067339D01*
X0062532Y0065740D02*
X0032267Y0065740D01*
X0032267Y0064142D02*
X0076269Y0064142D01*
X0075667Y0062543D02*
X0032517Y0062543D01*
X0029867Y0061800D02*
X0034867Y0056800D01*
X0038260Y0059346D02*
X0041473Y0059346D01*
X0040667Y0058540D02*
X0043127Y0061000D01*
X0046606Y0061000D01*
X0049067Y0058540D01*
X0049067Y0055060D01*
X0046606Y0052600D01*
X0043127Y0052600D01*
X0040667Y0055060D01*
X0040667Y0058540D01*
X0040667Y0057748D02*
X0039067Y0057748D01*
X0039067Y0056149D02*
X0040667Y0056149D01*
X0041176Y0054551D02*
X0038557Y0054551D01*
X0036959Y0052952D02*
X0042775Y0052952D01*
X0046959Y0052952D02*
X0090581Y0052952D01*
X0088652Y0054551D02*
X0048557Y0054551D01*
X0049067Y0056149D02*
X0088067Y0056149D01*
X0088113Y0057748D02*
X0081754Y0057748D01*
X0083353Y0059346D02*
X0088873Y0059346D01*
X0091298Y0060945D02*
X0084067Y0060945D01*
X0084067Y0062543D02*
X0091128Y0062543D01*
X0088759Y0064142D02*
X0083464Y0064142D01*
X0087201Y0065740D02*
X0087984Y0065740D01*
X0085209Y0070536D02*
X0073448Y0070536D01*
X0073448Y0072134D02*
X0086807Y0072134D01*
X0084867Y0072400D02*
X0084867Y0076800D01*
X0084867Y0076800D01*
X0084867Y0076800D01*
X0084867Y0081200D01*
X0083044Y0081200D01*
X0080467Y0078623D01*
X0080467Y0076800D01*
X0080467Y0074977D01*
X0083044Y0072400D01*
X0084867Y0072400D01*
X0084867Y0073733D02*
X0084867Y0073733D01*
X0084867Y0075332D02*
X0084867Y0075332D01*
X0084867Y0076800D02*
X0080467Y0076800D01*
X0084867Y0076800D01*
X0084867Y0076800D01*
X0084867Y0076930D02*
X0084867Y0076930D01*
X0084867Y0078529D02*
X0084867Y0078529D01*
X0084867Y0080127D02*
X0084867Y0080127D01*
X0087762Y0080127D02*
X0089654Y0080127D01*
X0081971Y0080127D02*
X0077479Y0080127D01*
X0079067Y0078529D02*
X0080467Y0078529D01*
X0080467Y0076930D02*
X0079067Y0076930D01*
X0079067Y0075332D02*
X0080467Y0075332D01*
X0081711Y0073733D02*
X0077739Y0073733D01*
X0070667Y0076930D02*
X0068131Y0076930D01*
X0066532Y0078529D02*
X0070667Y0078529D01*
X0072254Y0080127D02*
X0064934Y0080127D01*
X0059744Y0078529D02*
X0034989Y0078529D01*
X0036588Y0080127D02*
X0058145Y0080127D01*
X0056547Y0081726D02*
X0037267Y0081726D01*
X0037267Y0083324D02*
X0054948Y0083324D01*
X0053350Y0084923D02*
X0037267Y0084923D01*
X0037267Y0086521D02*
X0052467Y0086521D01*
X0052467Y0088120D02*
X0037267Y0088120D01*
X0037267Y0089718D02*
X0052467Y0089718D01*
X0051956Y0091317D02*
X0037267Y0091317D01*
X0037267Y0092915D02*
X0050357Y0092915D01*
X0048759Y0094514D02*
X0037267Y0094514D01*
X0037267Y0096112D02*
X0047160Y0096112D01*
X0045562Y0097711D02*
X0037087Y0097711D01*
X0035752Y0099309D02*
X0043963Y0099309D01*
X0042365Y0100908D02*
X0034153Y0100908D01*
X0032555Y0102506D02*
X0040766Y0102506D01*
X0039168Y0104105D02*
X0030574Y0104105D01*
X0029867Y0101800D02*
X0034867Y0096800D01*
X0034867Y0081800D01*
X0024867Y0071800D01*
X0024867Y0046800D01*
X0026678Y0046800D01*
X0036304Y0037174D01*
X0031484Y0035369D02*
X0014667Y0035369D01*
X0014667Y0036967D02*
X0031160Y0036967D01*
X0031313Y0038566D02*
X0014667Y0038566D01*
X0014667Y0040164D02*
X0029919Y0040164D01*
X0028321Y0041763D02*
X0014667Y0041763D01*
X0014667Y0043361D02*
X0026722Y0043361D01*
X0023313Y0044960D02*
X0014667Y0044960D01*
X0014667Y0046558D02*
X0022467Y0046558D01*
X0022467Y0048157D02*
X0014667Y0048157D01*
X0014667Y0049755D02*
X0022467Y0049755D01*
X0022467Y0051354D02*
X0014667Y0051354D01*
X0014667Y0052952D02*
X0022467Y0052952D01*
X0022467Y0054551D02*
X0014667Y0054551D01*
X0014667Y0056149D02*
X0022467Y0056149D01*
X0022467Y0057748D02*
X0018310Y0057748D01*
X0019587Y0059346D02*
X0022467Y0059346D01*
X0022467Y0060945D02*
X0020167Y0060945D01*
X0020167Y0062543D02*
X0022467Y0062543D01*
X0022467Y0064142D02*
X0019633Y0064142D01*
X0018422Y0065740D02*
X0022467Y0065740D01*
X0022467Y0067339D02*
X0017901Y0067339D01*
X0019418Y0068937D02*
X0022467Y0068937D01*
X0022467Y0070536D02*
X0020080Y0070536D01*
X0020167Y0072134D02*
X0022467Y0072134D01*
X0023406Y0073733D02*
X0019803Y0073733D01*
X0018830Y0075332D02*
X0025004Y0075332D01*
X0026603Y0076930D02*
X0016959Y0076930D01*
X0019091Y0078529D02*
X0021913Y0078529D01*
X0021286Y0080127D02*
X0019910Y0080127D01*
X0020167Y0081726D02*
X0021286Y0081726D01*
X0021286Y0083324D02*
X0019972Y0083324D01*
X0019239Y0084923D02*
X0021764Y0084923D01*
X0022467Y0086521D02*
X0017318Y0086521D01*
X0018682Y0088120D02*
X0022467Y0088120D01*
X0022467Y0089718D02*
X0019741Y0089718D01*
X0020167Y0091317D02*
X0022467Y0091317D01*
X0022467Y0092915D02*
X0020141Y0092915D01*
X0019479Y0094514D02*
X0021286Y0094514D01*
X0021286Y0096112D02*
X0018050Y0096112D01*
X0018273Y0097711D02*
X0021286Y0097711D01*
X0021286Y0099309D02*
X0019572Y0099309D01*
X0024867Y0096800D02*
X0024867Y0081800D01*
X0027820Y0078529D02*
X0028201Y0078529D01*
X0028448Y0080127D02*
X0029800Y0080127D01*
X0028448Y0081726D02*
X0031398Y0081726D01*
X0032467Y0083324D02*
X0028448Y0083324D01*
X0027969Y0084923D02*
X0032467Y0084923D01*
X0032467Y0086521D02*
X0027267Y0086521D01*
X0027267Y0088120D02*
X0032467Y0088120D01*
X0032467Y0089718D02*
X0027267Y0089718D01*
X0027267Y0091317D02*
X0032467Y0091317D01*
X0032467Y0092915D02*
X0027267Y0092915D01*
X0028448Y0094514D02*
X0032467Y0094514D01*
X0032160Y0096112D02*
X0028448Y0096112D01*
X0028448Y0097711D02*
X0030562Y0097711D01*
X0028963Y0099309D02*
X0028448Y0099309D01*
X0029867Y0101800D02*
X0014867Y0101800D01*
X0018459Y0105703D02*
X0037723Y0105703D01*
X0037467Y0107302D02*
X0017856Y0107302D01*
X0019402Y0108900D02*
X0037467Y0108900D01*
X0037467Y0110499D02*
X0020064Y0110499D01*
X0020167Y0112097D02*
X0037467Y0112097D01*
X0037031Y0113696D02*
X0019818Y0113696D01*
X0018868Y0115294D02*
X0035667Y0115294D01*
X0035667Y0116893D02*
X0016869Y0116893D01*
X0019053Y0118491D02*
X0035667Y0118491D01*
X0037217Y0120090D02*
X0019895Y0120090D01*
X0020167Y0121688D02*
X0086584Y0121688D01*
X0084986Y0123287D02*
X0019987Y0123287D01*
X0019277Y0124885D02*
X0058387Y0124885D01*
X0057467Y0126484D02*
X0017408Y0126484D01*
X0018927Y0128082D02*
X0027645Y0128082D01*
X0028127Y0127600D02*
X0025667Y0130060D01*
X0025667Y0133540D01*
X0028127Y0136000D01*
X0031606Y0136000D01*
X0034067Y0133540D01*
X0034067Y0130060D01*
X0031606Y0127600D01*
X0028127Y0127600D01*
X0026046Y0129681D02*
X0019960Y0129681D01*
X0020353Y0131279D02*
X0025667Y0131279D01*
X0025667Y0132878D02*
X0020264Y0132878D01*
X0019676Y0134476D02*
X0026603Y0134476D01*
X0033130Y0134476D02*
X0036603Y0134476D01*
X0035667Y0133540D02*
X0038127Y0136000D01*
X0041606Y0136000D01*
X0044067Y0133540D01*
X0044067Y0130060D01*
X0041606Y0127600D01*
X0038127Y0127600D01*
X0035667Y0130060D01*
X0035667Y0133540D01*
X0035667Y0132878D02*
X0034067Y0132878D01*
X0034067Y0131279D02*
X0035667Y0131279D01*
X0036046Y0129681D02*
X0033687Y0129681D01*
X0032089Y0128082D02*
X0037645Y0128082D01*
X0042089Y0128082D02*
X0057467Y0128082D01*
X0057467Y0129681D02*
X0043687Y0129681D01*
X0044067Y0131279D02*
X0057467Y0131279D01*
X0057467Y0132878D02*
X0044067Y0132878D01*
X0043130Y0134476D02*
X0056286Y0134476D01*
X0056286Y0136075D02*
X0018340Y0136075D01*
X0015067Y0136075D02*
X0014667Y0136075D01*
X0014667Y0137673D02*
X0056286Y0137673D01*
X0056286Y0139272D02*
X0014667Y0139272D01*
X0014667Y0140870D02*
X0072402Y0140870D01*
X0074001Y0139272D02*
X0063448Y0139272D01*
X0063448Y0137673D02*
X0075599Y0137673D01*
X0077198Y0136075D02*
X0063448Y0136075D01*
X0063448Y0134476D02*
X0078796Y0134476D01*
X0080395Y0132878D02*
X0062267Y0132878D01*
X0062267Y0131279D02*
X0081993Y0131279D01*
X0083711Y0129681D02*
X0062267Y0129681D01*
X0059867Y0126800D02*
X0084867Y0126800D01*
X0089867Y0121800D01*
X0099867Y0121800D01*
X0104867Y0116800D01*
X0106569Y0118491D02*
X0107467Y0118491D01*
X0106901Y0118159D02*
X0101226Y0123835D01*
X0100671Y0124065D01*
X0101027Y0124421D01*
X0101667Y0125965D01*
X0101667Y0127635D01*
X0101425Y0128219D01*
X0102510Y0128219D01*
X0103448Y0129156D01*
X0103448Y0134400D01*
X0103873Y0134400D01*
X0107467Y0130806D01*
X0107467Y0056323D01*
X0107832Y0055441D01*
X0112832Y0050441D01*
X0113507Y0049765D01*
X0114389Y0049400D01*
X0118717Y0049400D01*
X0118503Y0049106D01*
X0118189Y0048489D01*
X0117975Y0047830D01*
X0117867Y0047146D01*
X0117867Y0046800D01*
X0117867Y0046454D01*
X0117975Y0045770D01*
X0118189Y0045111D01*
X0118503Y0044494D01*
X0118717Y0044200D01*
X0107267Y0044200D01*
X0107267Y0112277D01*
X0106901Y0113159D01*
X0106226Y0113835D01*
X0105344Y0114200D01*
X0100806Y0114200D01*
X0101027Y0114421D01*
X0101667Y0115965D01*
X0101667Y0116606D01*
X0103507Y0114765D01*
X0104389Y0114400D01*
X0105344Y0114400D01*
X0106226Y0114765D01*
X0106901Y0115441D01*
X0107267Y0116323D01*
X0107267Y0117277D01*
X0106901Y0118159D01*
X0107267Y0116893D02*
X0107467Y0116893D01*
X0107467Y0115294D02*
X0106755Y0115294D01*
X0106365Y0113696D02*
X0107467Y0113696D01*
X0107467Y0112097D02*
X0107267Y0112097D01*
X0107267Y0110499D02*
X0107467Y0110499D01*
X0107467Y0108900D02*
X0107267Y0108900D01*
X0107267Y0107302D02*
X0107467Y0107302D01*
X0107467Y0105703D02*
X0107267Y0105703D01*
X0107267Y0104105D02*
X0107467Y0104105D01*
X0107467Y0102506D02*
X0107267Y0102506D01*
X0107267Y0100908D02*
X0107467Y0100908D01*
X0107467Y0099309D02*
X0107267Y0099309D01*
X0107267Y0097711D02*
X0107467Y0097711D01*
X0107467Y0096112D02*
X0107267Y0096112D01*
X0107267Y0094514D02*
X0107467Y0094514D01*
X0107467Y0092915D02*
X0107267Y0092915D01*
X0107267Y0091317D02*
X0107467Y0091317D01*
X0107467Y0089718D02*
X0107267Y0089718D01*
X0107267Y0088120D02*
X0107467Y0088120D01*
X0107467Y0086521D02*
X0107267Y0086521D01*
X0107267Y0084923D02*
X0107467Y0084923D01*
X0107467Y0083324D02*
X0107267Y0083324D01*
X0107267Y0081726D02*
X0107467Y0081726D01*
X0107467Y0080127D02*
X0107267Y0080127D01*
X0107267Y0078529D02*
X0107467Y0078529D01*
X0107467Y0076930D02*
X0107267Y0076930D01*
X0107267Y0075332D02*
X0107467Y0075332D01*
X0107467Y0073733D02*
X0107267Y0073733D01*
X0107267Y0072134D02*
X0107467Y0072134D01*
X0107467Y0070536D02*
X0107267Y0070536D01*
X0107267Y0068937D02*
X0107467Y0068937D01*
X0107467Y0067339D02*
X0107267Y0067339D01*
X0107267Y0065740D02*
X0107467Y0065740D01*
X0107467Y0064142D02*
X0107267Y0064142D01*
X0107267Y0062543D02*
X0107467Y0062543D01*
X0107467Y0060945D02*
X0107267Y0060945D01*
X0107267Y0059346D02*
X0107467Y0059346D01*
X0107467Y0057748D02*
X0107267Y0057748D01*
X0107267Y0056149D02*
X0107538Y0056149D01*
X0107267Y0054551D02*
X0108722Y0054551D01*
X0107267Y0052952D02*
X0110320Y0052952D01*
X0111919Y0051354D02*
X0107267Y0051354D01*
X0107267Y0049755D02*
X0113531Y0049755D01*
X0118081Y0048157D02*
X0107267Y0048157D01*
X0107267Y0046558D02*
X0117867Y0046558D01*
X0117867Y0046800D02*
X0124867Y0046800D01*
X0131867Y0046800D01*
X0124867Y0046800D01*
X0124867Y0046800D01*
X0124867Y0046800D01*
X0117867Y0046800D01*
X0118266Y0044960D02*
X0107267Y0044960D01*
X0097467Y0041763D02*
X0073448Y0041763D01*
X0073448Y0043361D02*
X0089766Y0043361D01*
X0088483Y0044960D02*
X0072932Y0044960D01*
X0073448Y0040164D02*
X0089691Y0040164D01*
X0088067Y0046558D02*
X0030313Y0046558D01*
X0028715Y0048157D02*
X0088283Y0048157D01*
X0089282Y0049755D02*
X0027267Y0049755D01*
X0027267Y0051354D02*
X0097467Y0051354D01*
X0094867Y0062400D02*
X0094867Y0066800D01*
X0094867Y0066800D01*
X0094867Y0066800D01*
X0094867Y0071200D01*
X0097467Y0071200D01*
X0097467Y0072600D01*
X0094061Y0072600D01*
X0092661Y0071200D01*
X0094867Y0071200D01*
X0094867Y0066800D01*
X0094867Y0062400D01*
X0094867Y0062543D02*
X0094867Y0062543D01*
X0094867Y0064142D02*
X0094867Y0064142D01*
X0094867Y0065740D02*
X0094867Y0065740D01*
X0094867Y0067339D02*
X0094867Y0067339D01*
X0094867Y0068937D02*
X0094867Y0068937D01*
X0094867Y0070536D02*
X0094867Y0070536D01*
X0093595Y0072134D02*
X0097467Y0072134D01*
X0088406Y0073733D02*
X0088022Y0073733D01*
X0075667Y0060945D02*
X0046661Y0060945D01*
X0048260Y0059346D02*
X0076381Y0059346D01*
X0077979Y0057748D02*
X0049067Y0057748D01*
X0043072Y0060945D02*
X0036661Y0060945D01*
X0030525Y0057748D02*
X0027267Y0057748D01*
X0027267Y0059346D02*
X0028926Y0059346D01*
X0027623Y0060945D02*
X0027267Y0060945D01*
X0027267Y0062543D02*
X0027467Y0062543D01*
X0027467Y0064142D02*
X0027267Y0064142D01*
X0027267Y0065740D02*
X0027467Y0065740D01*
X0027467Y0067339D02*
X0027267Y0067339D01*
X0029867Y0071800D02*
X0029867Y0061800D01*
X0030667Y0056149D02*
X0027267Y0056149D01*
X0027267Y0054551D02*
X0031176Y0054551D01*
X0032775Y0052952D02*
X0027267Y0052952D01*
X0043229Y0068937D02*
X0059335Y0068937D01*
X0062926Y0072134D02*
X0066138Y0072134D01*
X0066286Y0070536D02*
X0064525Y0070536D01*
X0064540Y0073733D02*
X0061328Y0073733D01*
X0069867Y0071800D02*
X0054867Y0086800D01*
X0054867Y0091800D01*
X0039867Y0106800D01*
X0039867Y0116800D01*
X0042516Y0120090D02*
X0076934Y0120090D01*
X0075467Y0118491D02*
X0044067Y0118491D01*
X0044067Y0116893D02*
X0075467Y0116893D01*
X0075467Y0115294D02*
X0044067Y0115294D01*
X0042702Y0113696D02*
X0076748Y0113696D01*
X0077343Y0110499D02*
X0072108Y0110499D01*
X0071606Y0111000D02*
X0068127Y0111000D01*
X0065667Y0108540D01*
X0065667Y0105060D01*
X0068127Y0102600D01*
X0071606Y0102600D01*
X0074067Y0105060D01*
X0074067Y0108540D01*
X0071606Y0111000D01*
X0073706Y0108900D02*
X0075744Y0108900D01*
X0075467Y0107302D02*
X0074067Y0107302D01*
X0074067Y0105703D02*
X0075467Y0105703D01*
X0076339Y0104105D02*
X0073111Y0104105D01*
X0066622Y0104105D02*
X0045956Y0104105D01*
X0044358Y0105703D02*
X0065667Y0105703D01*
X0065667Y0107302D02*
X0042759Y0107302D01*
X0042267Y0108900D02*
X0066027Y0108900D01*
X0067626Y0110499D02*
X0042267Y0110499D01*
X0042267Y0112097D02*
X0096770Y0112097D01*
X0101389Y0115294D02*
X0102978Y0115294D01*
X0104971Y0120090D02*
X0107467Y0120090D01*
X0107467Y0121688D02*
X0103372Y0121688D01*
X0101774Y0123287D02*
X0107467Y0123287D01*
X0107467Y0124885D02*
X0101220Y0124885D01*
X0101667Y0126484D02*
X0107467Y0126484D01*
X0107467Y0128082D02*
X0101482Y0128082D01*
X0103448Y0129681D02*
X0107467Y0129681D01*
X0106993Y0131279D02*
X0103448Y0131279D01*
X0103448Y0132878D02*
X0105395Y0132878D01*
X0104867Y0136800D02*
X0094867Y0136800D01*
X0099867Y0141800D01*
X0099867Y0151800D01*
X0102634Y0155257D02*
X0103015Y0155257D01*
X0103448Y0153659D02*
X0104614Y0153659D01*
X0103448Y0152060D02*
X0106212Y0152060D01*
X0107811Y0150462D02*
X0103448Y0150462D01*
X0103155Y0148863D02*
X0117467Y0148863D01*
X0117467Y0147265D02*
X0102267Y0147265D01*
X0102267Y0145666D02*
X0117467Y0145666D01*
X0117467Y0144068D02*
X0102267Y0144068D01*
X0102267Y0142469D02*
X0117467Y0142469D01*
X0117654Y0140870D02*
X0102079Y0140870D01*
X0100934Y0139272D02*
X0118799Y0139272D01*
X0122592Y0142469D02*
X0147467Y0142469D01*
X0147467Y0140870D02*
X0128615Y0140870D01*
X0130934Y0139272D02*
X0147467Y0139272D01*
X0147467Y0137673D02*
X0131651Y0137673D01*
X0131667Y0136075D02*
X0147467Y0136075D01*
X0152267Y0136075D02*
X0167198Y0136075D01*
X0168796Y0134476D02*
X0152267Y0134476D01*
X0152267Y0132878D02*
X0170395Y0132878D01*
X0171993Y0131279D02*
X0152267Y0131279D01*
X0152267Y0129681D02*
X0173711Y0129681D01*
X0175584Y0134476D02*
X0195239Y0134476D01*
X0194576Y0132878D02*
X0187183Y0132878D01*
X0188781Y0131279D02*
X0194567Y0131279D01*
X0195008Y0129681D02*
X0190380Y0129681D01*
X0191933Y0128082D02*
X0196089Y0128082D01*
X0197325Y0126484D02*
X0192267Y0126484D01*
X0192267Y0124885D02*
X0195457Y0124885D01*
X0194746Y0123287D02*
X0192267Y0123287D01*
X0192267Y0121688D02*
X0194567Y0121688D01*
X0194838Y0120090D02*
X0192267Y0120090D01*
X0192267Y0118491D02*
X0195680Y0118491D01*
X0197864Y0116893D02*
X0192267Y0116893D01*
X0192267Y0115294D02*
X0195866Y0115294D01*
X0194915Y0113696D02*
X0192267Y0113696D01*
X0192267Y0112097D02*
X0194567Y0112097D01*
X0194669Y0110499D02*
X0192267Y0110499D01*
X0192267Y0108900D02*
X0195331Y0108900D01*
X0196877Y0107302D02*
X0192267Y0107302D01*
X0192267Y0105703D02*
X0196275Y0105703D01*
X0195085Y0104105D02*
X0192267Y0104105D01*
X0192267Y0102506D02*
X0194567Y0102506D01*
X0194567Y0100908D02*
X0192267Y0100908D01*
X0192267Y0099309D02*
X0195162Y0099309D01*
X0196461Y0097711D02*
X0192267Y0097711D01*
X0192267Y0096112D02*
X0196684Y0096112D01*
X0195254Y0094514D02*
X0192267Y0094514D01*
X0192267Y0092915D02*
X0194592Y0092915D01*
X0194567Y0091317D02*
X0192267Y0091317D01*
X0187467Y0104105D02*
X0155956Y0104105D01*
X0154358Y0105703D02*
X0187467Y0105703D01*
X0187467Y0107302D02*
X0152759Y0107302D01*
X0152267Y0108900D02*
X0187467Y0108900D01*
X0187467Y0110499D02*
X0152267Y0110499D01*
X0152267Y0112097D02*
X0187467Y0112097D01*
X0187467Y0113696D02*
X0152267Y0113696D01*
X0152267Y0115294D02*
X0187467Y0115294D01*
X0187467Y0116893D02*
X0152267Y0116893D01*
X0152267Y0118491D02*
X0187467Y0118491D01*
X0187467Y0120090D02*
X0152267Y0120090D01*
X0152267Y0121688D02*
X0187467Y0121688D01*
X0187467Y0123287D02*
X0152267Y0123287D01*
X0152267Y0124885D02*
X0187467Y0124885D01*
X0186789Y0126484D02*
X0152267Y0126484D01*
X0152267Y0128082D02*
X0185190Y0128082D01*
X0176606Y0137600D02*
X0179067Y0140060D01*
X0179067Y0143540D01*
X0176606Y0146000D01*
X0173127Y0146000D01*
X0170667Y0143540D01*
X0170667Y0140060D01*
X0173127Y0137600D01*
X0176606Y0137600D01*
X0176680Y0137673D02*
X0201917Y0137673D01*
X0201917Y0139272D02*
X0178278Y0139272D01*
X0179067Y0140870D02*
X0201917Y0140870D01*
X0196702Y0142469D02*
X0179067Y0142469D01*
X0178539Y0144068D02*
X0195262Y0144068D01*
X0194600Y0145666D02*
X0176940Y0145666D01*
X0172793Y0145666D02*
X0166940Y0145666D01*
X0168539Y0144068D02*
X0171194Y0144068D01*
X0170667Y0142469D02*
X0169067Y0142469D01*
X0169190Y0140870D02*
X0170667Y0140870D01*
X0170789Y0139272D02*
X0171455Y0139272D01*
X0172387Y0137673D02*
X0173053Y0137673D01*
X0173986Y0136075D02*
X0196646Y0136075D01*
X0194567Y0147265D02*
X0162796Y0147265D01*
X0161198Y0148863D02*
X0194985Y0148863D01*
X0196033Y0150462D02*
X0159599Y0150462D01*
X0158001Y0152060D02*
X0197460Y0152060D01*
X0195513Y0153659D02*
X0156402Y0153659D01*
X0154804Y0155257D02*
X0168015Y0155257D01*
X0166417Y0156856D02*
X0153205Y0156856D01*
X0151607Y0158454D02*
X0156988Y0158454D01*
X0156286Y0160053D02*
X0150008Y0160053D01*
X0148410Y0161651D02*
X0156286Y0161651D01*
X0156286Y0163250D02*
X0155923Y0163250D01*
X0155923Y0164848D02*
X0156685Y0164848D01*
X0156685Y0166447D02*
X0155923Y0166447D01*
X0155615Y0166800D02*
X0109867Y0166800D01*
X0114267Y0166800D01*
X0114267Y0168623D01*
X0111689Y0171200D01*
X0109867Y0171200D01*
X0109867Y0166800D01*
X0109867Y0166800D01*
X0114267Y0166800D01*
X0114267Y0164977D01*
X0111689Y0162400D01*
X0109867Y0162400D01*
X0109867Y0166800D01*
X0109867Y0166800D01*
X0109867Y0166800D01*
X0109867Y0162400D01*
X0108044Y0162400D01*
X0105467Y0164977D01*
X0105467Y0166800D01*
X0109867Y0166800D01*
X0109867Y0171200D01*
X0108044Y0171200D01*
X0105467Y0168623D01*
X0105467Y0166800D01*
X0109867Y0166800D01*
X0109867Y0166800D01*
X0109867Y0166447D02*
X0109867Y0166447D01*
X0109867Y0168045D02*
X0109867Y0168045D01*
X0109867Y0169644D02*
X0109867Y0169644D01*
X0111985Y0171242D02*
X0099267Y0171242D01*
X0099267Y0172841D02*
X0110432Y0172841D01*
X0113245Y0169644D02*
X0113801Y0169644D01*
X0114267Y0168045D02*
X0115667Y0168045D01*
X0115667Y0168540D02*
X0115667Y0165060D01*
X0118127Y0162600D01*
X0121606Y0162600D01*
X0124067Y0165060D01*
X0124067Y0168540D01*
X0121606Y0171000D01*
X0118127Y0171000D01*
X0115667Y0168540D01*
X0115932Y0169644D02*
X0116771Y0169644D01*
X0117749Y0171242D02*
X0127030Y0171242D01*
X0127467Y0169644D02*
X0122963Y0169644D01*
X0124067Y0168045D02*
X0127467Y0168045D01*
X0127467Y0166447D02*
X0124067Y0166447D01*
X0123855Y0164848D02*
X0127467Y0164848D01*
X0127467Y0163250D02*
X0122256Y0163250D01*
X0117477Y0163250D02*
X0112539Y0163250D01*
X0114137Y0164848D02*
X0115879Y0164848D01*
X0115667Y0166447D02*
X0114267Y0166447D01*
X0109867Y0164848D02*
X0109867Y0164848D01*
X0109867Y0163250D02*
X0109867Y0163250D01*
X0107194Y0163250D02*
X0101811Y0163250D01*
X0100213Y0164848D02*
X0105596Y0164848D01*
X0105467Y0166447D02*
X0098614Y0166447D01*
X0097334Y0168045D02*
X0105467Y0168045D01*
X0106488Y0169644D02*
X0098933Y0169644D01*
X0099295Y0174439D02*
X0098450Y0174439D01*
X0095636Y0177636D02*
X0052118Y0177636D01*
X0049867Y0176800D02*
X0049867Y0171800D01*
X0054867Y0166800D01*
X0054867Y0156800D01*
X0059867Y0151800D01*
X0056286Y0151987D02*
X0056286Y0149200D01*
X0042267Y0149200D01*
X0042267Y0167039D01*
X0042652Y0166759D01*
X0043266Y0166446D01*
X0043921Y0166234D01*
X0044601Y0166126D01*
X0044945Y0166126D01*
X0044945Y0170501D01*
X0044945Y0170501D01*
X0044945Y0166126D01*
X0045290Y0166126D01*
X0045970Y0166234D01*
X0046625Y0166446D01*
X0047238Y0166759D01*
X0047795Y0167164D01*
X0048282Y0167651D01*
X0048687Y0168208D01*
X0049000Y0168821D01*
X0049110Y0169162D01*
X0052467Y0165806D01*
X0052467Y0156323D01*
X0052832Y0155441D01*
X0056286Y0151987D01*
X0056212Y0152060D02*
X0042267Y0152060D01*
X0042267Y0150462D02*
X0056286Y0150462D01*
X0054614Y0153659D02*
X0042267Y0153659D01*
X0042267Y0155257D02*
X0053015Y0155257D01*
X0052467Y0156856D02*
X0042267Y0156856D01*
X0042267Y0158454D02*
X0052467Y0158454D01*
X0052467Y0160053D02*
X0042267Y0160053D01*
X0042267Y0161651D02*
X0052467Y0161651D01*
X0052467Y0163250D02*
X0042267Y0163250D01*
X0042267Y0164848D02*
X0052467Y0164848D01*
X0051826Y0166447D02*
X0046625Y0166447D01*
X0044945Y0166447D02*
X0044945Y0166447D01*
X0044945Y0168045D02*
X0044945Y0168045D01*
X0044945Y0169644D02*
X0044945Y0169644D01*
X0043266Y0166447D02*
X0042267Y0166447D01*
X0037467Y0166447D02*
X0031007Y0166447D01*
X0030979Y0166514D02*
X0028951Y0168542D01*
X0026301Y0169640D01*
X0023432Y0169640D01*
X0020782Y0168542D01*
X0018754Y0166514D01*
X0017656Y0163864D01*
X0017656Y0160996D01*
X0018754Y0158346D01*
X0020782Y0156317D01*
X0023432Y0155220D01*
X0026301Y0155220D01*
X0028951Y0156317D01*
X0030979Y0158346D01*
X0032077Y0160996D01*
X0032077Y0163864D01*
X0030979Y0166514D01*
X0031669Y0164848D02*
X0037467Y0164848D01*
X0037467Y0163250D02*
X0032077Y0163250D01*
X0032077Y0161651D02*
X0037467Y0161651D01*
X0037467Y0160053D02*
X0031686Y0160053D01*
X0031024Y0158454D02*
X0037467Y0158454D01*
X0037467Y0156856D02*
X0029489Y0156856D01*
X0026391Y0155257D02*
X0037467Y0155257D01*
X0037467Y0153659D02*
X0014667Y0153659D01*
X0014667Y0155257D02*
X0023342Y0155257D01*
X0020244Y0156856D02*
X0014667Y0156856D01*
X0014667Y0158454D02*
X0018709Y0158454D01*
X0018047Y0160053D02*
X0014667Y0160053D01*
X0014667Y0161651D02*
X0017656Y0161651D01*
X0017656Y0163250D02*
X0014667Y0163250D01*
X0014667Y0164848D02*
X0018064Y0164848D01*
X0018726Y0166447D02*
X0014667Y0166447D01*
X0014667Y0168045D02*
X0020285Y0168045D01*
X0014667Y0169644D02*
X0037467Y0169644D01*
X0037467Y0168045D02*
X0029448Y0168045D01*
X0036046Y0172841D02*
X0014667Y0172841D01*
X0014667Y0174439D02*
X0036046Y0174439D01*
X0036704Y0176038D02*
X0014667Y0176038D01*
X0014667Y0177636D02*
X0036660Y0177636D01*
X0036046Y0179235D02*
X0014667Y0179235D01*
X0014667Y0180833D02*
X0036068Y0180833D01*
X0036799Y0182432D02*
X0014667Y0182432D01*
X0014667Y0184030D02*
X0023262Y0184030D01*
X0020211Y0185629D02*
X0014667Y0185629D01*
X0014667Y0187227D02*
X0018695Y0187227D01*
X0018033Y0188826D02*
X0014667Y0188826D01*
X0014667Y0190424D02*
X0017656Y0190424D01*
X0017656Y0192023D02*
X0014667Y0192023D01*
X0014667Y0193621D02*
X0018078Y0193621D01*
X0026471Y0184030D02*
X0039163Y0184030D01*
X0041571Y0185629D02*
X0029522Y0185629D01*
X0031038Y0187227D02*
X0044002Y0187227D01*
X0045889Y0187227D02*
X0066718Y0187227D01*
X0064819Y0188826D02*
X0031700Y0188826D01*
X0032077Y0190424D02*
X0064121Y0190424D01*
X0063975Y0192023D02*
X0032077Y0192023D01*
X0031656Y0193621D02*
X0064306Y0193621D01*
X0071519Y0187227D02*
X0074592Y0187227D01*
X0079393Y0187227D02*
X0082466Y0187227D01*
X0087267Y0187227D02*
X0090340Y0187227D01*
X0090341Y0185629D02*
X0048320Y0185629D01*
X0049078Y0184030D02*
X0090341Y0184030D01*
X0090841Y0182432D02*
X0049120Y0182432D01*
X0048526Y0180833D02*
X0092439Y0180833D01*
X0094038Y0179235D02*
X0048415Y0179235D01*
X0049867Y0176800D02*
X0044945Y0176800D01*
X0040221Y0173650D02*
X0039867Y0173296D01*
X0039867Y0146800D01*
X0069867Y0146800D01*
X0084867Y0131800D01*
X0099867Y0131800D01*
X0091119Y0140870D02*
X0079190Y0140870D01*
X0080789Y0139272D02*
X0088799Y0139272D01*
X0088082Y0137673D02*
X0082387Y0137673D01*
X0083986Y0136075D02*
X0088067Y0136075D01*
X0088683Y0134476D02*
X0085584Y0134476D01*
X0086978Y0128082D02*
X0088252Y0128082D01*
X0097142Y0142469D02*
X0077592Y0142469D01*
X0075993Y0144068D02*
X0097467Y0144068D01*
X0097467Y0145666D02*
X0074395Y0145666D01*
X0072796Y0147265D02*
X0076752Y0147265D01*
X0075202Y0148863D02*
X0074387Y0148863D01*
X0069205Y0144068D02*
X0014667Y0144068D01*
X0014667Y0145666D02*
X0037739Y0145666D01*
X0037467Y0147265D02*
X0014667Y0147265D01*
X0014667Y0148863D02*
X0037467Y0148863D01*
X0037467Y0150462D02*
X0014667Y0150462D01*
X0014667Y0152060D02*
X0037467Y0152060D01*
X0048569Y0168045D02*
X0050227Y0168045D01*
X0057267Y0166447D02*
X0091826Y0166447D01*
X0090227Y0168045D02*
X0087052Y0168045D01*
X0088167Y0174439D02*
X0091283Y0174439D01*
X0093424Y0164848D02*
X0057267Y0164848D01*
X0057267Y0163250D02*
X0095023Y0163250D01*
X0096621Y0161651D02*
X0057267Y0161651D01*
X0057267Y0160053D02*
X0098220Y0160053D01*
X0099818Y0158454D02*
X0057267Y0158454D01*
X0058205Y0156856D02*
X0068222Y0156856D01*
X0065828Y0155257D02*
X0062634Y0155257D01*
X0063448Y0153659D02*
X0064900Y0153659D01*
X0064567Y0152060D02*
X0063448Y0152060D01*
X0063448Y0150462D02*
X0064684Y0150462D01*
X0071511Y0156856D02*
X0077674Y0156856D01*
X0079867Y0156856D02*
X0079867Y0156856D01*
X0079867Y0155257D02*
X0079867Y0155257D01*
X0079867Y0153659D02*
X0079867Y0153659D01*
X0079867Y0152060D02*
X0079867Y0152060D01*
X0079867Y0150462D02*
X0079867Y0150462D01*
X0079867Y0148863D02*
X0079867Y0148863D01*
X0079867Y0147265D02*
X0079867Y0147265D01*
X0082981Y0147265D02*
X0086967Y0147265D01*
X0085347Y0148863D02*
X0084531Y0148863D01*
X0084153Y0155257D02*
X0085828Y0155257D01*
X0088222Y0156856D02*
X0082059Y0156856D01*
X0075580Y0155257D02*
X0073905Y0155257D01*
X0070804Y0142469D02*
X0014667Y0142469D01*
X0014667Y0134476D02*
X0015067Y0134476D01*
X0015067Y0132878D02*
X0014667Y0132878D01*
X0014667Y0171242D02*
X0036725Y0171242D01*
X0059867Y0136800D02*
X0059867Y0126800D01*
X0091511Y0156856D02*
X0101417Y0156856D01*
X0097099Y0155257D02*
X0093905Y0155257D01*
X0094833Y0153659D02*
X0096286Y0153659D01*
X0096286Y0152060D02*
X0095167Y0152060D01*
X0095049Y0150462D02*
X0096286Y0150462D01*
X0096579Y0148863D02*
X0094387Y0148863D01*
X0092767Y0147265D02*
X0097467Y0147265D01*
X0108205Y0156856D02*
X0146417Y0156856D01*
X0147099Y0155257D02*
X0142349Y0155257D01*
X0141606Y0156000D02*
X0138127Y0156000D01*
X0135667Y0153540D01*
X0135667Y0150060D01*
X0138127Y0147600D01*
X0141606Y0147600D01*
X0144067Y0150060D01*
X0144067Y0153540D01*
X0141606Y0156000D01*
X0143948Y0153659D02*
X0146286Y0153659D01*
X0146286Y0152060D02*
X0144067Y0152060D01*
X0144067Y0150462D02*
X0146286Y0150462D01*
X0146579Y0148863D02*
X0142869Y0148863D01*
X0147467Y0147265D02*
X0122267Y0147265D01*
X0122267Y0148863D02*
X0136864Y0148863D01*
X0135667Y0150462D02*
X0122267Y0150462D01*
X0122267Y0152060D02*
X0135667Y0152060D01*
X0135786Y0153659D02*
X0121402Y0153659D01*
X0128220Y0160053D02*
X0105008Y0160053D01*
X0103410Y0161651D02*
X0127467Y0161651D01*
X0132267Y0164848D02*
X0151652Y0164848D01*
X0151059Y0166447D02*
X0132267Y0166447D01*
X0132267Y0168045D02*
X0150982Y0168045D01*
X0151405Y0169644D02*
X0132267Y0169644D01*
X0132267Y0171242D02*
X0152500Y0171242D01*
X0155923Y0171242D02*
X0156685Y0171242D01*
X0156685Y0169644D02*
X0155923Y0169644D01*
X0155923Y0168045D02*
X0156685Y0168045D01*
X0156304Y0167489D02*
X0155615Y0166800D01*
X0153048Y0163250D02*
X0146811Y0163250D01*
X0144818Y0158454D02*
X0106607Y0158454D01*
X0109804Y0155257D02*
X0137384Y0155257D01*
X0147467Y0145666D02*
X0122267Y0145666D01*
X0122267Y0144068D02*
X0147467Y0144068D01*
X0152267Y0144068D02*
X0159205Y0144068D01*
X0160667Y0142469D02*
X0152267Y0142469D01*
X0152267Y0140870D02*
X0160667Y0140870D01*
X0161455Y0139272D02*
X0152267Y0139272D01*
X0152267Y0137673D02*
X0163053Y0137673D01*
X0157607Y0145666D02*
X0152267Y0145666D01*
X0152267Y0147265D02*
X0156008Y0147265D01*
X0154409Y0148863D02*
X0153155Y0148863D01*
X0149867Y0151800D02*
X0149867Y0106800D01*
X0154867Y0101800D01*
X0154867Y0091800D01*
X0164867Y0081800D01*
X0159867Y0081800D02*
X0149867Y0081800D01*
X0144867Y0086800D01*
X0140503Y0084923D02*
X0131235Y0084923D01*
X0131027Y0084421D02*
X0131667Y0085965D01*
X0131667Y0087635D01*
X0131027Y0089179D01*
X0129846Y0090361D01*
X0128302Y0091000D01*
X0121431Y0091000D01*
X0119888Y0090361D01*
X0118706Y0089179D01*
X0118067Y0087635D01*
X0118067Y0085965D01*
X0118706Y0084421D01*
X0119888Y0083239D01*
X0121431Y0082600D01*
X0128302Y0082600D01*
X0129846Y0083239D01*
X0131027Y0084421D01*
X0129930Y0083324D02*
X0141625Y0083324D01*
X0140117Y0086521D02*
X0131667Y0086521D01*
X0131466Y0088120D02*
X0140272Y0088120D01*
X0141067Y0089718D02*
X0130488Y0089718D01*
X0129063Y0092915D02*
X0141751Y0092915D01*
X0140153Y0094514D02*
X0131066Y0094514D01*
X0131667Y0096112D02*
X0139917Y0096112D01*
X0139917Y0096800D02*
X0144867Y0096800D01*
X0149817Y0096800D01*
X0144867Y0096800D01*
X0144867Y0096800D01*
X0144867Y0091850D01*
X0144867Y0096800D01*
X0144867Y0096800D01*
X0144867Y0096800D01*
X0139917Y0096800D01*
X0139917Y0097711D02*
X0131635Y0097711D01*
X0130897Y0099309D02*
X0140376Y0099309D01*
X0144867Y0101800D02*
X0144867Y0131800D01*
X0141286Y0131279D02*
X0117267Y0131279D01*
X0117267Y0129681D02*
X0118925Y0129681D01*
X0118911Y0129666D02*
X0118503Y0129106D01*
X0118189Y0128489D01*
X0117975Y0127830D01*
X0117867Y0127146D01*
X0117867Y0126800D01*
X0117867Y0126454D01*
X0117975Y0125770D01*
X0118189Y0125111D01*
X0118503Y0124494D01*
X0118911Y0123934D01*
X0119400Y0123444D01*
X0119961Y0123037D01*
X0120578Y0122722D01*
X0121236Y0122508D01*
X0121920Y0122400D01*
X0124867Y0122400D01*
X0127813Y0122400D01*
X0128497Y0122508D01*
X0129156Y0122722D01*
X0129773Y0123037D01*
X0130333Y0123444D01*
X0130823Y0123934D01*
X0131230Y0124494D01*
X0131544Y0125111D01*
X0131758Y0125770D01*
X0131867Y0126454D01*
X0131867Y0126800D01*
X0131867Y0127146D01*
X0131758Y0127830D01*
X0131544Y0128489D01*
X0131230Y0129106D01*
X0130823Y0129666D01*
X0130333Y0130156D01*
X0129773Y0130563D01*
X0129156Y0130878D01*
X0128497Y0131092D01*
X0127813Y0131200D01*
X0124867Y0131200D01*
X0124867Y0126800D01*
X0131867Y0126800D01*
X0124867Y0126800D01*
X0124867Y0126800D01*
X0124867Y0122400D01*
X0124867Y0126800D01*
X0124867Y0126800D01*
X0124867Y0126800D01*
X0124867Y0131200D01*
X0121920Y0131200D01*
X0121236Y0131092D01*
X0120578Y0130878D01*
X0119961Y0130563D01*
X0119400Y0130156D01*
X0118911Y0129666D01*
X0118057Y0128082D02*
X0117267Y0128082D01*
X0117867Y0126800D02*
X0124867Y0126800D01*
X0117867Y0126800D01*
X0117867Y0126484D02*
X0117267Y0126484D01*
X0117267Y0124885D02*
X0118304Y0124885D01*
X0117267Y0123287D02*
X0119616Y0123287D01*
X0117267Y0121688D02*
X0142467Y0121688D01*
X0142467Y0120090D02*
X0130116Y0120090D01*
X0129846Y0120361D02*
X0128302Y0121000D01*
X0121431Y0121000D01*
X0119888Y0120361D01*
X0118706Y0119179D01*
X0118067Y0117635D01*
X0118067Y0115965D01*
X0118706Y0114421D01*
X0119888Y0113239D01*
X0121431Y0112600D01*
X0128302Y0112600D01*
X0129846Y0113239D01*
X0131027Y0114421D01*
X0131667Y0115965D01*
X0131667Y0117635D01*
X0131027Y0119179D01*
X0129846Y0120361D01*
X0131312Y0118491D02*
X0142467Y0118491D01*
X0142467Y0116893D02*
X0131667Y0116893D01*
X0131389Y0115294D02*
X0137138Y0115294D01*
X0138044Y0116200D02*
X0135467Y0113623D01*
X0135467Y0111800D01*
X0135467Y0109977D01*
X0138044Y0107400D01*
X0139867Y0107400D01*
X0139867Y0111800D01*
X0139867Y0111800D01*
X0139867Y0111800D01*
X0139867Y0116200D01*
X0138044Y0116200D01*
X0139867Y0115294D02*
X0139867Y0115294D01*
X0139867Y0113696D02*
X0139867Y0113696D01*
X0139867Y0112097D02*
X0139867Y0112097D01*
X0139867Y0111800D02*
X0139867Y0111800D01*
X0135467Y0111800D01*
X0139867Y0111800D01*
X0139867Y0110499D02*
X0139867Y0110499D01*
X0139867Y0108900D02*
X0139867Y0108900D01*
X0142467Y0107302D02*
X0131667Y0107302D01*
X0131558Y0105703D02*
X0142467Y0105703D01*
X0144867Y0101800D02*
X0124867Y0101800D01*
X0121286Y0102506D02*
X0117555Y0102506D01*
X0117267Y0104105D02*
X0119022Y0104105D01*
X0118175Y0105703D02*
X0117267Y0105703D01*
X0117267Y0107302D02*
X0118067Y0107302D01*
X0118591Y0108900D02*
X0117267Y0108900D01*
X0117267Y0110499D02*
X0120221Y0110499D01*
X0117267Y0112097D02*
X0135467Y0112097D01*
X0135467Y0110499D02*
X0129512Y0110499D01*
X0131143Y0108900D02*
X0136544Y0108900D01*
X0135540Y0113696D02*
X0130302Y0113696D01*
X0130117Y0123287D02*
X0142467Y0123287D01*
X0142467Y0124885D02*
X0131429Y0124885D01*
X0131867Y0126484D02*
X0142467Y0126484D01*
X0142467Y0128082D02*
X0131676Y0128082D01*
X0130808Y0129681D02*
X0141286Y0129681D01*
X0141286Y0132878D02*
X0128973Y0132878D01*
X0131050Y0134476D02*
X0141318Y0134476D01*
X0147267Y0128082D02*
X0147467Y0128082D01*
X0147467Y0126484D02*
X0147267Y0126484D01*
X0147267Y0124885D02*
X0147467Y0124885D01*
X0147467Y0123287D02*
X0147267Y0123287D01*
X0147267Y0121688D02*
X0147467Y0121688D01*
X0147467Y0120090D02*
X0147267Y0120090D01*
X0147267Y0118491D02*
X0147467Y0118491D01*
X0147467Y0116893D02*
X0147267Y0116893D01*
X0147267Y0115294D02*
X0147467Y0115294D01*
X0147467Y0113696D02*
X0147267Y0113696D01*
X0147267Y0112097D02*
X0147467Y0112097D01*
X0147467Y0110499D02*
X0147267Y0110499D01*
X0147267Y0108900D02*
X0147467Y0108900D01*
X0147467Y0107302D02*
X0147267Y0107302D01*
X0147267Y0105703D02*
X0147723Y0105703D01*
X0147267Y0104105D02*
X0149168Y0104105D01*
X0150766Y0102506D02*
X0147267Y0102506D01*
X0147759Y0100908D02*
X0152365Y0100908D01*
X0152467Y0099309D02*
X0149358Y0099309D01*
X0149817Y0097711D02*
X0152467Y0097711D01*
X0152467Y0096112D02*
X0149817Y0096112D01*
X0149581Y0094514D02*
X0152467Y0094514D01*
X0152467Y0092915D02*
X0147982Y0092915D01*
X0146375Y0091317D02*
X0152469Y0091317D01*
X0153554Y0089718D02*
X0148666Y0089718D01*
X0149461Y0088120D02*
X0155153Y0088120D01*
X0156751Y0086521D02*
X0149617Y0086521D01*
X0150138Y0084923D02*
X0156764Y0084923D01*
X0156913Y0078529D02*
X0131297Y0078529D01*
X0130079Y0080127D02*
X0148145Y0080127D01*
X0146547Y0081726D02*
X0112267Y0081726D01*
X0112267Y0083324D02*
X0119803Y0083324D01*
X0118498Y0084923D02*
X0112267Y0084923D01*
X0112267Y0086521D02*
X0118067Y0086521D01*
X0118267Y0088120D02*
X0112267Y0088120D01*
X0112267Y0089718D02*
X0119245Y0089718D01*
X0120670Y0092915D02*
X0112267Y0092915D01*
X0112267Y0091317D02*
X0143358Y0091317D01*
X0144867Y0092915D02*
X0144867Y0092915D01*
X0144867Y0094514D02*
X0144867Y0094514D01*
X0144867Y0096112D02*
X0144867Y0096112D01*
X0121208Y0100908D02*
X0119153Y0100908D01*
X0119431Y0113696D02*
X0117267Y0113696D01*
X0117267Y0115294D02*
X0118344Y0115294D01*
X0118067Y0116893D02*
X0117267Y0116893D01*
X0117267Y0118491D02*
X0118421Y0118491D01*
X0117267Y0120090D02*
X0119617Y0120090D01*
X0124867Y0123287D02*
X0124867Y0123287D01*
X0124867Y0124885D02*
X0124867Y0124885D01*
X0124867Y0126484D02*
X0124867Y0126484D01*
X0124867Y0126800D02*
X0124867Y0126800D01*
X0124867Y0128082D02*
X0124867Y0128082D01*
X0124867Y0129681D02*
X0124867Y0129681D01*
X0120760Y0132878D02*
X0117267Y0132878D01*
X0132033Y0172841D02*
X0196331Y0172841D01*
X0196624Y0171242D02*
X0160107Y0171242D01*
X0161203Y0169644D02*
X0195143Y0169644D01*
X0194495Y0168045D02*
X0161625Y0168045D01*
X0161548Y0166447D02*
X0194367Y0166447D01*
X0194718Y0164848D02*
X0163043Y0164848D01*
X0164867Y0161800D02*
X0159867Y0161800D01*
X0162746Y0158454D02*
X0164818Y0158454D01*
X0164867Y0161800D02*
X0169867Y0156800D01*
X0199867Y0156800D01*
X0197729Y0161651D02*
X0168410Y0161651D01*
X0170008Y0160053D02*
X0195624Y0160053D01*
X0195648Y0163250D02*
X0166811Y0163250D01*
X0195108Y0174439D02*
X0130622Y0174439D01*
X0129023Y0176038D02*
X0194567Y0176038D01*
X0194567Y0177636D02*
X0117470Y0177636D01*
X0119654Y0080127D02*
X0112267Y0080127D01*
X0112267Y0078529D02*
X0118437Y0078529D01*
X0118067Y0076930D02*
X0112267Y0076930D01*
X0112267Y0075332D02*
X0118329Y0075332D01*
X0119394Y0073733D02*
X0112267Y0073733D01*
X0112267Y0059346D02*
X0118873Y0059346D01*
X0118113Y0057748D02*
X0112313Y0057748D01*
X0113911Y0056149D02*
X0118067Y0056149D01*
X0118652Y0054551D02*
X0115510Y0054551D01*
X0131652Y0048157D02*
X0162467Y0048157D01*
X0162467Y0049755D02*
X0136202Y0049755D01*
X0137267Y0051354D02*
X0162467Y0051354D01*
X0162467Y0052952D02*
X0137267Y0052952D01*
X0131867Y0046558D02*
X0161231Y0046558D01*
X0159632Y0044960D02*
X0131467Y0044960D01*
X0128302Y0031000D02*
X0121431Y0031000D01*
X0119888Y0030361D01*
X0118706Y0029179D01*
X0118067Y0027635D01*
X0118067Y0025965D01*
X0118706Y0024421D01*
X0119888Y0023239D01*
X0121431Y0022600D01*
X0128302Y0022600D01*
X0129846Y0023239D01*
X0131027Y0024421D01*
X0131667Y0025965D01*
X0131667Y0027635D01*
X0131027Y0029179D01*
X0129846Y0030361D01*
X0128302Y0031000D01*
X0129332Y0030573D02*
X0201917Y0030573D01*
X0201917Y0028975D02*
X0131112Y0028975D01*
X0131667Y0027376D02*
X0201917Y0027376D01*
X0201917Y0025778D02*
X0131589Y0025778D01*
X0130786Y0024179D02*
X0201917Y0024179D01*
X0201917Y0022581D02*
X0107267Y0022581D01*
X0107267Y0024179D02*
X0118948Y0024179D01*
X0118144Y0025778D02*
X0107267Y0025778D01*
X0107267Y0027376D02*
X0118067Y0027376D01*
X0118621Y0028975D02*
X0107267Y0028975D01*
X0107267Y0030573D02*
X0120401Y0030573D01*
X0121431Y0021000D02*
X0119888Y0020361D01*
X0118706Y0019179D01*
X0118067Y0017635D01*
X0118067Y0015965D01*
X0118706Y0014421D01*
X0119888Y0013239D01*
X0121431Y0012600D01*
X0128302Y0012600D01*
X0129846Y0013239D01*
X0131027Y0014421D01*
X0131667Y0015965D01*
X0131667Y0017635D01*
X0131027Y0019179D01*
X0129846Y0020361D01*
X0128302Y0021000D01*
X0121431Y0021000D01*
X0121388Y0020982D02*
X0107267Y0020982D01*
X0107267Y0019384D02*
X0118911Y0019384D01*
X0118129Y0017785D02*
X0107267Y0017785D01*
X0107267Y0016187D02*
X0118067Y0016187D01*
X0118637Y0014588D02*
X0107267Y0014588D01*
X0107267Y0012990D02*
X0120491Y0012990D01*
X0119320Y0009793D02*
X0106253Y0009793D01*
X0107267Y0011391D02*
X0201917Y0011391D01*
X0201917Y0009793D02*
X0130414Y0009793D01*
X0131435Y0008194D02*
X0201917Y0008194D01*
X0201917Y0012990D02*
X0129243Y0012990D01*
X0131096Y0014588D02*
X0201917Y0014588D01*
X0201917Y0016187D02*
X0131667Y0016187D01*
X0131605Y0017785D02*
X0201917Y0017785D01*
X0201917Y0019384D02*
X0130823Y0019384D01*
X0128345Y0020982D02*
X0201917Y0020982D01*
X0200067Y0057748D02*
X0199667Y0057748D01*
X0199667Y0059346D02*
X0200067Y0059346D01*
X0200067Y0060945D02*
X0199667Y0060945D01*
X0199867Y0071800D02*
X0189867Y0071800D01*
X0118298Y0008194D02*
X0104655Y0008194D01*
X0104867Y0011800D02*
X0104867Y0031800D01*
X0099867Y0036800D01*
X0098345Y0020982D02*
X0102467Y0020982D01*
X0102467Y0019384D02*
X0100823Y0019384D01*
X0101605Y0017785D02*
X0102467Y0017785D01*
X0102467Y0016187D02*
X0101667Y0016187D01*
X0101096Y0014588D02*
X0102467Y0014588D01*
X0102467Y0012990D02*
X0099243Y0012990D01*
X0101064Y0011391D02*
X0087267Y0011391D01*
X0087267Y0012990D02*
X0090491Y0012990D01*
X0088637Y0014588D02*
X0087267Y0014588D01*
X0087267Y0016187D02*
X0088067Y0016187D01*
X0088129Y0017785D02*
X0087267Y0017785D01*
X0087267Y0019384D02*
X0088911Y0019384D01*
X0082467Y0017785D02*
X0081791Y0017785D01*
X0082467Y0016187D02*
X0073874Y0016187D01*
X0072276Y0017785D02*
X0077942Y0017785D01*
X0076343Y0019384D02*
X0072267Y0019384D01*
X0072267Y0020982D02*
X0075667Y0020982D01*
X0075667Y0022581D02*
X0072267Y0022581D01*
X0072267Y0024179D02*
X0076306Y0024179D01*
X0077467Y0025778D02*
X0072267Y0025778D01*
X0072267Y0027376D02*
X0077467Y0027376D01*
X0077467Y0028975D02*
X0072267Y0028975D01*
X0072267Y0030573D02*
X0077467Y0030573D01*
X0077467Y0032172D02*
X0072267Y0032172D01*
X0072267Y0033770D02*
X0077467Y0033770D01*
X0077467Y0035369D02*
X0072267Y0035369D01*
X0072267Y0036967D02*
X0077467Y0036967D01*
X0078238Y0038566D02*
X0072857Y0038566D01*
X0067467Y0030573D02*
X0014667Y0030573D01*
X0014667Y0028975D02*
X0067467Y0028975D01*
X0067467Y0027376D02*
X0014667Y0027376D01*
X0014667Y0025778D02*
X0067467Y0025778D01*
X0075473Y0014588D02*
X0082467Y0014588D01*
X0086253Y0009793D02*
X0089320Y0009793D01*
X0088298Y0008194D02*
X0014667Y0008194D01*
X0014667Y0009793D02*
X0073480Y0009793D01*
X0071881Y0011391D02*
X0014667Y0011391D01*
X0014667Y0032172D02*
X0034940Y0032172D01*
X0032434Y0033770D02*
X0014667Y0033770D01*
X0094867Y0006800D02*
X0099867Y0006800D01*
X0104867Y0011800D01*
D20*
X0069867Y0041800D03*
X0069867Y0071800D03*
X0039867Y0071800D03*
X0029867Y0071800D03*
X0024867Y0081800D03*
X0024867Y0096800D03*
X0059867Y0136800D03*
X0059867Y0151800D03*
X0099867Y0151800D03*
X0099867Y0131800D03*
X0099867Y0106800D03*
X0119867Y0096800D03*
X0124867Y0101800D03*
X0144867Y0131800D03*
X0149867Y0151800D03*
X0159867Y0161800D03*
X0179867Y0086800D03*
X0159867Y0081800D03*
M02*
